<svg width="80" height="80" viewBox="0 0 80 80" fill="none" xmlns="http://www.w3.org/2000/svg">
<g clip-path="url(#clip0_2184_368)">
<mask id="path-1-inside-1_2184_368" fill="white">
<path d="M12.4138 30.3449H17.931C18.2969 30.3449 18.6477 30.1995 18.9064 29.9409C19.165 29.6822 19.3103 29.3314 19.3103 28.9656V17.9311C19.3103 17.5653 19.165 17.2144 18.9064 16.9557C18.6477 16.6971 18.2969 16.5518 17.931 16.5518H12.4138C12.048 16.5518 11.6971 16.6971 11.4385 16.9557C11.1798 17.2144 11.0345 17.5653 11.0345 17.9311V28.9656C11.0345 29.3314 11.1798 29.6822 11.4385 29.9409C11.6971 30.1995 12.048 30.3449 12.4138 30.3449ZM13.7931 19.3104H16.5517V27.5862H13.7931V19.3104ZM26.2069 30.3449H31.7241C32.09 30.3449 32.4408 30.1995 32.6995 29.9409C32.9581 29.6822 33.1035 29.3314 33.1035 28.9656V17.9311C33.1035 17.5653 32.9581 17.2144 32.6995 16.9557C32.4408 16.6971 32.09 16.5518 31.7241 16.5518H26.2069C25.8411 16.5518 25.4902 16.6971 25.2316 16.9557C24.9729 17.2144 24.8276 17.5653 24.8276 17.9311V28.9656C24.8276 29.3314 24.9729 29.6822 25.2316 29.9409C25.4902 30.1995 25.8411 30.3449 26.2069 30.3449ZM27.5862 19.3104H30.3448V27.5862H27.5862V19.3104ZM12.4138 46.8966H17.931C18.2969 46.8966 18.6477 46.7513 18.9064 46.4926C19.165 46.2339 19.3103 45.8831 19.3103 45.5173V34.4828C19.3103 34.117 19.165 33.7661 18.9064 33.5075C18.6477 33.2488 18.2969 33.1035 17.931 33.1035H12.4138C12.048 33.1035 11.6971 33.2488 11.4385 33.5075C11.1798 33.7661 11.0345 34.117 11.0345 34.4828V45.5173C11.0345 45.8831 11.1798 46.2339 11.4385 46.4926C11.6971 46.7513 12.048 46.8966 12.4138 46.8966ZM13.7931 35.8621H16.5517V44.138H13.7931V35.8621ZM26.2069 46.8966H31.7241C32.09 46.8966 32.4408 46.7513 32.6995 46.4926C32.9581 46.2339 33.1035 45.8831 33.1035 45.5173V34.4828C33.1035 34.117 32.9581 33.7661 32.6995 33.5075C32.4408 33.2488 32.09 33.1035 31.7241 33.1035H26.2069C25.8411 33.1035 25.4902 33.2488 25.2316 33.5075C24.9729 33.7661 24.8276 34.117 24.8276 34.4828V45.5173C24.8276 45.8831 24.9729 46.2339 25.2316 46.4926C25.4902 46.7513 25.8411 46.8966 26.2069 46.8966ZM27.5862 35.8621H30.3448V44.138H27.5862V35.8621ZM17.931 63.4483C18.2969 63.4483 18.6477 63.303 18.9064 63.0443C19.165 62.7856 19.3103 62.4348 19.3103 62.069V51.0345C19.3103 50.6687 19.165 50.3179 18.9064 50.0592C18.6477 49.8005 18.2969 49.6552 17.931 49.6552H12.4138C12.048 49.6552 11.6971 49.8005 11.4385 50.0592C11.1798 50.3179 11.0345 50.6687 11.0345 51.0345V62.069C11.0345 62.4348 11.1798 62.7856 11.4385 63.0443C11.6971 63.303 12.048 63.4483 12.4138 63.4483H17.931ZM13.7931 52.4138H16.5517V60.6897H13.7931V52.4138ZM26.2069 63.4483H31.7241C32.09 63.4483 32.4408 63.303 32.6995 63.0443C32.9581 62.7856 33.1035 62.4348 33.1035 62.069V51.0345C33.1035 50.6687 32.9581 50.3179 32.6995 50.0592C32.4408 49.8005 32.09 49.6552 31.7241 49.6552H26.2069C25.8411 49.6552 25.4902 49.8005 25.2316 50.0592C24.9729 50.3179 24.8276 50.6687 24.8276 51.0345V62.069C24.8276 62.4348 24.9729 62.7856 25.2316 63.0443C25.4902 63.303 25.8411 63.4483 26.2069 63.4483ZM27.5862 52.4138H30.3448V60.6897H27.5862V52.4138ZM53.7931 44.138H42.7586C42.3928 44.138 42.042 44.2833 41.7833 44.542C41.5246 44.8006 41.3793 45.1515 41.3793 45.5173V51.0345C41.3793 51.4003 41.5246 51.7512 41.7833 52.0098C42.042 52.2685 42.3928 52.4138 42.7586 52.4138H53.7931C54.1589 52.4138 54.5098 52.2685 54.7684 52.0098C55.0271 51.7512 55.1724 51.4003 55.1724 51.0345V45.5173C55.1724 45.1515 55.0271 44.8006 54.7684 44.542C54.5098 44.2833 54.1589 44.138 53.7931 44.138ZM52.4138 49.6552H44.1379V46.8966H52.4138V49.6552ZM70.3448 44.138H59.3103C58.9445 44.138 58.5937 44.2833 58.335 44.542C58.0764 44.8006 57.931 45.1515 57.931 45.5173V51.0345C57.931 51.4003 58.0764 51.7512 58.335 52.0098C58.5937 52.2685 58.9445 52.4138 59.3103 52.4138H70.3448C70.7106 52.4138 71.0615 52.2685 71.3202 52.0098C71.5788 51.7512 71.7241 51.4003 71.7241 51.0345V45.5173C71.7241 45.1515 71.5788 44.8006 71.3202 44.542C71.0615 44.2833 70.7106 44.138 70.3448 44.138ZM68.9655 49.6552H60.6897V46.8966H68.9655V49.6552ZM53.7931 55.1724H42.7586C42.3928 55.1724 42.042 55.3178 41.7833 55.5764C41.5246 55.8351 41.3793 56.1859 41.3793 56.5518V62.069C41.3793 62.4348 41.5246 62.7856 41.7833 63.0443C42.042 63.303 42.3928 63.4483 42.7586 63.4483H53.7931C54.1589 63.4483 54.5098 63.303 54.7684 63.0443C55.0271 62.7856 55.1724 62.4348 55.1724 62.069V56.5518C55.1724 56.1859 55.0271 55.8351 54.7684 55.5764C54.5098 55.3178 54.1589 55.1724 53.7931 55.1724ZM52.4138 60.6897H44.1379V57.9311H52.4138V60.6897ZM70.3448 55.1724H59.3103C58.9445 55.1724 58.5937 55.3178 58.335 55.5764C58.0764 55.8351 57.931 56.1859 57.931 56.5518V62.069C57.931 62.4348 58.0764 62.7856 58.335 63.0443C58.5937 63.303 58.9445 63.4483 59.3103 63.4483H70.3448C70.7106 63.4483 71.0615 63.303 71.3202 63.0443C71.5788 62.7856 71.7241 62.4348 71.7241 62.069V56.5518C71.7241 56.1859 71.5788 55.8351 71.3202 55.5764C71.0615 55.3178 70.7106 55.1724 70.3448 55.1724ZM68.9655 60.6897H60.6897V57.9311H68.9655V60.6897Z"/>
</mask>
<path d="M12.4138 30.3449H17.931C18.2969 30.3449 18.6477 30.1995 18.9064 29.9409C19.165 29.6822 19.3103 29.3314 19.3103 28.9656V17.9311C19.3103 17.5653 19.165 17.2144 18.9064 16.9557C18.6477 16.6971 18.2969 16.5518 17.931 16.5518H12.4138C12.048 16.5518 11.6971 16.6971 11.4385 16.9557C11.1798 17.2144 11.0345 17.5653 11.0345 17.9311V28.9656C11.0345 29.3314 11.1798 29.6822 11.4385 29.9409C11.6971 30.1995 12.048 30.3449 12.4138 30.3449ZM13.7931 19.3104H16.5517V27.5862H13.7931V19.3104ZM26.2069 30.3449H31.7241C32.09 30.3449 32.4408 30.1995 32.6995 29.9409C32.9581 29.6822 33.1035 29.3314 33.1035 28.9656V17.9311C33.1035 17.5653 32.9581 17.2144 32.6995 16.9557C32.4408 16.6971 32.09 16.5518 31.7241 16.5518H26.2069C25.8411 16.5518 25.4902 16.6971 25.2316 16.9557C24.9729 17.2144 24.8276 17.5653 24.8276 17.9311V28.9656C24.8276 29.3314 24.9729 29.6822 25.2316 29.9409C25.4902 30.1995 25.8411 30.3449 26.2069 30.3449ZM27.5862 19.3104H30.3448V27.5862H27.5862V19.3104ZM12.4138 46.8966H17.931C18.2969 46.8966 18.6477 46.7513 18.9064 46.4926C19.165 46.2339 19.3103 45.8831 19.3103 45.5173V34.4828C19.3103 34.117 19.165 33.7661 18.9064 33.5075C18.6477 33.2488 18.2969 33.1035 17.931 33.1035H12.4138C12.048 33.1035 11.6971 33.2488 11.4385 33.5075C11.1798 33.7661 11.0345 34.117 11.0345 34.4828V45.5173C11.0345 45.8831 11.1798 46.2339 11.4385 46.4926C11.6971 46.7513 12.048 46.8966 12.4138 46.8966ZM13.7931 35.8621H16.5517V44.138H13.7931V35.8621ZM26.2069 46.8966H31.7241C32.09 46.8966 32.4408 46.7513 32.6995 46.4926C32.9581 46.2339 33.1035 45.8831 33.1035 45.5173V34.4828C33.1035 34.117 32.9581 33.7661 32.6995 33.5075C32.4408 33.2488 32.09 33.1035 31.7241 33.1035H26.2069C25.8411 33.1035 25.4902 33.2488 25.2316 33.5075C24.9729 33.7661 24.8276 34.117 24.8276 34.4828V45.5173C24.8276 45.8831 24.9729 46.2339 25.2316 46.4926C25.4902 46.7513 25.8411 46.8966 26.2069 46.8966ZM27.5862 35.8621H30.3448V44.138H27.5862V35.8621ZM17.931 63.4483C18.2969 63.4483 18.6477 63.303 18.9064 63.0443C19.165 62.7856 19.3103 62.4348 19.3103 62.069V51.0345C19.3103 50.6687 19.165 50.3179 18.9064 50.0592C18.6477 49.8005 18.2969 49.6552 17.931 49.6552H12.4138C12.048 49.6552 11.6971 49.8005 11.4385 50.0592C11.1798 50.3179 11.0345 50.6687 11.0345 51.0345V62.069C11.0345 62.4348 11.1798 62.7856 11.4385 63.0443C11.6971 63.303 12.048 63.4483 12.4138 63.4483H17.931ZM13.7931 52.4138H16.5517V60.6897H13.7931V52.4138ZM26.2069 63.4483H31.7241C32.09 63.4483 32.4408 63.303 32.6995 63.0443C32.9581 62.7856 33.1035 62.4348 33.1035 62.069V51.0345C33.1035 50.6687 32.9581 50.3179 32.6995 50.0592C32.4408 49.8005 32.09 49.6552 31.7241 49.6552H26.2069C25.8411 49.6552 25.4902 49.8005 25.2316 50.0592C24.9729 50.3179 24.8276 50.6687 24.8276 51.0345V62.069C24.8276 62.4348 24.9729 62.7856 25.2316 63.0443C25.4902 63.303 25.8411 63.4483 26.2069 63.4483ZM27.5862 52.4138H30.3448V60.6897H27.5862V52.4138ZM53.7931 44.138H42.7586C42.3928 44.138 42.042 44.2833 41.7833 44.542C41.5246 44.8006 41.3793 45.1515 41.3793 45.5173V51.0345C41.3793 51.4003 41.5246 51.7512 41.7833 52.0098C42.042 52.2685 42.3928 52.4138 42.7586 52.4138H53.7931C54.1589 52.4138 54.5098 52.2685 54.7684 52.0098C55.0271 51.7512 55.1724 51.4003 55.1724 51.0345V45.5173C55.1724 45.1515 55.0271 44.8006 54.7684 44.542C54.5098 44.2833 54.1589 44.138 53.7931 44.138ZM52.4138 49.6552H44.1379V46.8966H52.4138V49.6552ZM70.3448 44.138H59.3103C58.9445 44.138 58.5937 44.2833 58.335 44.542C58.0764 44.8006 57.931 45.1515 57.931 45.5173V51.0345C57.931 51.4003 58.0764 51.7512 58.335 52.0098C58.5937 52.2685 58.9445 52.4138 59.3103 52.4138H70.3448C70.7106 52.4138 71.0615 52.2685 71.3202 52.0098C71.5788 51.7512 71.7241 51.4003 71.7241 51.0345V45.5173C71.7241 45.1515 71.5788 44.8006 71.3202 44.542C71.0615 44.2833 70.7106 44.138 70.3448 44.138ZM68.9655 49.6552H60.6897V46.8966H68.9655V49.6552ZM53.7931 55.1724H42.7586C42.3928 55.1724 42.042 55.3178 41.7833 55.5764C41.5246 55.8351 41.3793 56.1859 41.3793 56.5518V62.069C41.3793 62.4348 41.5246 62.7856 41.7833 63.0443C42.042 63.303 42.3928 63.4483 42.7586 63.4483H53.7931C54.1589 63.4483 54.5098 63.303 54.7684 63.0443C55.0271 62.7856 55.1724 62.4348 55.1724 62.069V56.5518C55.1724 56.1859 55.0271 55.8351 54.7684 55.5764C54.5098 55.3178 54.1589 55.1724 53.7931 55.1724ZM52.4138 60.6897H44.1379V57.9311H52.4138V60.6897ZM70.3448 55.1724H59.3103C58.9445 55.1724 58.5937 55.3178 58.335 55.5764C58.0764 55.8351 57.931 56.1859 57.931 56.5518V62.069C57.931 62.4348 58.0764 62.7856 58.335 63.0443C58.5937 63.303 58.9445 63.4483 59.3103 63.4483H70.3448C70.7106 63.4483 71.0615 63.303 71.3202 63.0443C71.5788 62.7856 71.7241 62.4348 71.7241 62.069V56.5518C71.7241 56.1859 71.5788 55.8351 71.3202 55.5764C71.0615 55.3178 70.7106 55.1724 70.3448 55.1724ZM68.9655 60.6897H60.6897V57.9311H68.9655V60.6897Z" fill="#5C6368" stroke="white" stroke-width="1.4" mask="url(#path-1-inside-1_2184_368)"/>
<path d="M16.5518 0.349609H27.5859C27.8589 0.349609 28.1214 0.458334 28.3145 0.651367C28.5073 0.84429 28.6151 1.10613 28.6152 1.37891V5.86719H33.1035C33.3765 5.86721 33.638 5.97593 33.8311 6.16895C34.0241 6.36196 34.1328 6.62352 34.1328 6.89648V11.3848H38.6211C38.8939 11.3849 39.1557 11.4927 39.3486 11.6855C39.5417 11.8786 39.6504 12.1411 39.6504 12.4141V38.9707H74.4824C74.7554 38.9707 75.0179 39.0794 75.2109 39.2725C75.4038 39.4655 75.5117 39.7272 75.5117 40V77.5918H78.6211C78.8939 77.5919 79.1557 77.6997 79.3486 77.8926C79.5417 78.0856 79.6504 78.3481 79.6504 78.6211C79.6503 78.8939 79.5416 79.1557 79.3486 79.3486C79.1557 79.5416 78.8939 79.6503 78.6211 79.6504H1.37891C1.10606 79.6503 0.844305 79.5416 0.651367 79.3486C0.45843 79.1557 0.349716 78.8939 0.349609 78.6211C0.349609 78.3481 0.458334 78.0856 0.651367 77.8926C0.844296 77.6997 1.1061 77.5919 1.37891 77.5918H4.48828V12.4141C4.48828 12.1411 4.59603 11.8786 4.78906 11.6855C4.98209 11.4925 5.2446 11.3848 5.51758 11.3848H10.0049V6.89648C10.0049 6.62357 10.1137 6.36195 10.3066 6.16895C10.4996 5.97598 10.7613 5.86727 11.0342 5.86719H15.5225V1.37891C15.5226 1.10606 15.6313 0.844305 15.8242 0.651367C16.0172 0.458471 16.2789 0.349609 16.5518 0.349609ZM6.54688 77.5918H15.5225V67.5859C15.5225 67.313 15.6312 67.0514 15.8242 66.8584C16.0172 66.6655 16.2788 66.5566 16.5518 66.5566H27.5859C27.8589 66.5566 28.1214 66.6654 28.3145 66.8584C28.5073 67.0513 28.6152 67.3131 28.6152 67.5859V77.5918H37.5918V13.4434H6.54688V77.5918ZM17.5811 77.5918H21.04V68.6152H17.5811V77.5918ZM23.0986 77.5918H26.5566V68.6152H23.0986V77.5918ZM39.6504 77.5918H51.5586V67.5859C51.5587 67.3131 51.6665 67.0513 51.8594 66.8584C52.0524 66.6654 52.3149 66.5566 52.5879 66.5566H60.6895C60.9624 66.5566 61.2249 66.6654 61.418 66.8584C61.6108 67.0513 61.7187 67.3132 61.7188 67.5859V77.5918H73.4531V41.0293H39.6504V77.5918ZM53.6172 77.5918H59.6602V68.6152H53.6172V77.5918ZM12.0635 11.3848H32.0742V7.92578H12.0635V11.3848ZM17.5811 5.86719H26.5566V2.4082H17.5811V5.86719Z" fill="#5C6368" stroke="white" stroke-width="0.7"/>
</g>
<defs>
<clipPath id="clip0_2184_368">
<rect width="80" height="80" fill="white"/>
</clipPath>
</defs>
</svg>
