<svg width="80" height="80" viewBox="0 0 80 80" fill="none" xmlns="http://www.w3.org/2000/svg">
<mask id="path-1-inside-1_13434_4135" fill="white">
<path d="M21.9203 53.3298C19.8859 53.3298 18.2297 54.986 18.2297 57.022C18.2297 59.0548 19.8859 60.7095 21.9203 60.7095C23.9547 60.7095 25.6109 59.0548 25.6109 57.022C25.6109 54.986 23.9547 53.3298 21.9203 53.3298ZM21.9203 58.2095C21.264 58.2095 20.7297 57.6767 20.7297 57.022C20.7297 56.3642 21.264 55.8298 21.9203 55.8298C22.5765 55.8298 23.1109 56.3642 23.1109 57.022C23.1109 57.6767 22.5765 58.2095 21.9203 58.2095ZM28.1781 27.236H36.2297C36.9203 27.236 37.4797 26.6767 37.4797 25.986V17.9438C37.4797 17.2532 36.9203 16.6938 36.2297 16.6938H28.1781C27.4875 16.6938 26.9281 17.2532 26.9281 17.9438V25.986C26.9281 26.6767 27.489 27.236 28.1781 27.236ZM29.4281 19.1954H34.9797V24.7376H29.4281V19.1954ZM41.014 27.236H49.0625C49.7531 27.236 50.3125 26.6767 50.3125 25.986V17.9438C50.3125 17.2532 49.7531 16.6938 49.0625 16.6938H41.0156C40.325 16.6938 39.7656 17.2532 39.7656 17.9438V25.986C39.764 26.6767 40.3234 27.236 41.014 27.236ZM42.264 19.1954H47.8125V24.7376H42.2656V19.1954H42.264ZM28.1781 40.0517H36.2297C36.9203 40.0517 37.4797 39.4923 37.4797 38.8017V30.7642C37.4797 30.0735 36.9203 29.5142 36.2297 29.5142H28.1781C27.4875 29.5142 26.9281 30.0735 26.9281 30.7642V38.8017C26.9281 39.4923 27.489 40.0517 28.1781 40.0517ZM29.4281 32.0142H34.9797V37.5517H29.4281V32.0142ZM41.014 40.0517H49.0625C49.7531 40.0517 50.3125 39.4923 50.3125 38.8017V30.7642C50.3125 30.0735 49.7531 29.5142 49.0625 29.5142H41.0156C40.325 29.5142 39.7656 30.0735 39.7656 30.7642V38.8017C39.764 39.4923 40.3234 40.0517 41.014 40.0517ZM42.264 32.0142H47.8125V37.5517H42.2656V32.0142H42.264ZM69.2812 42.3282H61.2297C60.539 42.3282 59.9797 42.8876 59.9797 43.5782V51.6204C59.9797 52.311 60.539 52.8704 61.2297 52.8704H69.2812C69.9719 52.8704 70.5312 52.311 70.5312 51.6204V43.5782C70.5312 42.8876 69.9703 42.3282 69.2812 42.3282ZM68.0312 50.3704H62.4797V44.8282H68.0312V50.3704ZM78.75 75.8767H76.439V39.9345C76.439 39.4642 76.175 39.0345 75.7562 38.8204L56.5703 29.0563V10.5845C56.5703 9.89385 56.0109 9.33447 55.3203 9.33447H52.9734V2.87354C52.9734 2.18291 52.414 1.62354 51.7234 1.62354H25.5172C24.8265 1.62354 24.2672 2.18291 24.2672 2.87354V9.33291H21.9203C21.2297 9.33291 20.6703 9.89229 20.6703 10.5829V24.536H7.68592C6.9953 24.536 6.43592 25.0954 6.43592 25.786V53.7407L0.514045 58.0579C0.381157 58.1545 0.268699 58.2764 0.183153 58.4167C0.0976071 58.5569 0.0406647 58.7127 0.0156078 58.8751C-0.0359547 59.2032 0.0468578 59.5376 0.24217 59.8063L2.75311 63.2345C2.99842 63.5688 3.37811 63.7454 3.76248 63.7454C4.01873 63.7454 4.27655 63.6673 4.49842 63.5048L6.43592 62.0923V75.8735H4.12498C3.43436 75.8735 2.87498 76.4329 2.87498 77.1235C2.87498 77.8142 3.43436 78.3735 4.12498 78.3735H78.75C79.4406 78.3735 80 77.8142 80 77.1235C80 76.4329 79.4406 75.8767 78.75 75.8767ZM62.4781 60.1985L62.764 59.8079C62.9594 59.5407 63.0406 59.2048 62.9906 58.8782C62.9406 58.5517 62.7609 58.2563 62.4922 58.061L62.4781 58.0517V57.6501H68.0297V63.1876H62.4781V60.1985ZM60.0078 59.3423L58.9765 60.7517L41.8265 48.2438C41.6078 48.0845 41.3484 48.0032 41.0906 48.0032C40.8328 48.0032 40.5734 48.0829 40.3547 48.2438L35.1125 52.0673L33.6281 50.9829L41.0906 45.5438L60.0078 59.3423ZM26.7672 4.12353H50.4734V9.33291H26.7672V4.12353ZM23.1703 11.8345H54.0703V51.9188L41.8265 42.9892C41.6126 42.833 41.3546 42.7489 41.0898 42.7489C40.825 42.7489 40.567 42.833 40.3531 42.9892L31.5031 49.4392L23.1703 43.3642V11.8345ZM20.6703 37.5517H14.4578V32.0142H20.6703V37.5517ZM8.93592 27.0376H20.6703V29.5142H13.2078C12.5172 29.5142 11.9578 30.0735 11.9578 30.7642V38.8017C11.9578 39.4923 12.5172 40.0517 13.2078 40.0517H20.6703V43.3642L8.93592 51.9204V27.0376ZM4.03279 60.7532L2.99842 59.3423L21.9203 45.547L40.8422 59.3438L39.8109 60.7532L22.6562 48.2438C22.4423 48.0877 22.1843 48.0036 21.9195 48.0036C21.6547 48.0036 21.3967 48.0877 21.1828 48.2438L4.03279 60.7532ZM18.2359 75.8767V67.2376H25.6047V75.8767H18.2359ZM28.1047 75.8767V65.9876C28.1047 65.297 27.5453 64.7376 26.8547 64.7376H16.9859C16.2953 64.7376 15.7359 65.297 15.7359 65.9876V75.8767H8.93592V60.272L21.9203 50.8017L34.9047 60.2688V75.8767H28.1047ZM37.4062 75.8767V62.0923L39.3484 63.5079C39.9062 63.9142 40.6875 63.7923 41.0937 63.236L43.6 59.8079C43.7953 59.5395 43.8768 59.2048 43.8265 58.8767C43.775 58.549 43.5958 58.2552 43.3281 58.0595L37.2328 53.6157L41.0906 50.8017L54.0719 60.2688V75.8767H37.4062ZM56.5703 75.8767V62.0923L58.5125 63.5079C58.7258 63.6646 58.9837 63.7489 59.2484 63.7485C59.5078 63.7485 59.764 63.6657 59.9797 63.511V64.436C59.9797 65.1267 60.539 65.686 61.2297 65.686H69.2812C69.9719 65.686 70.5312 65.1267 70.5312 64.436V56.3985C70.5312 55.7079 69.9719 55.1485 69.2812 55.1485H61.2297C60.5953 55.1485 60.0719 55.622 59.9922 56.236L56.5719 53.7423V31.861L73.9406 40.7001V75.8767H56.5703Z"/>
</mask>
<path d="M21.9203 53.3298C19.8859 53.3298 18.2297 54.986 18.2297 57.022C18.2297 59.0548 19.8859 60.7095 21.9203 60.7095C23.9547 60.7095 25.6109 59.0548 25.6109 57.022C25.6109 54.986 23.9547 53.3298 21.9203 53.3298ZM21.9203 58.2095C21.264 58.2095 20.7297 57.6767 20.7297 57.022C20.7297 56.3642 21.264 55.8298 21.9203 55.8298C22.5765 55.8298 23.1109 56.3642 23.1109 57.022C23.1109 57.6767 22.5765 58.2095 21.9203 58.2095ZM28.1781 27.236H36.2297C36.9203 27.236 37.4797 26.6767 37.4797 25.986V17.9438C37.4797 17.2532 36.9203 16.6938 36.2297 16.6938H28.1781C27.4875 16.6938 26.9281 17.2532 26.9281 17.9438V25.986C26.9281 26.6767 27.489 27.236 28.1781 27.236ZM29.4281 19.1954H34.9797V24.7376H29.4281V19.1954ZM41.014 27.236H49.0625C49.7531 27.236 50.3125 26.6767 50.3125 25.986V17.9438C50.3125 17.2532 49.7531 16.6938 49.0625 16.6938H41.0156C40.325 16.6938 39.7656 17.2532 39.7656 17.9438V25.986C39.764 26.6767 40.3234 27.236 41.014 27.236ZM42.264 19.1954H47.8125V24.7376H42.2656V19.1954H42.264ZM28.1781 40.0517H36.2297C36.9203 40.0517 37.4797 39.4923 37.4797 38.8017V30.7642C37.4797 30.0735 36.9203 29.5142 36.2297 29.5142H28.1781C27.4875 29.5142 26.9281 30.0735 26.9281 30.7642V38.8017C26.9281 39.4923 27.489 40.0517 28.1781 40.0517ZM29.4281 32.0142H34.9797V37.5517H29.4281V32.0142ZM41.014 40.0517H49.0625C49.7531 40.0517 50.3125 39.4923 50.3125 38.8017V30.7642C50.3125 30.0735 49.7531 29.5142 49.0625 29.5142H41.0156C40.325 29.5142 39.7656 30.0735 39.7656 30.7642V38.8017C39.764 39.4923 40.3234 40.0517 41.014 40.0517ZM42.264 32.0142H47.8125V37.5517H42.2656V32.0142H42.264ZM69.2812 42.3282H61.2297C60.539 42.3282 59.9797 42.8876 59.9797 43.5782V51.6204C59.9797 52.311 60.539 52.8704 61.2297 52.8704H69.2812C69.9719 52.8704 70.5312 52.311 70.5312 51.6204V43.5782C70.5312 42.8876 69.9703 42.3282 69.2812 42.3282ZM68.0312 50.3704H62.4797V44.8282H68.0312V50.3704ZM78.75 75.8767H76.439V39.9345C76.439 39.4642 76.175 39.0345 75.7562 38.8204L56.5703 29.0563V10.5845C56.5703 9.89385 56.0109 9.33447 55.3203 9.33447H52.9734V2.87354C52.9734 2.18291 52.414 1.62354 51.7234 1.62354H25.5172C24.8265 1.62354 24.2672 2.18291 24.2672 2.87354V9.33291H21.9203C21.2297 9.33291 20.6703 9.89229 20.6703 10.5829V24.536H7.68592C6.9953 24.536 6.43592 25.0954 6.43592 25.786V53.7407L0.514045 58.0579C0.381157 58.1545 0.268699 58.2764 0.183153 58.4167C0.0976071 58.5569 0.0406647 58.7127 0.0156078 58.8751C-0.0359547 59.2032 0.0468578 59.5376 0.24217 59.8063L2.75311 63.2345C2.99842 63.5688 3.37811 63.7454 3.76248 63.7454C4.01873 63.7454 4.27655 63.6673 4.49842 63.5048L6.43592 62.0923V75.8735H4.12498C3.43436 75.8735 2.87498 76.4329 2.87498 77.1235C2.87498 77.8142 3.43436 78.3735 4.12498 78.3735H78.75C79.4406 78.3735 80 77.8142 80 77.1235C80 76.4329 79.4406 75.8767 78.75 75.8767ZM62.4781 60.1985L62.764 59.8079C62.9594 59.5407 63.0406 59.2048 62.9906 58.8782C62.9406 58.5517 62.7609 58.2563 62.4922 58.061L62.4781 58.0517V57.6501H68.0297V63.1876H62.4781V60.1985ZM60.0078 59.3423L58.9765 60.7517L41.8265 48.2438C41.6078 48.0845 41.3484 48.0032 41.0906 48.0032C40.8328 48.0032 40.5734 48.0829 40.3547 48.2438L35.1125 52.0673L33.6281 50.9829L41.0906 45.5438L60.0078 59.3423ZM26.7672 4.12353H50.4734V9.33291H26.7672V4.12353ZM23.1703 11.8345H54.0703V51.9188L41.8265 42.9892C41.6126 42.833 41.3546 42.7489 41.0898 42.7489C40.825 42.7489 40.567 42.833 40.3531 42.9892L31.5031 49.4392L23.1703 43.3642V11.8345ZM20.6703 37.5517H14.4578V32.0142H20.6703V37.5517ZM8.93592 27.0376H20.6703V29.5142H13.2078C12.5172 29.5142 11.9578 30.0735 11.9578 30.7642V38.8017C11.9578 39.4923 12.5172 40.0517 13.2078 40.0517H20.6703V43.3642L8.93592 51.9204V27.0376ZM4.03279 60.7532L2.99842 59.3423L21.9203 45.547L40.8422 59.3438L39.8109 60.7532L22.6562 48.2438C22.4423 48.0877 22.1843 48.0036 21.9195 48.0036C21.6547 48.0036 21.3967 48.0877 21.1828 48.2438L4.03279 60.7532ZM18.2359 75.8767V67.2376H25.6047V75.8767H18.2359ZM28.1047 75.8767V65.9876C28.1047 65.297 27.5453 64.7376 26.8547 64.7376H16.9859C16.2953 64.7376 15.7359 65.297 15.7359 65.9876V75.8767H8.93592V60.272L21.9203 50.8017L34.9047 60.2688V75.8767H28.1047ZM37.4062 75.8767V62.0923L39.3484 63.5079C39.9062 63.9142 40.6875 63.7923 41.0937 63.236L43.6 59.8079C43.7953 59.5395 43.8768 59.2048 43.8265 58.8767C43.775 58.549 43.5958 58.2552 43.3281 58.0595L37.2328 53.6157L41.0906 50.8017L54.0719 60.2688V75.8767H37.4062ZM56.5703 75.8767V62.0923L58.5125 63.5079C58.7258 63.6646 58.9837 63.7489 59.2484 63.7485C59.5078 63.7485 59.764 63.6657 59.9797 63.511V64.436C59.9797 65.1267 60.539 65.686 61.2297 65.686H69.2812C69.9719 65.686 70.5312 65.1267 70.5312 64.436V56.3985C70.5312 55.7079 69.9719 55.1485 69.2812 55.1485H61.2297C60.5953 55.1485 60.0719 55.622 59.9922 56.236L56.5719 53.7423V31.861L73.9406 40.7001V75.8767H56.5703Z" fill="#5C6368" stroke="white" stroke-width="1.4" mask="url(#path-1-inside-1_13434_4135)"/>
</svg>
