<svg width="80" height="80" viewBox="0 0 80 80" fill="none" xmlns="http://www.w3.org/2000/svg">
<mask id="path-1-inside-1_13434_4127" fill="white">
<path d="M33.75 18.75H38.75C39.0815 18.75 39.3995 18.6183 39.6339 18.3839C39.8683 18.1495 40 17.8315 40 17.5V10C40 9.66848 39.8683 9.35054 39.6339 9.11612C39.3995 8.8817 39.0815 8.75 38.75 8.75H33.75C33.4185 8.75 33.1005 8.8817 32.8661 9.11612C32.6317 9.35054 32.5 9.66848 32.5 10V17.5C32.5 17.8315 32.6317 18.1495 32.8661 18.3839C33.1005 18.6183 33.4185 18.75 33.75 18.75ZM35 11.25H37.5V16.25H35V11.25ZM43.75 18.75H48.75C49.0815 18.75 49.3995 18.6183 49.6339 18.3839C49.8683 18.1495 50 17.8315 50 17.5V10C50 9.66848 49.8683 9.35054 49.6339 9.11612C49.3995 8.8817 49.0815 8.75 48.75 8.75H43.75C43.4185 8.75 43.1005 8.8817 42.8661 9.11612C42.6317 9.35054 42.5 9.66848 42.5 10V17.5C42.5 17.8315 42.6317 18.1495 42.8661 18.3839C43.1005 18.6183 43.4185 18.75 43.75 18.75ZM45 11.25H47.5V16.25H45V11.25ZM53.75 18.75H58.75C59.0815 18.75 59.3995 18.6183 59.6339 18.3839C59.8683 18.1495 60 17.8315 60 17.5V10C60 9.66848 59.8683 9.35054 59.6339 9.11612C59.3995 8.8817 59.0815 8.75 58.75 8.75H53.75C53.4185 8.75 53.1005 8.8817 52.8661 9.11612C52.6317 9.35054 52.5 9.66848 52.5 10V17.5C52.5 17.8315 52.6317 18.1495 52.8661 18.3839C53.1005 18.6183 53.4185 18.75 53.75 18.75ZM55 11.25H57.5V16.25H55V11.25ZM33.75 31.25H38.75C39.0815 31.25 39.3995 31.1183 39.6339 30.8839C39.8683 30.6495 40 30.3315 40 30V22.5C40 22.1685 39.8683 21.8505 39.6339 21.6161C39.3995 21.3817 39.0815 21.25 38.75 21.25H33.75C33.4185 21.25 33.1005 21.3817 32.8661 21.6161C32.6317 21.8505 32.5 22.1685 32.5 22.5V30C32.5 30.3315 32.6317 30.6495 32.8661 30.8839C33.1005 31.1183 33.4185 31.25 33.75 31.25ZM35 23.75H37.5V28.75H35V23.75ZM43.75 31.25H48.75C49.0815 31.25 49.3995 31.1183 49.6339 30.8839C49.8683 30.6495 50 30.3315 50 30V22.5C50 22.1685 49.8683 21.8505 49.6339 21.6161C49.3995 21.3817 49.0815 21.25 48.75 21.25H43.75C43.4185 21.25 43.1005 21.3817 42.8661 21.6161C42.6317 21.8505 42.5 22.1685 42.5 22.5V30C42.5 30.3315 42.6317 30.6495 42.8661 30.8839C43.1005 31.1183 43.4185 31.25 43.75 31.25ZM45 23.75H47.5V28.75H45V23.75ZM53.75 31.25H58.75C59.0815 31.25 59.3995 31.1183 59.6339 30.8839C59.8683 30.6495 60 30.3315 60 30V22.5C60 22.1685 59.8683 21.8505 59.6339 21.6161C59.3995 21.3817 59.0815 21.25 58.75 21.25H53.75C53.4185 21.25 53.1005 21.3817 52.8661 21.6161C52.6317 21.8505 52.5 22.1685 52.5 22.5V30C52.5 30.3315 52.6317 30.6495 52.8661 30.8839C53.1005 31.1183 53.4185 31.25 53.75 31.25ZM55 23.75H57.5V28.75H55V23.75ZM23.75 18.75H28.75C29.0815 18.75 29.3995 18.6183 29.6339 18.3839C29.8683 18.1495 30 17.8315 30 17.5V10C30 9.66848 29.8683 9.35054 29.6339 9.11612C29.3995 8.8817 29.0815 8.75 28.75 8.75H23.75C23.4185 8.75 23.1005 8.8817 22.8661 9.11612C22.6317 9.35054 22.5 9.66848 22.5 10V17.5C22.5 17.8315 22.6317 18.1495 22.8661 18.3839C23.1005 18.6183 23.4185 18.75 23.75 18.75ZM25 11.25H27.5V16.25H25V11.25ZM23.75 31.25H28.75C29.0815 31.25 29.3995 31.1183 29.6339 30.8839C29.8683 30.6495 30 30.3315 30 30V22.5C30 22.1685 29.8683 21.8505 29.6339 21.6161C29.3995 21.3817 29.0815 21.25 28.75 21.25H23.75C23.4185 21.25 23.1005 21.3817 22.8661 21.6161C22.6317 21.8505 22.5 22.1685 22.5 22.5V30C22.5 30.3315 22.6317 30.6495 22.8661 30.8839C23.1005 31.1183 23.4185 31.25 23.75 31.25ZM25 23.75H27.5V28.75H25V23.75ZM33.75 43.75H38.75C39.0815 43.75 39.3995 43.6183 39.6339 43.3839C39.8683 43.1495 40 42.8315 40 42.5V35C40 34.6685 39.8683 34.3505 39.6339 34.1161C39.3995 33.8817 39.0815 33.75 38.75 33.75H33.75C33.4185 33.75 33.1005 33.8817 32.8661 34.1161C32.6317 34.3505 32.5 34.6685 32.5 35V42.5C32.5 42.8315 32.6317 43.1495 32.8661 43.3839C33.1005 43.6183 33.4185 43.75 33.75 43.75ZM35 36.25H37.5V41.25H35V36.25ZM23.75 43.75H28.75C29.0815 43.75 29.3995 43.6183 29.6339 43.3839C29.8683 43.1495 30 42.8315 30 42.5V35C30 34.6685 29.8683 34.3505 29.6339 34.1161C29.3995 33.8817 29.0815 33.75 28.75 33.75H23.75C23.4185 33.75 23.1005 33.8817 22.8661 34.1161C22.6317 34.3505 22.5 34.6685 22.5 35V42.5C22.5 42.8315 22.6317 43.1495 22.8661 43.3839C23.1005 43.6183 23.4185 43.75 23.75 43.75ZM25 36.25H27.5V41.25H25V36.25ZM43.75 43.75H48.75C49.0815 43.75 49.3995 43.6183 49.6339 43.3839C49.8683 43.1495 50 42.8315 50 42.5V35C50 34.6685 49.8683 34.3505 49.6339 34.1161C49.3995 33.8817 49.0815 33.75 48.75 33.75H43.75C43.4185 33.75 43.1005 33.8817 42.8661 34.1161C42.6317 34.3505 42.5 34.6685 42.5 35V42.5C42.5 42.8315 42.6317 43.1495 42.8661 43.3839C43.1005 43.6183 43.4185 43.75 43.75 43.75ZM45 36.25H47.5V41.25H45V36.25ZM53.75 43.75H58.75C59.0815 43.75 59.3995 43.6183 59.6339 43.3839C59.8683 43.1495 60 42.8315 60 42.5V35C60 34.6685 59.8683 34.3505 59.6339 34.1161C59.3995 33.8817 59.0815 33.75 58.75 33.75H53.75C53.4185 33.75 53.1005 33.8817 52.8661 34.1161C52.6317 34.3505 52.5 34.6685 52.5 35V42.5C52.5 42.8315 52.6317 43.1495 52.8661 43.3839C53.1005 43.6183 53.4185 43.75 53.75 43.75ZM55 36.25H57.5V41.25H55V36.25ZM33.75 56.25H38.75C39.0815 56.25 39.3995 56.1183 39.6339 55.8839C39.8683 55.6495 40 55.3315 40 55V47.5C40 47.1685 39.8683 46.8505 39.6339 46.6161C39.3995 46.3817 39.0815 46.25 38.75 46.25H33.75C33.4185 46.25 33.1005 46.3817 32.8661 46.6161C32.6317 46.8505 32.5 47.1685 32.5 47.5V55C32.5 55.3315 32.6317 55.6495 32.8661 55.8839C33.1005 56.1183 33.4185 56.25 33.75 56.25ZM35 48.75H37.5V53.75H35V48.75ZM23.75 56.25H28.75C29.0815 56.25 29.3995 56.1183 29.6339 55.8839C29.8683 55.6495 30 55.3315 30 55V47.5C30 47.1685 29.8683 46.8505 29.6339 46.6161C29.3995 46.3817 29.0815 46.25 28.75 46.25H23.75C23.4185 46.25 23.1005 46.3817 22.8661 46.6161C22.6317 46.8505 22.5 47.1685 22.5 47.5V55C22.5 55.3315 22.6317 55.6495 22.8661 55.8839C23.1005 56.1183 23.4185 56.25 23.75 56.25ZM25 48.75H27.5V53.75H25V48.75ZM43.75 56.25H48.75C49.0815 56.25 49.3995 56.1183 49.6339 55.8839C49.8683 55.6495 50 55.3315 50 55V47.5C50 47.1685 49.8683 46.8505 49.6339 46.6161C49.3995 46.3817 49.0815 46.25 48.75 46.25H43.75C43.4185 46.25 43.1005 46.3817 42.8661 46.6161C42.6317 46.8505 42.5 47.1685 42.5 47.5V55C42.5 55.3315 42.6317 55.6495 42.8661 55.8839C43.1005 56.1183 43.4185 56.25 43.75 56.25ZM45 48.75H47.5V53.75H45V48.75ZM53.75 56.25H58.75C59.0815 56.25 59.3995 56.1183 59.6339 55.8839C59.8683 55.6495 60 55.3315 60 55V47.5C60 47.1685 59.8683 46.8505 59.6339 46.6161C59.3995 46.3817 59.0815 46.25 58.75 46.25H53.75C53.4185 46.25 53.1005 46.3817 52.8661 46.6161C52.6317 46.8505 52.5 47.1685 52.5 47.5V55C52.5 55.3315 52.6317 55.6495 52.8661 55.8839C53.1005 56.1183 53.4185 56.25 53.75 56.25ZM55 48.75H57.5V53.75H55V48.75Z"/>
</mask>
<path d="M33.75 18.75H38.75C39.0815 18.75 39.3995 18.6183 39.6339 18.3839C39.8683 18.1495 40 17.8315 40 17.5V10C40 9.66848 39.8683 9.35054 39.6339 9.11612C39.3995 8.8817 39.0815 8.75 38.75 8.75H33.75C33.4185 8.75 33.1005 8.8817 32.8661 9.11612C32.6317 9.35054 32.5 9.66848 32.5 10V17.5C32.5 17.8315 32.6317 18.1495 32.8661 18.3839C33.1005 18.6183 33.4185 18.75 33.75 18.75ZM35 11.25H37.5V16.25H35V11.25ZM43.75 18.75H48.75C49.0815 18.75 49.3995 18.6183 49.6339 18.3839C49.8683 18.1495 50 17.8315 50 17.5V10C50 9.66848 49.8683 9.35054 49.6339 9.11612C49.3995 8.8817 49.0815 8.75 48.75 8.75H43.75C43.4185 8.75 43.1005 8.8817 42.8661 9.11612C42.6317 9.35054 42.5 9.66848 42.5 10V17.5C42.5 17.8315 42.6317 18.1495 42.8661 18.3839C43.1005 18.6183 43.4185 18.75 43.75 18.75ZM45 11.25H47.5V16.25H45V11.25ZM53.75 18.75H58.75C59.0815 18.75 59.3995 18.6183 59.6339 18.3839C59.8683 18.1495 60 17.8315 60 17.5V10C60 9.66848 59.8683 9.35054 59.6339 9.11612C59.3995 8.8817 59.0815 8.75 58.75 8.75H53.75C53.4185 8.75 53.1005 8.8817 52.8661 9.11612C52.6317 9.35054 52.5 9.66848 52.5 10V17.5C52.5 17.8315 52.6317 18.1495 52.8661 18.3839C53.1005 18.6183 53.4185 18.75 53.75 18.75ZM55 11.25H57.5V16.25H55V11.25ZM33.75 31.25H38.75C39.0815 31.25 39.3995 31.1183 39.6339 30.8839C39.8683 30.6495 40 30.3315 40 30V22.5C40 22.1685 39.8683 21.8505 39.6339 21.6161C39.3995 21.3817 39.0815 21.25 38.75 21.25H33.75C33.4185 21.25 33.1005 21.3817 32.8661 21.6161C32.6317 21.8505 32.5 22.1685 32.5 22.5V30C32.5 30.3315 32.6317 30.6495 32.8661 30.8839C33.1005 31.1183 33.4185 31.25 33.75 31.25ZM35 23.75H37.5V28.75H35V23.75ZM43.75 31.25H48.75C49.0815 31.25 49.3995 31.1183 49.6339 30.8839C49.8683 30.6495 50 30.3315 50 30V22.5C50 22.1685 49.8683 21.8505 49.6339 21.6161C49.3995 21.3817 49.0815 21.25 48.75 21.25H43.75C43.4185 21.25 43.1005 21.3817 42.8661 21.6161C42.6317 21.8505 42.5 22.1685 42.5 22.5V30C42.5 30.3315 42.6317 30.6495 42.8661 30.8839C43.1005 31.1183 43.4185 31.25 43.75 31.25ZM45 23.75H47.5V28.75H45V23.75ZM53.75 31.25H58.75C59.0815 31.25 59.3995 31.1183 59.6339 30.8839C59.8683 30.6495 60 30.3315 60 30V22.5C60 22.1685 59.8683 21.8505 59.6339 21.6161C59.3995 21.3817 59.0815 21.25 58.75 21.25H53.75C53.4185 21.25 53.1005 21.3817 52.8661 21.6161C52.6317 21.8505 52.5 22.1685 52.5 22.5V30C52.5 30.3315 52.6317 30.6495 52.8661 30.8839C53.1005 31.1183 53.4185 31.25 53.75 31.25ZM55 23.75H57.5V28.75H55V23.75ZM23.75 18.75H28.75C29.0815 18.75 29.3995 18.6183 29.6339 18.3839C29.8683 18.1495 30 17.8315 30 17.5V10C30 9.66848 29.8683 9.35054 29.6339 9.11612C29.3995 8.8817 29.0815 8.75 28.75 8.75H23.75C23.4185 8.75 23.1005 8.8817 22.8661 9.11612C22.6317 9.35054 22.5 9.66848 22.5 10V17.5C22.5 17.8315 22.6317 18.1495 22.8661 18.3839C23.1005 18.6183 23.4185 18.75 23.75 18.75ZM25 11.25H27.5V16.25H25V11.25ZM23.75 31.25H28.75C29.0815 31.25 29.3995 31.1183 29.6339 30.8839C29.8683 30.6495 30 30.3315 30 30V22.5C30 22.1685 29.8683 21.8505 29.6339 21.6161C29.3995 21.3817 29.0815 21.25 28.75 21.25H23.75C23.4185 21.25 23.1005 21.3817 22.8661 21.6161C22.6317 21.8505 22.5 22.1685 22.5 22.5V30C22.5 30.3315 22.6317 30.6495 22.8661 30.8839C23.1005 31.1183 23.4185 31.25 23.75 31.25ZM25 23.75H27.5V28.75H25V23.75ZM33.75 43.75H38.75C39.0815 43.75 39.3995 43.6183 39.6339 43.3839C39.8683 43.1495 40 42.8315 40 42.5V35C40 34.6685 39.8683 34.3505 39.6339 34.1161C39.3995 33.8817 39.0815 33.75 38.75 33.75H33.75C33.4185 33.75 33.1005 33.8817 32.8661 34.1161C32.6317 34.3505 32.5 34.6685 32.5 35V42.5C32.5 42.8315 32.6317 43.1495 32.8661 43.3839C33.1005 43.6183 33.4185 43.75 33.75 43.75ZM35 36.25H37.5V41.25H35V36.25ZM23.75 43.75H28.75C29.0815 43.75 29.3995 43.6183 29.6339 43.3839C29.8683 43.1495 30 42.8315 30 42.5V35C30 34.6685 29.8683 34.3505 29.6339 34.1161C29.3995 33.8817 29.0815 33.75 28.75 33.75H23.75C23.4185 33.75 23.1005 33.8817 22.8661 34.1161C22.6317 34.3505 22.5 34.6685 22.5 35V42.5C22.5 42.8315 22.6317 43.1495 22.8661 43.3839C23.1005 43.6183 23.4185 43.75 23.75 43.75ZM25 36.25H27.5V41.25H25V36.25ZM43.75 43.75H48.75C49.0815 43.75 49.3995 43.6183 49.6339 43.3839C49.8683 43.1495 50 42.8315 50 42.5V35C50 34.6685 49.8683 34.3505 49.6339 34.1161C49.3995 33.8817 49.0815 33.75 48.75 33.75H43.75C43.4185 33.75 43.1005 33.8817 42.8661 34.1161C42.6317 34.3505 42.5 34.6685 42.5 35V42.5C42.5 42.8315 42.6317 43.1495 42.8661 43.3839C43.1005 43.6183 43.4185 43.75 43.75 43.75ZM45 36.25H47.5V41.25H45V36.25ZM53.75 43.75H58.75C59.0815 43.75 59.3995 43.6183 59.6339 43.3839C59.8683 43.1495 60 42.8315 60 42.5V35C60 34.6685 59.8683 34.3505 59.6339 34.1161C59.3995 33.8817 59.0815 33.75 58.75 33.75H53.75C53.4185 33.75 53.1005 33.8817 52.8661 34.1161C52.6317 34.3505 52.5 34.6685 52.5 35V42.5C52.5 42.8315 52.6317 43.1495 52.8661 43.3839C53.1005 43.6183 53.4185 43.75 53.75 43.75ZM55 36.25H57.5V41.25H55V36.25ZM33.75 56.25H38.75C39.0815 56.25 39.3995 56.1183 39.6339 55.8839C39.8683 55.6495 40 55.3315 40 55V47.5C40 47.1685 39.8683 46.8505 39.6339 46.6161C39.3995 46.3817 39.0815 46.25 38.75 46.25H33.75C33.4185 46.25 33.1005 46.3817 32.8661 46.6161C32.6317 46.8505 32.5 47.1685 32.5 47.5V55C32.5 55.3315 32.6317 55.6495 32.8661 55.8839C33.1005 56.1183 33.4185 56.25 33.75 56.25ZM35 48.75H37.5V53.75H35V48.75ZM23.75 56.25H28.75C29.0815 56.25 29.3995 56.1183 29.6339 55.8839C29.8683 55.6495 30 55.3315 30 55V47.5C30 47.1685 29.8683 46.8505 29.6339 46.6161C29.3995 46.3817 29.0815 46.25 28.75 46.25H23.75C23.4185 46.25 23.1005 46.3817 22.8661 46.6161C22.6317 46.8505 22.5 47.1685 22.5 47.5V55C22.5 55.3315 22.6317 55.6495 22.8661 55.8839C23.1005 56.1183 23.4185 56.25 23.75 56.25ZM25 48.75H27.5V53.75H25V48.75ZM43.75 56.25H48.75C49.0815 56.25 49.3995 56.1183 49.6339 55.8839C49.8683 55.6495 50 55.3315 50 55V47.5C50 47.1685 49.8683 46.8505 49.6339 46.6161C49.3995 46.3817 49.0815 46.25 48.75 46.25H43.75C43.4185 46.25 43.1005 46.3817 42.8661 46.6161C42.6317 46.8505 42.5 47.1685 42.5 47.5V55C42.5 55.3315 42.6317 55.6495 42.8661 55.8839C43.1005 56.1183 43.4185 56.25 43.75 56.25ZM45 48.75H47.5V53.75H45V48.75ZM53.75 56.25H58.75C59.0815 56.25 59.3995 56.1183 59.6339 55.8839C59.8683 55.6495 60 55.3315 60 55V47.5C60 47.1685 59.8683 46.8505 59.6339 46.6161C59.3995 46.3817 59.0815 46.25 58.75 46.25H53.75C53.4185 46.25 53.1005 46.3817 52.8661 46.6161C52.6317 46.8505 52.5 47.1685 52.5 47.5V55C52.5 55.3315 52.6317 55.6495 52.8661 55.8839C53.1005 56.1183 53.4185 56.25 53.75 56.25ZM55 48.75H57.5V53.75H55V48.75Z" fill="#5C6368" stroke="white" mask="url(#path-1-inside-1_13434_4127)"/>
<path d="M19.7498 52.7207L19.7762 52.7734C20.2276 53.688 20.4626 54.694 20.4637 55.7139C20.4624 56.3825 20.3592 57.0472 20.157 57.6846L20.0838 57.9141L20.3104 57.9951C21.6417 58.4715 22.7889 59.3573 23.5858 60.5254C24.3826 61.6936 24.7882 63.0846 24.7459 64.498C24.7036 65.9114 24.2155 67.2752 23.3504 68.3936C22.4852 69.512 21.287 70.3277 19.9295 70.7236L19.7498 70.7764V74H32.7498V60C32.7498 59.7348 32.8553 59.4805 33.0428 59.293C33.2303 59.1055 33.4847 59 33.7498 59H48.7498C49.015 59 49.2693 59.1055 49.4568 59.293C49.6444 59.4805 49.7498 59.7348 49.7498 60V74H62.7498V6H19.7498V52.7207ZM34.7498 74H47.7498V61H34.7498V74ZM64.7498 74H72.7498V56H64.7498V74ZM13.7567 51C12.5065 51 11.3067 51.4969 10.4227 52.3809C9.53888 53.2648 9.04279 54.4639 9.04279 55.7139V55.7148C9.04608 56.5634 9.28241 57.3944 9.7254 58.1182V58.1191C9.8114 58.2632 9.8597 58.4271 9.86603 58.5947C9.8723 58.7622 9.83638 58.9291 9.76154 59.0791C9.68664 59.229 9.57493 59.3575 9.43732 59.4531C9.33391 59.525 9.21833 59.5767 9.0965 59.6055L8.97345 59.626C7.7732 59.7474 6.66519 60.3265 5.8797 61.2422C5.09412 62.1582 4.69075 63.3418 4.75372 64.5469C4.81679 65.752 5.34167 66.8868 6.21857 67.7158C7.09552 68.5449 8.25787 69.0047 9.46466 69C10.6662 68.9948 11.8187 68.5209 12.6756 67.6787L12.7498 67.6045V65C12.7498 64.7348 12.8553 64.4805 13.0428 64.293C13.2303 64.1055 13.4847 64 13.7498 64C14.015 64 14.2693 64.1055 14.4568 64.293C14.6444 64.4805 14.7498 64.7348 14.7498 65V67.6045L14.825 67.6787C15.6833 68.5221 16.8375 68.9953 18.0408 68.999H18.0418C19.2491 69.0053 20.4127 68.5472 21.2908 67.7188C22.169 66.8902 22.6948 65.7555 22.7586 64.5498C22.8225 63.344 22.4195 62.1599 21.6336 61.2432C20.8478 60.3265 19.7392 59.7472 18.5379 59.626H18.5389C18.3722 59.6081 18.2127 59.5488 18.075 59.4531C17.9374 59.3575 17.8257 59.229 17.7508 59.0791C17.6759 58.9291 17.64 58.7622 17.6463 58.5947C17.6526 58.428 17.6998 58.2646 17.785 58.1211L17.7859 58.1221C18.2303 57.3976 18.4662 56.5647 18.4695 55.7148V55.7139C18.4695 54.4638 17.9735 53.2648 17.0897 52.3809C16.2058 51.497 15.0067 51.0001 13.7567 51ZM64.7498 54H75.2498V51H64.7498V54ZM17.7498 70.9727L17.5193 70.9541C16.6818 70.8893 15.8644 70.6649 15.1111 70.293L14.7498 70.1152V75C14.7498 75.2652 14.6444 75.5195 14.4568 75.707C14.2693 75.8945 14.015 76 13.7498 76C13.4847 76 13.2303 75.8945 13.0428 75.707C12.8553 75.5195 12.7498 75.2652 12.7498 75V70.1113L12.3875 70.2939C11.48 70.7519 10.4782 70.9928 9.46173 70.999C7.88349 71.0019 6.35471 70.4486 5.14532 69.4346C3.93554 68.4201 3.12334 67.0103 2.85138 65.4551C2.57943 63.8998 2.86523 62.2984 3.659 60.9336C4.45277 59.5687 5.70297 58.5278 7.18927 57.9951L7.41583 57.9141L7.34357 57.6846C7.14133 57.047 7.03721 56.3817 7.03595 55.7129C7.03404 54.5084 7.35713 53.3257 7.97052 52.2891C8.5841 51.2522 9.46621 50.3993 10.5233 49.8213C11.5802 49.2434 12.7735 48.961 13.9774 49.0039C15.1813 49.0468 16.3518 49.4137 17.3651 50.0654L17.7498 50.3135V5C17.7498 4.73483 17.8553 4.4805 18.0428 4.29297C18.2303 4.10547 18.4847 4.00005 18.7498 4H63.7498C64.015 4 64.2693 4.10549 64.4568 4.29297C64.6444 4.4805 64.7498 4.73478 64.7498 5V49H76.2498C76.515 49 76.7693 49.1055 76.9568 49.293C77.1444 49.4805 77.2498 49.7348 77.2498 50V55C77.2498 55.2652 77.1444 55.5195 76.9568 55.707C76.7693 55.8945 76.515 56 76.2498 56H74.7498V75C74.7498 75.2652 74.6444 75.5195 74.4568 75.707C74.2693 75.8945 74.015 76 73.7498 76H18.7498C18.4847 76 18.2303 75.8945 18.0428 75.707C17.8553 75.5195 17.7498 75.2652 17.7498 75V70.9727Z" fill="#5C6368" stroke="white" stroke-width="0.5"/>
</svg>
