<svg width="72" height="67" viewBox="0 0 72 67" fill="none" xmlns="http://www.w3.org/2000/svg">
<path d="M21.9719 46.383L20.1897 43.3278L6.35647 19.353H2.87695L18.45 46.383H21.9719Z" fill="#B9B9B9"/>
<path d="M35.9317 46.383L34.192 43.3278L32.4522 40.3151L30.67 37.3023L28.9303 34.2895L27.1905 31.2343L20.3163 19.353H16.8368L25.4508 34.2895L27.1905 37.3023L28.9303 40.3151L30.67 43.3278L32.4522 46.383H32.4098H32.4522H35.9317Z" fill="#B9B9B9"/>
<path d="M41.151 43.3278L39.4113 40.3151L37.6715 37.3023L35.9317 34.2895L34.192 31.2343L32.4522 28.2216L30.67 25.2088L27.3178 19.353H23.8383L28.9302 28.2216L32.4522 34.2895L34.192 37.3023L35.9317 40.3151L37.6715 43.3278L39.4113 46.383H42.8908H42.9332H42.8908L41.151 43.3278Z" fill="#B9B9B9"/>
<path d="M48.7046 0.0458984H45.1826L32.4526 22.1536L34.1924 25.1664L48.7046 0.0458984Z" fill="#B9B9B9"/>
<path d="M25.4508 46.383H28.9303L27.1905 43.3278L25.4508 40.3151L23.711 37.3023L13.3573 19.353H9.83533L21.9712 40.3151L23.711 43.3278L25.4508 46.383Z" fill="#B9B9B9"/>
<path d="M37.6715 31.1919L55.6632 0.0458984H52.1837L35.9318 28.1791L35.9742 28.2216L37.6715 31.1919Z" fill="#B9B9B9"/>
<path d="M41.1939 37.2599L62.6651 0.0458984H59.1856L39.4541 34.2471V34.2895L41.1939 37.2599Z" fill="#B9B9B9"/>
<path d="M69.6662 0.0458984H66.1442L42.9332 40.2726V40.3151L44.673 43.3278L69.6662 0.0458984Z" fill="#B9B9B9"/>
<path d="M5.08279 58.986C4.74332 59.283 4.27655 59.4952 3.76735 59.4952C2.70652 59.4952 1.81543 58.6465 1.81543 57.5432C1.81543 56.4824 2.70652 55.5913 3.76735 55.5913C4.27655 55.5913 4.74332 55.8035 5.08279 56.1005L6.01632 55.167C5.42226 54.6153 4.65845 54.2759 3.76735 54.2759C1.98516 54.2759 0.5 55.7186 0.5 57.5432C0.5 59.3679 1.94272 60.8106 3.76735 60.8106C4.61602 60.8106 5.42226 60.4711 6.01632 59.9195L5.08279 58.986Z" fill="#B9B9B9"/>
<path d="M14.5878 54.3184C12.8056 54.3184 11.3204 55.7611 11.3204 57.5857C11.3204 59.4103 12.7632 60.8531 14.5878 60.8531C16.37 60.8531 17.8552 59.4103 17.8552 57.5857C17.8552 55.7611 16.4124 54.3184 14.5878 54.3184ZM14.5878 59.5377C13.527 59.5377 12.6359 58.6466 12.6359 57.5857C12.6359 56.5249 13.527 55.6338 14.5878 55.6338C15.6486 55.6338 16.5397 56.5249 16.5397 57.5857C16.5397 58.6466 15.6911 59.5377 14.5878 59.5377Z" fill="#B9B9B9"/>
<path d="M26.8935 59.0709L24.984 54.3184H23.6261V60.8106H24.8991V57.5857L26.2145 60.8106H27.6148L28.9303 57.5857V60.8106H30.2033V54.3184H28.803L26.8935 59.0709Z" fill="#B9B9B9"/>
<path d="M37.7995 54.3184H35.9749V60.8106H37.2903V58.2222H37.8419C38.9027 58.2222 39.7938 57.3311 39.7938 56.2703C39.7514 55.2095 38.8603 54.3184 37.7995 54.3184ZM37.7995 56.9068H37.2903V55.5914H37.7995C38.1389 55.5914 38.436 55.8884 38.436 56.2279C38.436 56.6098 38.1389 56.9068 37.7995 56.9068Z" fill="#B9B9B9"/>
<path d="M46.9644 54.3184L44.6306 60.8106H46.0309L46.7099 58.986H48.7042L49.3831 60.8106H50.7834L48.4496 54.3184H46.9644ZM47.1342 57.713L47.6434 56.2279L48.195 57.713H47.1342Z" fill="#B9B9B9"/>
<path d="M61.7312 54.3184H60.4157V58.6466L57.8273 54.3184H56.2997V60.8106H57.5727V56.4825L60.2035 60.8106H61.7312V54.3184Z" fill="#B9B9B9"/>
<path d="M70.3021 60.8106V57.713L71.9994 54.3184H70.5567L69.6231 56.1006L68.732 54.3184H67.2893L68.9866 57.713V60.8106H70.3021Z" fill="#B9B9B9"/>
<path d="M0.5 63.9932H1.26379V66.3695H1.68813V63.9932H2.45193V63.6113H0.5V63.9932Z" fill="#B9B9B9"/>
<path d="M5.50643 63.6113L4.48804 66.3695H4.91237L5.12454 65.733H6.18537L6.39753 66.3695H6.82187L5.80347 63.6113H5.50643ZM5.25183 65.3935L5.63374 64.2054L6.01564 65.3935H5.25183Z" fill="#B9B9B9"/>
<path d="M10.3017 65.2233H10.8534V65.3507C10.8534 65.5204 10.8109 65.6477 10.6836 65.775C10.5988 65.9023 10.429 65.9447 10.3017 65.9447C10.2169 65.9447 10.132 65.9447 10.0471 65.9023C9.96227 65.8599 9.91983 65.8174 9.8774 65.775C9.83497 65.7325 9.79253 65.6477 9.75009 65.5628C9.75009 65.478 9.70766 65.2658 9.70766 65.0112C9.70766 64.7566 9.70766 64.5444 9.75009 64.4595C9.75009 64.3747 9.79253 64.2898 9.8774 64.2474C9.91983 64.205 9.96227 64.1625 10.0471 64.1201C10.132 64.0777 10.2169 64.0777 10.3017 64.0777C10.429 64.0777 10.5563 64.1201 10.6412 64.205C10.7261 64.2898 10.8109 64.3747 10.8109 64.502H11.2353C11.1928 64.2898 11.0655 64.0777 10.9382 63.9079C10.7685 63.7382 10.5563 63.6533 10.3017 63.6533C10.0896 63.6533 9.91983 63.6958 9.75009 63.8231C9.62279 63.9079 9.4955 64.0352 9.41063 64.1625C9.3682 64.2474 9.32576 64.3323 9.32576 64.4171C9.32576 64.5444 9.28333 64.7566 9.28333 65.0536C9.28333 65.3507 9.28333 65.5628 9.32576 65.6901C9.32576 65.7326 9.3682 65.8174 9.3682 65.8174C9.3682 65.8599 9.41063 65.9023 9.41063 65.9447C9.4955 66.072 9.58036 66.1993 9.75009 66.2842C9.87739 66.369 10.0896 66.4539 10.3017 66.4539C10.5988 66.4539 10.8109 66.369 10.9807 66.1569C11.1504 65.9871 11.2777 65.7326 11.2777 65.478V64.9263H10.3017V65.2233Z" fill="#B9B9B9"/>
<path d="M14.5029 63.6113H14.0786V66.3695H15.8608V65.9876H14.5029V63.6113Z" fill="#B9B9B9"/>
<path d="M19.0016 63.6113H18.5773V66.3695H19.0016V63.6113Z" fill="#B9B9B9"/>
<path d="M23.5406 65.5633L22.2677 63.6113H21.8857V66.3695H22.3101V64.4176L23.5406 66.3695H23.965V63.6113H23.5406V65.5633Z" fill="#B9B9B9"/>
<path d="M26.8517 66.3695H28.6339V65.9876H27.276V65.1814H28.4217V64.7995H27.276V63.9932H28.6339V63.6113H26.8517V66.3695Z" fill="#B9B9B9"/>
<path d="M35.4651 65.2233H36.0167V65.3507C36.0167 65.5204 35.9743 65.6477 35.847 65.775C35.7621 65.9023 35.5924 65.9447 35.4651 65.9447C35.3802 65.9447 35.2953 65.9447 35.2105 65.9023C35.1256 65.8599 35.0832 65.8174 35.0407 65.775C34.9983 65.7325 34.9559 65.6477 34.9134 65.5628C34.9134 65.478 34.871 65.2658 34.871 65.0112C34.871 64.7566 34.871 64.5444 34.9134 64.4595C34.9134 64.3747 34.9559 64.2898 35.0407 64.2474C35.0832 64.205 35.1256 64.1625 35.2105 64.1201C35.2953 64.0777 35.3802 64.0777 35.4651 64.0777C35.5924 64.0777 35.7197 64.1201 35.8045 64.205C35.8894 64.2898 35.9743 64.3747 35.9743 64.502H36.3986C36.3562 64.2898 36.2289 64.0777 36.1016 63.9079C35.9318 63.7382 35.7197 63.6533 35.4651 63.6533C35.2529 63.6533 35.0832 63.6958 34.9134 63.8231C34.7861 63.9079 34.6588 64.0352 34.574 64.1625C34.5315 64.2474 34.4891 64.3323 34.4891 64.4171C34.4891 64.5444 34.4467 64.7566 34.4467 65.0536C34.4467 65.3507 34.4467 65.5628 34.4891 65.6901C34.4891 65.7326 34.5315 65.8174 34.5315 65.8174C34.5315 65.8599 34.574 65.9023 34.574 65.9447C34.6588 66.072 34.7437 66.1993 34.9134 66.2842C35.0407 66.369 35.2529 66.4539 35.4651 66.4539C35.7621 66.4539 35.9743 66.369 36.144 66.1569C36.3137 65.9871 36.441 65.7326 36.441 65.478V64.9263H35.4651V65.2233Z" fill="#B9B9B9"/>
<path d="M41.0244 64.0776C40.9395 63.9503 40.8547 63.823 40.7274 63.7381C40.6001 63.6532 40.3879 63.5684 40.1757 63.5684C39.9636 63.5684 39.7938 63.6108 39.6241 63.7381C39.4968 63.823 39.3695 63.9503 39.2846 64.0776C39.2422 64.1624 39.1998 64.2473 39.1998 64.3322C39.1998 64.4595 39.1573 64.6716 39.1573 64.9687C39.1573 65.2657 39.1573 65.4779 39.1998 65.6052C39.1998 65.6476 39.2422 65.7325 39.2422 65.7325C39.2422 65.7749 39.2846 65.8173 39.2846 65.8598C39.3695 65.9871 39.4544 66.1144 39.6241 66.1992C39.7514 66.2841 39.9636 66.369 40.1757 66.369C40.3879 66.369 40.5577 66.3265 40.7274 66.1992C40.8547 66.1144 40.982 65.9871 41.0244 65.8598C41.0668 65.7749 41.1093 65.69 41.1093 65.6052C41.1093 65.4779 41.1517 65.2657 41.1517 64.9687C41.1517 64.6292 41.1517 64.417 41.1093 64.3322C41.1093 64.2473 41.0668 64.1624 41.0244 64.0776ZM40.6849 65.5203C40.6849 65.6052 40.6425 65.69 40.5576 65.7325C40.5152 65.7749 40.4728 65.8173 40.3879 65.8598C40.303 65.9022 40.2182 65.9022 40.1333 65.9022C40.0484 65.9022 39.9636 65.9022 39.8787 65.8598C39.7939 65.8173 39.7514 65.7749 39.709 65.7325C39.6665 65.69 39.6241 65.6052 39.5817 65.5203C39.5817 65.4354 39.5392 65.2233 39.5392 64.9687C39.5392 64.7141 39.5392 64.5019 39.5817 64.417C39.5817 64.3322 39.6241 64.2473 39.709 64.2049C39.7514 64.1624 39.7939 64.12 39.8787 64.0776C39.9636 64.0351 40.0484 64.0351 40.1333 64.0351C40.2182 64.0351 40.303 64.0776 40.3879 64.0776C40.4728 64.12 40.5152 64.1624 40.5576 64.2049C40.6001 64.2473 40.6425 64.3322 40.6849 64.417C40.6849 64.5019 40.7274 64.7141 40.7274 64.9687C40.7274 65.2657 40.7274 65.4354 40.6849 65.5203Z" fill="#B9B9B9"/>
<path d="M43.951 66.3695H45.7333V65.9876H44.3754V65.1814H45.5211V64.7995H44.3754V63.9932H45.7333V63.6113H43.951V66.3695Z" fill="#B9B9B9"/>
<path d="M49.468 64.7995C49.3407 64.7995 49.2134 64.757 49.171 64.757C49.0437 64.7146 48.9164 64.6722 48.8739 64.6297C48.8315 64.5449 48.7891 64.5024 48.7891 64.4176C48.7891 64.2903 48.8315 64.2054 48.9164 64.1205C49.0012 64.0357 49.1285 64.0357 49.2558 64.0357C49.5104 64.0357 49.7226 64.1205 49.9348 64.2478L50.1469 63.9084C49.8923 63.7386 49.5953 63.6113 49.2558 63.6113C48.9588 63.6113 48.7466 63.6962 48.5769 63.8235C48.4072 63.9508 48.3223 64.163 48.3223 64.4176C48.3223 64.6297 48.4072 64.7995 48.5345 64.9268C48.6618 65.0541 48.8315 65.1389 49.0861 65.1814C49.2134 65.1814 49.3407 65.2238 49.468 65.2238C49.7226 65.2662 49.8499 65.3935 49.8075 65.6057C49.8075 65.8603 49.6377 65.9876 49.2558 65.9876C48.9588 65.9876 48.7042 65.9027 48.492 65.733L48.2374 66.03C48.5345 66.2846 48.8739 66.4119 49.2983 66.4119C49.9348 66.4119 50.2318 66.1573 50.2742 65.6057C50.2742 65.3935 50.2318 65.2238 50.1045 65.0965C49.9348 64.9268 49.7226 64.8419 49.468 64.7995Z" fill="#B9B9B9"/>
<path d="M57.7418 64.7995H56.6385V63.6113H56.2566V66.3695H56.6385V65.1814H57.7418V66.3695H58.1661V63.6113H57.7418V64.7995Z" fill="#B9B9B9"/>
<path d="M61.095 66.3695H62.8347V65.9876H61.4769V65.1814H62.6226V64.7995H61.4769V63.9932H62.8347V63.6113H61.095V66.3695Z" fill="#B9B9B9"/>
<path d="M67.459 64.3751C67.459 64.1205 67.3741 63.9084 67.2044 63.7811C67.0771 63.6538 66.8649 63.6113 66.6528 63.6113H65.5919V66.3695H66.0163V65.1814H66.5679L67.1195 66.3695H67.6287L66.9922 65.1389C67.2892 65.0116 67.459 64.757 67.459 64.3751ZM65.9738 64.7995V63.9508H66.6103C66.7376 63.9508 66.8649 63.9932 66.9073 64.0357C66.9922 64.1205 67.0347 64.2054 67.0347 64.3327C67.0347 64.46 66.9922 64.5449 66.9073 64.6297C66.8225 64.7146 66.6952 64.757 66.5679 64.757H65.9738V64.7995Z" fill="#B9B9B9"/>
<path d="M70.2181 66.3695H72.0003V65.9876H70.6425V65.1814H71.7881V64.7995H70.6425V63.9932H72.0003V63.6113H70.2181V66.3695Z" fill="#B9B9B9"/>
</svg>
