<svg width="116" height="76" viewBox="0 0 116 76" fill="none" xmlns="http://www.w3.org/2000/svg">
<g clip-path="url(#clip0_13428_2168)">
<path d="M32.2977 27.8287C32.2977 28.0109 32.1486 28.16 31.9663 28.16H27.26C27.0777 28.16 26.9286 28.0109 26.9286 27.8287V23.1243C26.9286 22.9421 27.0777 22.793 27.26 22.793H31.9663C32.1486 22.793 32.2977 22.9421 32.2977 23.1243V27.8287Z" fill="#B9B9B9"/>
<path d="M39.0588 27.8287C39.0588 28.0109 38.9097 28.16 38.7274 28.16H34.0211C33.8388 28.16 33.6897 28.0109 33.6897 27.8287V23.1243C33.6897 22.9421 33.8388 22.793 34.0211 22.793H38.7274C38.9097 22.793 39.0588 22.9421 39.0588 23.1243V27.8287Z" fill="#B9B9B9"/>
<path d="M82.3103 27.8287C82.3103 28.0109 82.1612 28.16 81.9789 28.16H77.2726C77.0903 28.16 76.9412 28.0109 76.9412 27.8287V23.1243C76.9412 22.9421 77.0903 22.793 77.2726 22.793H81.9789C82.1612 22.793 82.3103 22.9421 82.3103 23.1243V27.8287Z" fill="#B9B9B9"/>
<path d="M89.0714 27.8287C89.0714 28.0109 88.9223 28.16 88.74 28.16H84.0337C83.8514 28.16 83.7023 28.0109 83.7023 27.8287V23.1243C83.7023 22.9421 83.8514 22.793 84.0337 22.793H88.74C88.9223 22.793 89.0714 22.9421 89.0714 23.1243V27.8287Z" fill="#B9B9B9"/>
<path d="M99.7766 23.3895L93.8938 17.5089V13.3511C93.8938 13.1192 93.6949 12.937 93.4629 12.937H91.6069C91.3749 12.937 91.1926 13.1192 91.1926 13.3511V14.8254L83.4041 7.03987C83.1886 6.82453 82.8241 6.82453 82.5921 7.03987L81.7801 7.85155C81.5646 8.0669 81.2001 8.43133 80.9681 8.66324L73.9252 15.7033L60.0052 1.78878C59.7898 1.55687 59.4252 1.20901 59.1932 0.977097L58.3978 0.165415C58.1823 -0.0499298 57.8178 -0.0499298 57.5858 0.165415L49.7972 7.95094V6.47666C49.7972 6.24475 49.6149 6.06254 49.3663 6.06254H47.5104C47.2784 6.06254 47.0795 6.26132 47.0795 6.47666V10.6345L42.0418 15.6702L34.9989 8.63011C34.7835 8.41476 34.4189 8.05033 34.1869 7.81842L33.3749 7.00674C33.1595 6.7914 32.7949 6.7914 32.5629 7.00674L24.7743 14.7923V13.318C24.7743 13.0861 24.5921 12.9039 24.3435 12.9039H22.4875C22.2555 12.9039 22.0566 13.0861 22.0566 13.318V17.4758L16.1738 23.3563C15.9583 23.5717 15.9583 23.9361 16.1738 24.168L16.9858 24.9797C17.2012 25.1951 17.5658 25.1951 17.7978 24.9797L32.5463 10.2203C32.7618 10.005 33.1264 10.005 33.3583 10.2203L48.1235 24.9797C48.3389 25.1951 48.7035 25.1951 48.9355 24.9797L49.7475 24.168C49.9629 23.9527 49.9629 23.5883 49.7475 23.3563L43.6492 17.2604L57.5692 3.34589C57.7846 3.13054 58.1492 3.13054 58.3812 3.34589L72.3012 17.2604L66.2029 23.3563C65.9875 23.5717 65.9875 23.9361 66.2029 24.168L67.0149 24.9797C67.2303 25.1951 67.5949 25.1951 67.8269 24.9797L82.5755 10.2203C82.7909 10.005 83.1555 10.005 83.3875 10.2203L98.1361 24.9797C98.3515 25.1951 98.7161 25.1951 98.9481 24.9797L99.7601 24.168C100.009 23.9858 100.009 23.6214 99.7766 23.3895Z" fill="#B9B9B9"/>
<path d="M33.7229 11.7941C33.64 11.7113 33.4909 11.5622 33.408 11.4794L33.0931 11.1647C33.0103 11.0818 32.8611 11.0818 32.7783 11.1647L26.5143 17.4428C26.4314 17.5256 26.4314 17.6747 26.5143 17.7575L26.8291 18.0722C26.912 18.1551 27.0611 18.1551 27.144 18.0722L32.7949 12.4236C32.8777 12.3408 33.0269 12.3408 33.1097 12.4236L38.7606 18.0722C38.8434 18.1551 38.9926 18.1551 39.0754 18.0722L39.3903 17.7575C39.4731 17.6747 39.4731 17.5256 39.3903 17.4428L33.7229 11.7941Z" fill="#B9B9B9"/>
<path d="M58.779 4.86981C58.6961 4.78698 58.547 4.6379 58.4641 4.55508L58.1493 4.24034C58.0664 4.15752 57.9173 4.15752 57.8344 4.24034L51.5538 10.5185C51.471 10.6013 51.471 10.7504 51.5538 10.8332L51.8687 11.1479C51.9516 11.2308 52.1007 11.2308 52.1836 11.1479L57.8344 5.49928C57.9173 5.41645 58.0664 5.41645 58.1493 5.49928L63.8001 11.1479C63.883 11.2308 64.0321 11.2308 64.115 11.1479L64.4298 10.8332C64.5127 10.7504 64.5127 10.6178 64.4298 10.5185L58.779 4.86981Z" fill="#B9B9B9"/>
<path d="M83.7852 11.7941C83.7024 11.7113 83.5532 11.5622 83.4704 11.4794L83.1555 11.1647C83.0726 11.0818 82.9235 11.0818 82.8406 11.1647L76.5601 17.4428C76.4772 17.5256 76.4772 17.6747 76.5601 17.7575L76.8749 18.0722C76.9578 18.1551 77.1069 18.1551 77.1898 18.0722L82.8572 12.407C82.9401 12.3242 83.0892 12.3242 83.1721 12.407L88.8229 18.0557C88.9058 18.1385 89.0549 18.1385 89.1378 18.0557L89.4526 17.7409C89.5355 17.6581 89.5355 17.509 89.4526 17.4262L83.7852 11.7941Z" fill="#B9B9B9"/>
<path d="M58 34.0408C77.952 34.0408 95.2195 38.2483 103.571 44.3774C101.069 36.5422 81.6309 30.4297 58 30.4297C34.3692 30.4297 14.9309 36.5256 12.4286 44.3774C20.7806 38.2483 38.048 34.0408 58 34.0408Z" fill="#E3E3E3"/>
<path d="M32.2977 32.0527V29.5183C32.2977 29.3361 32.1486 29.187 31.9663 29.187H27.26C27.0777 29.187 26.9286 29.3361 26.9286 29.5183V33.5105C28.6023 32.9804 30.4086 32.5 32.2977 32.0527Z" fill="#B9B9B9"/>
<path d="M39.0588 30.7607V29.5183C39.0588 29.3361 38.9097 29.187 38.7274 29.187H34.0211C33.8388 29.187 33.6897 29.3361 33.6897 29.5183V31.7546C35.4131 31.3736 37.2028 31.0423 39.0588 30.7607Z" fill="#B9B9B9"/>
<path d="M82.3103 31.738V29.5017C82.3103 29.3195 82.1612 29.1704 81.9789 29.1704H77.2726C77.0903 29.1704 76.9412 29.3195 76.9412 29.5017V30.7441C78.7972 31.0422 80.5869 31.3735 82.3103 31.738Z" fill="#B9B9B9"/>
<path d="M89.0714 33.5105V29.5183C89.0714 29.3361 88.9223 29.187 88.74 29.187H84.0337C83.8514 29.187 83.7023 29.3361 83.7023 29.5183V32.0527C85.5914 32.5 87.3977 32.9804 89.0714 33.5105Z" fill="#B9B9B9"/>
<path d="M57.304 21.7496C57.304 21.9318 57.1548 22.0809 56.9725 22.0809H52.2662C52.084 22.0809 51.9348 21.9318 51.9348 21.7496V17.0452C51.9348 16.863 52.084 16.7139 52.2662 16.7139H56.9725C57.1548 16.7139 57.304 16.863 57.304 17.0452V21.7496Z" fill="#B9B9B9"/>
<path d="M64.0651 21.7496C64.0651 21.9318 63.9159 22.0809 63.7336 22.0809H59.0274C58.8451 22.0809 58.6959 21.9318 58.6959 21.7496V17.0452C58.6959 16.863 58.8451 16.7139 59.0274 16.7139H63.7336C63.9159 16.7139 64.0651 16.863 64.0651 17.0452V21.7496Z" fill="#B9B9B9"/>
<path d="M57.304 28.1437C57.304 28.3259 57.1548 28.475 56.9725 28.475H52.2662C52.084 28.475 51.9348 28.3259 51.9348 28.1437V23.4392C51.9348 23.257 52.084 23.1079 52.2662 23.1079H56.9725C57.1548 23.1079 57.304 23.257 57.304 23.4392V28.1437Z" fill="#B9B9B9"/>
<path d="M64.0651 28.1437C64.0651 28.3259 63.9159 28.475 63.7336 28.475H59.0274C58.8451 28.475 58.6959 28.3259 58.6959 28.1437V23.4392C58.6959 23.257 58.8451 23.1079 59.0274 23.1079H63.7336C63.9159 23.1079 64.0651 23.257 64.0651 23.4392V28.1437Z" fill="#B9B9B9"/>
<path d="M0 50.7881H7.656C9.42914 50.7881 10.7549 51.1691 11.6331 51.9311C12.5114 52.6931 12.9589 53.7532 12.9589 55.1281C12.9589 55.8901 12.8429 56.5196 12.6274 57.0331C12.3954 57.53 12.1469 57.9441 11.8486 58.2423C11.5503 58.557 11.252 58.7724 10.9537 58.9049C10.6554 59.0374 10.44 59.1368 10.3074 59.17V59.2196C10.5394 59.2528 10.8046 59.319 11.0863 59.4516C11.368 59.5675 11.6166 59.7663 11.8651 60.0313C12.0971 60.2964 12.296 60.6277 12.4617 61.0584C12.6109 61.4725 12.6937 62.0026 12.6937 62.632C12.6937 63.5762 12.76 64.4376 12.9091 65.1996C13.0583 65.9781 13.2737 66.5248 13.572 66.8561H10.556C10.3406 66.5082 10.2246 66.1272 10.1914 65.7131C10.1583 65.299 10.1417 64.8849 10.1417 64.5039C10.1417 63.775 10.092 63.129 10.0091 62.5989C9.92629 62.0688 9.76057 61.6216 9.512 61.2737C9.28 60.9258 8.94857 60.6608 8.53429 60.4951C8.12 60.3295 7.58972 60.2467 6.94343 60.2467H2.81714V66.8561H0V50.7881ZM2.81714 58.0932H7.424C8.31886 58.0932 8.99829 57.8779 9.46229 57.4472C9.92629 57.0165 10.1583 56.387 10.1583 55.5257C10.1583 55.0121 10.0754 54.598 9.92629 54.2833C9.77714 53.9686 9.57829 53.7035 9.31314 53.5379C9.048 53.3557 8.74971 53.2397 8.41829 53.1734C8.08686 53.1072 7.73886 53.0906 7.37429 53.0906H2.81714V58.0932Z" fill="#B9B9B9"/>
<path d="M17.4663 61.6876C17.4663 62.1349 17.5326 62.5656 17.6652 62.9963C17.7978 63.4104 17.9801 63.7748 18.2452 64.0895C18.4938 64.4043 18.8252 64.6528 19.2063 64.835C19.5875 65.0172 20.0681 65.1166 20.5983 65.1166C21.3441 65.1166 21.9572 64.9509 22.4046 64.6362C22.8686 64.3215 23.2001 63.8245 23.4321 63.195H25.8515C25.7189 63.8245 25.4869 64.3877 25.1555 64.8847C24.8241 65.3816 24.4263 65.7957 23.9623 66.127C23.4983 66.4583 22.9846 66.7234 22.4046 66.889C21.8246 67.0547 21.2281 67.1541 20.5983 67.1541C19.6869 67.1541 18.8749 67.005 18.1789 66.7068C17.4663 66.4086 16.8863 65.9945 16.3892 65.4479C15.9086 64.9012 15.5275 64.2718 15.2955 63.5098C15.0469 62.7643 14.9309 61.9361 14.9309 61.0416C14.9309 60.2133 15.0635 59.4348 15.3286 58.6894C15.5938 57.9439 15.9583 57.2979 16.4555 56.7347C16.9361 56.1715 17.5326 55.7242 18.2121 55.3929C18.9081 55.0616 19.6869 54.896 20.5486 54.896C21.4601 54.896 22.2886 55.0948 23.0178 55.4758C23.7469 55.8568 24.3435 56.3703 24.8241 56.9997C25.3046 57.6292 25.6526 58.3581 25.8681 59.1698C26.0835 59.9814 26.1332 60.8263 26.0338 61.7042H17.4663V61.6876ZM23.4486 59.998C23.4155 59.6004 23.3326 59.2029 23.1835 58.8219C23.0343 58.4409 22.8521 58.1262 22.6035 57.8446C22.3549 57.563 22.0566 57.3476 21.7086 57.1654C21.3606 56.9997 20.9629 56.9004 20.5321 56.9004C20.0846 56.9004 19.6703 56.9832 19.3058 57.1323C18.9412 57.2813 18.6263 57.5133 18.3612 57.7783C18.0961 58.0599 17.8972 58.3746 17.7315 58.7556C17.5823 59.1366 17.4829 59.5342 17.4663 59.9649H23.4486V59.998Z" fill="#B9B9B9"/>
<path d="M37.6834 64.2556C37.6834 64.5703 37.7165 64.8022 37.7994 64.9347C37.8822 65.0673 38.0479 65.1335 38.2799 65.1335C38.3628 65.1335 38.4457 65.1335 38.5451 65.1335C38.6445 65.1335 38.7771 65.1169 38.9097 65.0838V66.8563C38.8268 66.8894 38.7108 66.9225 38.5617 66.9557C38.4125 66.9888 38.2799 67.0219 38.1308 67.055C37.9817 67.0882 37.8325 67.1047 37.6834 67.1213C37.5342 67.1379 37.4017 67.1379 37.3022 67.1379C36.7719 67.1379 36.3411 67.0385 35.9931 66.8231C35.6451 66.6078 35.4297 66.2434 35.3137 65.7299C34.7999 66.2268 34.1868 66.5912 33.4411 66.8066C32.6954 67.0219 31.9828 67.1379 31.2868 67.1379C30.7565 67.1379 30.2594 67.0716 29.7788 66.9225C29.2982 66.7734 28.8839 66.5747 28.5028 66.2931C28.1382 66.0115 27.8399 65.6636 27.6245 65.2329C27.4091 64.8022 27.2931 64.3053 27.2931 63.7421C27.2931 63.0298 27.4257 62.4334 27.6908 61.9862C27.9559 61.5389 28.3039 61.1911 28.7182 60.926C29.1491 60.6775 29.6297 60.4953 30.1599 60.3794C30.6902 60.2634 31.2205 60.1806 31.7674 60.1143C32.2314 60.0315 32.6788 59.9653 33.0931 59.9156C33.5074 59.8824 33.8885 59.8162 34.2034 59.7168C34.5182 59.634 34.7834 59.4849 34.9657 59.3027C35.1479 59.1204 35.2474 58.8388 35.2474 58.4578C35.2474 58.1265 35.1645 57.8615 35.0154 57.6462C34.8662 57.4308 34.6674 57.2817 34.4354 57.1658C34.2034 57.0498 33.9382 56.9836 33.6565 56.9339C33.3748 56.9007 33.1097 56.8842 32.8445 56.8842C32.1319 56.8842 31.5354 57.0333 31.0714 57.3314C30.6074 57.6296 30.3422 58.0934 30.2925 58.7229H27.7239C27.7737 57.9775 27.9559 57.348 28.2708 56.851C28.5857 56.3541 28.9834 55.9565 29.4805 55.6584C29.9611 55.3602 30.5245 55.1448 31.1377 55.0289C31.7508 54.9129 32.3805 54.8467 33.0268 54.8467C33.5902 54.8467 34.1537 54.9129 34.7171 55.0289C35.2639 55.1448 35.7777 55.3436 36.2085 55.6087C36.6559 55.8737 37.0039 56.2216 37.2691 56.6523C37.5342 57.0829 37.6668 57.5965 37.6668 58.2094V64.2556H37.6834ZM35.1314 61.0088C34.7337 61.2573 34.2697 61.423 33.6897 61.4727C33.1262 61.5224 32.5462 61.6052 31.9828 61.7046C31.7177 61.7543 31.4525 61.8205 31.2039 61.9034C30.9554 61.9862 30.7234 62.1021 30.5245 62.2346C30.3257 62.3837 30.1765 62.5659 30.0605 62.7979C29.9445 63.0298 29.8948 63.3114 29.8948 63.6427C29.8948 63.9243 29.9777 64.1727 30.1434 64.355C30.3091 64.5537 30.5079 64.7028 30.7399 64.8188C30.9719 64.9347 31.2205 65.0176 31.5022 65.0507C31.7839 65.1004 32.0325 65.117 32.2479 65.117C32.5297 65.117 32.8445 65.0838 33.1759 65.001C33.5074 64.9182 33.8222 64.8022 34.1039 64.62C34.4022 64.4378 34.6342 64.2059 34.8331 63.9408C35.0319 63.6592 35.1314 63.3279 35.1314 62.9138V61.0088Z" fill="#B9B9B9"/>
<path d="M40.5171 50.7881H43.0857V66.823H40.5171V50.7881Z" fill="#B9B9B9"/>
<path d="M52.4817 50.7881H64.0319V53.2066H55.2822V57.4141H63.3691V59.7H55.2822V64.3879H64.1811V66.8064H52.4651V50.7881H52.4817Z" fill="#B9B9B9"/>
<path d="M68.2081 63.0956C68.2909 63.841 68.5726 64.3711 69.0698 64.6693C69.5669 64.9675 70.1635 65.1165 70.8429 65.1165C71.0749 65.1165 71.3566 65.1 71.6715 65.0668C71.9864 65.0337 72.2681 64.9509 72.5332 64.8515C72.7984 64.7521 73.0304 64.5865 73.1961 64.3877C73.3618 64.1889 73.4446 63.9239 73.4281 63.5926C73.4115 63.2613 73.2955 62.9962 73.0635 62.7809C72.8315 62.5655 72.5498 62.3999 72.2018 62.2674C71.8538 62.1348 71.4561 62.0355 70.9921 61.9361C70.5446 61.8532 70.0806 61.7539 69.6166 61.6379C69.1361 61.5385 68.6721 61.406 68.2412 61.2569C67.7938 61.1078 67.3961 60.909 67.0481 60.644C66.7001 60.3955 66.4184 60.0642 66.2029 59.6667C65.9875 59.2691 65.8881 58.7722 65.8881 58.1924C65.8881 57.5629 66.0372 57.0328 66.3521 56.6022C66.6669 56.1715 67.0481 55.8236 67.5286 55.5751C67.9926 55.3101 68.5229 55.1279 69.1029 55.0285C69.6829 54.9291 70.2298 54.8794 70.7601 54.8794C71.3566 54.8794 71.9366 54.9457 72.4835 55.0782C73.0304 55.2107 73.5275 55.4095 73.9749 55.6911C74.4224 55.9727 74.7869 56.3537 75.0686 56.8009C75.3669 57.2647 75.5492 57.8114 75.6155 58.4574H72.9475C72.8315 57.8445 72.5498 57.4304 72.1024 57.2151C71.6549 56.9997 71.1578 56.9003 70.5778 56.9003C70.3955 56.9003 70.1801 56.9169 69.9315 56.95C69.6829 56.9831 69.4509 57.0328 69.2355 57.1157C69.0201 57.1985 68.8378 57.3144 68.6886 57.4801C68.5395 57.6292 68.4566 57.8445 68.4566 58.093C68.4566 58.4077 68.5726 58.6562 68.7881 58.855C69.0035 59.0538 69.2852 59.2029 69.6498 59.3354C69.9978 59.4679 70.3955 59.5673 70.8595 59.6667C71.3069 59.7495 71.7709 59.8489 72.2515 59.9648C72.7155 60.0642 73.1795 60.1967 73.6269 60.3458C74.0744 60.4949 74.4721 60.6937 74.8366 60.9587C75.1846 61.2072 75.4664 61.5385 75.6983 61.9195C75.9138 62.3171 76.0298 62.7809 76.0298 63.3607C76.0298 64.0564 75.8806 64.6362 75.5658 65.1165C75.2509 65.5969 74.8366 65.9779 74.3395 66.2927C73.8424 66.5908 73.2789 66.8062 72.6658 66.9387C72.0526 67.0712 71.4395 67.1375 70.8429 67.1375C70.1138 67.1375 69.4344 67.0546 68.8046 66.889C68.1749 66.7233 67.6446 66.4749 67.1806 66.1436C66.7166 65.8123 66.3686 65.3816 66.1035 64.8846C65.8384 64.3877 65.7058 63.7913 65.6892 63.0956H68.2081Z" fill="#B9B9B9"/>
<path d="M76.7754 55.2111H78.7142V51.7324H81.2828V55.2111H83.6028V57.116H81.2828V63.3113C81.2828 63.5764 81.2994 63.8083 81.316 64.0071C81.3325 64.2058 81.3988 64.3715 81.4651 64.504C81.548 64.6365 81.664 64.7359 81.8297 64.8022C81.9954 64.8684 82.2274 64.9016 82.5091 64.9016C82.6914 64.9016 82.8737 64.9016 83.056 64.885C83.2383 64.885 83.4205 64.8519 83.6028 64.8022V66.7734C83.3211 66.8065 83.0394 66.8397 82.7743 66.8562C82.5091 66.8894 82.2274 66.9059 81.9457 66.9059C81.2663 66.9059 80.736 66.8397 80.3217 66.7071C79.9074 66.5746 79.5925 66.3924 79.3605 66.1439C79.1285 65.8955 78.9628 65.5807 78.8965 65.2163C78.8137 64.8353 78.764 64.4212 78.7474 63.9408V57.0829H76.8085V55.2111H76.7754Z" fill="#B9B9B9"/>
<path d="M95.1531 64.2556C95.1531 64.5703 95.1862 64.8022 95.2691 64.9347C95.352 65.0673 95.5177 65.1335 95.7497 65.1335C95.8325 65.1335 95.9154 65.1335 96.0148 65.1335C96.1142 65.1335 96.2468 65.1169 96.3794 65.0838V66.8563C96.2965 66.8894 96.1805 66.9225 96.0314 66.9557C95.8822 66.9888 95.7497 67.0219 95.6005 67.055C95.4514 67.0882 95.3022 67.1047 95.1531 67.1213C95.004 67.1379 94.8714 67.1379 94.772 67.1379C94.2417 67.1379 93.8108 67.0385 93.4628 66.8231C93.1148 66.6078 92.8994 66.2434 92.7834 65.7299C92.2697 66.2268 91.6565 66.5912 90.9108 66.8066C90.1651 67.0385 89.4525 67.1379 88.7565 67.1379C88.2262 67.1379 87.7291 67.0716 87.2485 66.9225C86.768 66.7734 86.3537 66.5747 85.9725 66.2931C85.608 66.0115 85.3097 65.6636 85.0942 65.2329C84.8788 64.8022 84.7628 64.3053 84.7628 63.7421C84.7628 63.0298 84.8954 62.4334 85.1605 61.9862C85.4257 61.5389 85.7737 61.1911 86.188 60.926C86.6188 60.6775 87.0994 60.4953 87.6297 60.3794C88.16 60.2634 88.6902 60.1806 89.2371 60.1143C89.7011 60.0315 90.1485 59.9653 90.5628 59.9156C90.9771 59.8824 91.3582 59.8162 91.6731 59.7168C91.988 59.634 92.2531 59.4849 92.4354 59.3027C92.6177 59.1204 92.7171 58.8388 92.7171 58.4578C92.7171 58.1265 92.6342 57.8615 92.4851 57.6462C92.336 57.4308 92.1371 57.2817 91.9051 57.1658C91.6731 57.0498 91.408 56.9836 91.1262 56.9339C90.8445 56.9007 90.5794 56.8842 90.3142 56.8842C89.6017 56.8842 89.0051 57.0333 88.5411 57.3314C88.0771 57.6296 87.812 58.0934 87.7622 58.7229H85.1937C85.2434 57.9775 85.4257 57.348 85.7405 56.851C86.0554 56.3541 86.4531 55.9565 86.9502 55.6584C87.4308 55.3602 87.9942 55.1448 88.6074 55.0289C89.2205 54.9129 89.8502 54.8467 90.4965 54.8467C91.06 54.8467 91.6234 54.9129 92.1868 55.0289C92.7337 55.1448 93.2474 55.3436 93.6782 55.6087C94.1257 55.8737 94.4737 56.2216 94.7388 56.6523C95.004 57.0829 95.1365 57.5965 95.1365 58.2094V64.2556H95.1531ZM92.6011 61.0088C92.2034 61.2573 91.7394 61.423 91.1594 61.4727C90.596 61.5224 90.016 61.6052 89.4525 61.7046C89.1874 61.7543 88.9222 61.8205 88.6737 61.9034C88.4251 61.9862 88.1931 62.1021 87.9942 62.2346C87.7954 62.3837 87.6462 62.5659 87.5302 62.7979C87.4142 63.0298 87.3645 63.3114 87.3645 63.6427C87.3645 63.9243 87.4474 64.1727 87.6131 64.355C87.7788 64.5537 87.9777 64.7028 88.2097 64.8188C88.4417 64.9347 88.6902 65.0176 88.972 65.0507C89.2537 65.1004 89.5022 65.117 89.7177 65.117C89.9994 65.117 90.3142 65.0838 90.6457 65.001C90.9771 64.9182 91.292 64.8022 91.5737 64.62C91.872 64.4378 92.104 64.2059 92.3028 63.9408C92.5017 63.6592 92.6011 63.3279 92.6011 62.9138V61.0088Z" fill="#B9B9B9"/>
<path d="M96.7606 55.2111H98.6995V51.7324H101.251V55.2111H103.571V57.116H101.251V63.3113C101.251 63.5764 101.268 63.8083 101.285 64.0071C101.301 64.2058 101.367 64.3715 101.434 64.504C101.517 64.6365 101.633 64.7359 101.798 64.8022C101.964 64.8684 102.196 64.9016 102.478 64.9016C102.66 64.9016 102.842 64.9016 103.025 64.885C103.207 64.885 103.389 64.8519 103.571 64.8022V66.7734C103.29 66.8065 103.008 66.8397 102.743 66.8562C102.478 66.8894 102.196 66.9059 101.914 66.9059C101.235 66.9059 100.705 66.8397 100.29 66.7071C99.876 66.5746 99.5612 66.3924 99.3292 66.1439C99.0972 65.8955 98.9315 65.5807 98.8652 65.2163C98.7823 64.8353 98.7326 64.4212 98.716 63.9408V57.0829H96.7772V55.2111H96.7606Z" fill="#B9B9B9"/>
<path d="M107.416 61.6876C107.416 62.1349 107.482 62.5656 107.615 62.9963C107.747 63.4104 107.93 63.7748 108.195 64.0895C108.443 64.4043 108.775 64.6528 109.156 64.835C109.554 65.0172 110.018 65.1166 110.548 65.1166C111.294 65.1166 111.907 64.9509 112.354 64.6362C112.818 64.3215 113.15 63.8245 113.382 63.195H115.801C115.669 63.8245 115.437 64.3877 115.105 64.8847C114.774 65.3816 114.376 65.7957 113.912 66.127C113.448 66.4583 112.934 66.7234 112.354 66.889C111.774 67.0547 111.178 67.1541 110.548 67.1541C109.637 67.1541 108.825 67.005 108.129 66.7068C107.416 66.4086 106.836 65.9945 106.339 65.4479C105.858 64.9012 105.477 64.2718 105.245 63.5098C104.997 62.7643 104.881 61.9361 104.881 61.0416C104.881 60.2133 105.013 59.4348 105.278 58.6894C105.543 57.9439 105.908 57.2979 106.405 56.7347C106.886 56.1715 107.482 55.7242 108.162 55.3929C108.858 55.0616 109.637 54.896 110.498 54.896C111.41 54.896 112.238 55.0948 112.967 55.4758C113.697 55.8568 114.293 56.3703 114.774 56.9997C115.254 57.6292 115.602 58.3581 115.818 59.1698C116.033 59.9814 116.083 60.8263 115.983 61.7042H107.416V61.6876ZM113.382 59.998C113.349 59.6004 113.266 59.2029 113.117 58.8219C112.967 58.4409 112.785 58.1262 112.537 57.8446C112.288 57.563 111.99 57.3476 111.642 57.1654C111.294 56.9997 110.896 56.9004 110.465 56.9004C110.018 56.9004 109.603 56.9832 109.239 57.1323C108.874 57.2813 108.559 57.5133 108.294 57.7783C108.029 58.0599 107.83 58.3746 107.665 58.7556C107.515 59.1366 107.416 59.5342 107.399 59.9649H113.382V59.998Z" fill="#B9B9B9"/>
<path d="M15.1132 71.71H15.8589L16.6543 74.0125H16.6709L17.4497 71.71H18.1623L16.9692 74.9567C16.9194 75.0892 16.8532 75.2217 16.8034 75.3543C16.7537 75.4868 16.6874 75.5862 16.6046 75.6855C16.5217 75.7849 16.4389 75.8678 16.3229 75.9175C16.2069 75.9672 16.0577 76.0003 15.8754 76.0003C15.7097 76.0003 15.5606 75.9837 15.4114 75.9672V75.4039C15.4612 75.4039 15.5274 75.4205 15.5772 75.4371C15.6269 75.4536 15.6766 75.4536 15.7429 75.4536C15.8257 75.4536 15.892 75.4371 15.9417 75.4205C15.9914 75.4039 16.0412 75.3708 16.0743 75.3377C16.1074 75.3046 16.1406 75.2549 16.1572 75.2052C16.1737 75.1555 16.2069 75.0892 16.2234 75.023L16.3063 74.791L15.1132 71.71Z" fill="#B9B9B9"/>
<path d="M21.1285 74.8738C20.88 74.8738 20.6645 74.8406 20.4657 74.7578C20.2668 74.675 20.1177 74.559 19.9851 74.4265C19.8525 74.2774 19.7531 74.1118 19.6868 73.913C19.6205 73.7142 19.5874 73.4989 19.5874 73.267C19.5874 73.035 19.6205 72.8197 19.6868 72.6209C19.7531 72.4221 19.8525 72.2565 19.9851 72.1074C20.1177 71.9583 20.2834 71.8589 20.4657 71.7761C20.6645 71.6933 20.88 71.6602 21.1285 71.6602C21.3771 71.6602 21.5925 71.6933 21.7914 71.7761C21.9903 71.8589 22.1394 71.9749 22.272 72.1074C22.4045 72.2565 22.504 72.4221 22.5703 72.6209C22.6365 72.8197 22.6697 73.035 22.6697 73.267C22.6697 73.4989 22.6365 73.7308 22.5703 73.913C22.504 74.1118 22.4045 74.2774 22.272 74.4265C22.1394 74.5756 21.9737 74.675 21.7914 74.7578C21.5925 74.8241 21.3771 74.8738 21.1285 74.8738ZM21.1285 74.3271C21.2777 74.3271 21.4103 74.294 21.5263 74.2277C21.6423 74.1615 21.7251 74.0786 21.808 73.9792C21.8743 73.8799 21.924 73.7639 21.9737 73.6314C22.0068 73.4989 22.0234 73.3663 22.0234 73.2338C22.0234 73.1013 22.0068 72.9688 21.9737 72.8363C21.9405 72.7037 21.8908 72.5878 21.808 72.4884C21.7417 72.389 21.6423 72.3062 21.5263 72.2399C21.4103 72.1737 21.2777 72.1405 21.1285 72.1405C20.9794 72.1405 20.8468 72.1737 20.7308 72.2399C20.6148 72.3062 20.532 72.389 20.4491 72.4884C20.3828 72.5878 20.3331 72.7037 20.2834 72.8363C20.2503 72.9688 20.2337 73.1013 20.2337 73.2338C20.2337 73.3663 20.2503 73.4989 20.2834 73.6314C20.3165 73.7639 20.3663 73.8799 20.4491 73.9792C20.5154 74.0786 20.6148 74.1615 20.7308 74.2277C20.8468 74.294 20.9794 74.3271 21.1285 74.3271Z" fill="#B9B9B9"/>
<path d="M27.144 74.7744H26.4812V74.3437H26.4646C26.3818 74.4928 26.2492 74.6253 26.1 74.7081C25.9343 74.8075 25.7686 74.8406 25.6029 74.8406C25.2052 74.8406 24.9069 74.7412 24.7246 74.5425C24.5423 74.3437 24.4595 74.0455 24.4595 73.6314V71.6767H25.1389V73.5651C25.1389 73.8302 25.1886 74.0289 25.288 74.1283C25.3875 74.2443 25.5366 74.294 25.7189 74.294C25.868 74.294 25.984 74.2774 26.0835 74.2277C26.1829 74.178 26.2492 74.1283 26.3155 74.0455C26.3818 73.9792 26.4149 73.8799 26.448 73.7805C26.4812 73.6811 26.4812 73.5651 26.4812 73.4492V71.6602H27.1606V74.7744H27.144Z" fill="#B9B9B9"/>
<path d="M29.0498 71.7097H29.6795V72.3061H29.6961C29.7126 72.2233 29.7623 72.1404 29.8121 72.0576C29.8618 71.9748 29.9446 71.9085 30.0275 71.8423C30.1103 71.776 30.1932 71.7263 30.2926 71.6766C30.3921 71.6435 30.4915 71.6104 30.5909 71.6104C30.6738 71.6104 30.7235 71.6104 30.7566 71.6104C30.7898 71.6104 30.8229 71.6104 30.8561 71.6269V72.2729C30.8063 72.2729 30.7566 72.2564 30.7069 72.2564C30.6572 72.2564 30.6075 72.2398 30.5578 72.2398C30.4418 72.2398 30.3423 72.2564 30.2263 72.3061C30.1269 72.3558 30.0441 72.422 29.9612 72.5049C29.8783 72.5877 29.8286 72.7036 29.7789 72.8362C29.7292 72.9687 29.7126 73.1178 29.7126 73.2834V74.7411H29.0332V71.7097H29.0498Z" fill="#B9B9B9"/>
<path d="M34.8663 71.7099H35.38V70.7822H36.0595V71.7099H36.6726V72.2234H36.0595V73.8633C36.0595 73.9296 36.0595 73.9958 36.076 74.0455C36.076 74.0952 36.0926 74.1449 36.1258 74.178C36.1423 74.2112 36.1755 74.2443 36.2252 74.2609C36.2749 74.2774 36.3246 74.294 36.4075 74.294C36.4572 74.294 36.5069 74.294 36.5566 74.294C36.6063 74.294 36.656 74.2774 36.7058 74.2774V74.8075C36.6229 74.8075 36.5566 74.8241 36.4903 74.8241C36.424 74.8241 36.3412 74.8406 36.2749 74.8406C36.0926 74.8406 35.96 74.8241 35.844 74.7909C35.728 74.7578 35.6452 74.7081 35.5955 74.6419C35.5292 74.5756 35.496 74.4928 35.4629 74.3934C35.4463 74.294 35.4298 74.178 35.4298 74.0621V72.2565H34.916V71.7099H34.8663Z" fill="#B9B9B9"/>
<path d="M40.9148 74.095C40.9148 74.1778 40.9314 74.2441 40.948 74.2772C40.9645 74.3104 41.0143 74.3269 41.0805 74.3269C41.0971 74.3269 41.1303 74.3269 41.1468 74.3269C41.18 74.3269 41.2131 74.3269 41.2463 74.3104V74.7742C41.2297 74.7742 41.1965 74.7907 41.1468 74.8073C41.1137 74.8239 41.064 74.8239 41.0308 74.8404C40.9977 74.8404 40.948 74.857 40.9148 74.857C40.8817 74.857 40.8485 74.857 40.8154 74.857C40.6828 74.857 40.5668 74.8239 40.4674 74.7742C40.368 74.7245 40.3183 74.6251 40.2851 74.476C40.1525 74.6085 39.9868 74.7079 39.788 74.7576C39.5891 74.8239 39.4068 74.8404 39.2245 74.8404C39.092 74.8404 38.9594 74.8239 38.8268 74.7907C38.6943 74.7576 38.5948 74.6914 38.4954 74.6251C38.396 74.5588 38.3131 74.4594 38.2634 74.3435C38.2137 74.2275 38.1805 74.095 38.1805 73.9459C38.1805 73.7637 38.2137 73.5981 38.28 73.4821C38.3463 73.3662 38.4457 73.2668 38.5617 73.2005C38.6777 73.1343 38.7937 73.0846 38.9428 73.0514C39.0754 73.0183 39.2245 73.0017 39.3737 72.9852C39.4897 72.9686 39.6057 72.952 39.7217 72.9355C39.8377 72.9189 39.9371 72.9023 40.02 72.8858C40.1028 72.8692 40.1691 72.8195 40.2188 72.7698C40.2685 72.7201 40.2851 72.6539 40.2851 72.5545C40.2851 72.4717 40.2685 72.3888 40.2188 72.3391C40.1691 72.2894 40.1194 72.2397 40.0697 72.2066C40.0034 72.1735 39.9371 72.1569 39.8708 72.1404C39.788 72.1238 39.7217 72.1238 39.6554 72.1238C39.4731 72.1238 39.3074 72.1569 39.1914 72.2397C39.0754 72.3226 38.9925 72.4385 38.976 72.6042H38.2965C38.3131 72.4054 38.3628 72.2397 38.4457 72.1072C38.5285 71.9747 38.628 71.8753 38.7605 71.7925C38.8931 71.7097 39.0423 71.66 39.1914 71.6268C39.3571 71.5937 39.5228 71.5771 39.6885 71.5771C39.8377 71.5771 39.9868 71.5937 40.136 71.6268C40.2851 71.66 40.4177 71.7097 40.5337 71.7759C40.6497 71.8422 40.7491 71.9416 40.8154 72.0575C40.8817 72.1735 40.9148 72.306 40.9148 72.4717V74.095ZM40.2354 73.2502C40.136 73.3165 40.0034 73.3662 39.8543 73.3662C39.7051 73.3827 39.556 73.3993 39.4068 73.4324C39.3405 73.449 39.2577 73.4656 39.1914 73.4821C39.1251 73.4987 39.0588 73.5318 39.0091 73.5649C38.9594 73.5981 38.9097 73.6478 38.8931 73.714C38.86 73.7803 38.8434 73.8465 38.8434 73.9294C38.8434 74.0122 38.86 74.0619 38.9097 74.1116C38.9594 74.1613 39.0091 74.211 39.0754 74.2275C39.1417 74.2607 39.208 74.2772 39.2743 74.2938C39.3405 74.3104 39.4068 74.3104 39.4731 74.3104C39.556 74.3104 39.6223 74.2938 39.7217 74.2772C39.8045 74.2607 39.8874 74.2275 39.9703 74.1778C40.0531 74.1281 40.1194 74.0619 40.1691 73.9956C40.2188 73.9294 40.252 73.83 40.252 73.7306V73.2502H40.2354Z" fill="#B9B9B9"/>
<path d="M45.6875 74.6252C45.6875 75.089 45.5549 75.4369 45.2897 75.6688C45.0246 75.9007 44.66 76.0167 44.1629 76.0167C44.0137 76.0167 43.848 76.0001 43.6989 75.967C43.5497 75.9338 43.4006 75.8841 43.268 75.8013C43.1355 75.7185 43.036 75.6191 42.9366 75.5032C42.8537 75.3872 42.804 75.2215 42.7875 75.0559H43.4669C43.4834 75.1553 43.5166 75.2215 43.5663 75.2878C43.616 75.3541 43.6657 75.3872 43.732 75.4203C43.7983 75.4535 43.8646 75.47 43.9475 75.4866C44.0303 75.5032 44.1132 75.5032 44.196 75.5032C44.4777 75.5032 44.6766 75.4369 44.7926 75.3044C44.9252 75.1719 44.9749 74.9731 44.9749 74.7246V74.2608H44.9583C44.8589 74.4264 44.7263 74.559 44.5606 74.6583C44.3949 74.7577 44.2126 74.8074 44.0303 74.8074C43.7817 74.8074 43.5829 74.7577 43.4006 74.6749C43.2349 74.5921 43.0857 74.4761 42.9697 74.327C42.8537 74.178 42.7709 74.0123 42.7212 73.8135C42.6714 73.6147 42.6383 73.416 42.6383 73.1841C42.6383 72.9853 42.6714 72.7865 42.7377 72.5877C42.804 72.4055 42.8869 72.2399 43.0195 72.0908C43.1355 71.9583 43.2846 71.8423 43.4503 71.7595C43.616 71.6767 43.8149 71.627 44.0303 71.627C44.2292 71.627 44.3949 71.6601 44.5606 71.7429C44.7263 71.8257 44.8423 71.9583 44.9417 72.1239H44.9583V71.7098H45.6377V74.6252H45.6875ZM44.1795 74.2442C44.3286 74.2442 44.4612 74.2111 44.5606 74.1448C44.66 74.0786 44.7429 73.9957 44.8092 73.8964C44.8754 73.797 44.9252 73.681 44.9583 73.5485C44.9914 73.416 45.008 73.2835 45.008 73.1509C45.008 73.0184 44.9914 72.8859 44.9583 72.7699C44.9252 72.654 44.8754 72.538 44.8092 72.4386C44.7429 72.3392 44.66 72.273 44.5606 72.2067C44.4612 72.157 44.3286 72.1239 44.1795 72.1239C44.0303 72.1239 43.8977 72.157 43.7983 72.2233C43.6989 72.2896 43.616 72.3724 43.5497 72.4718C43.4834 72.5712 43.4337 72.6871 43.4172 72.8196C43.384 72.9522 43.3675 73.0681 43.3675 73.2006C43.3675 73.3331 43.384 73.4491 43.4172 73.5651C43.4503 73.681 43.5 73.797 43.5663 73.8964C43.6326 73.9957 43.7154 74.062 43.8149 74.1283C43.9143 74.2111 44.0469 74.2442 44.1795 74.2442Z" fill="#B9B9B9"/>
<path d="M47.5765 70.5337H48.256V74.7743H47.5765V70.5337Z" fill="#B9B9B9"/>
<path d="M50.1948 70.5337H50.8743V71.1797H50.1948V70.5337ZM50.1948 71.7098H50.8743V74.7909H50.1948V71.7098Z" fill="#B9B9B9"/>
<path d="M52.8131 71.7098H53.4594V72.157L53.476 72.1736C53.5754 72.008 53.708 71.8754 53.8737 71.776C54.0394 71.6766 54.2217 71.627 54.4205 71.627C54.752 71.627 55.0171 71.7098 55.216 71.892C55.4148 72.0742 55.5143 72.3227 55.5143 72.6705V74.7743H54.8348V72.8362C54.8348 72.5877 54.7685 72.4221 54.6857 72.3061C54.5863 72.1902 54.4371 72.1405 54.2382 72.1405C54.1222 72.1405 54.0228 72.157 53.9234 72.2067C53.824 72.2564 53.7577 72.3061 53.6914 72.3724C53.6251 72.4386 53.5754 72.538 53.5423 72.6374C53.5091 72.7368 53.4925 72.8362 53.4925 72.9521V74.7577H52.8131V71.7098Z" fill="#B9B9B9"/>
<path d="M57.9504 73.416C57.9504 73.5319 57.9669 73.6479 58.0001 73.7638C58.0332 73.8798 58.0829 73.9792 58.1492 74.062C58.2155 74.1448 58.2984 74.2111 58.3978 74.2608C58.4972 74.3105 58.6298 74.327 58.7624 74.327C58.9612 74.327 59.1269 74.2773 59.2429 74.1945C59.3589 74.1117 59.4584 73.9792 59.5081 73.8135H60.1544C60.1212 73.9792 60.0549 74.1283 59.9721 74.2608C59.8892 74.3933 59.7732 74.5093 59.6572 74.5921C59.5412 74.6749 59.3921 74.7412 59.2429 74.7909C59.0938 74.8406 58.9281 74.8571 58.7624 74.8571C58.5138 74.8571 58.2984 74.824 58.1161 74.7412C57.9338 74.6583 57.7681 74.559 57.6355 74.4099C57.5029 74.2608 57.4035 74.0951 57.3372 73.8964C57.2709 73.6976 57.2378 73.4822 57.2378 73.2503C57.2378 73.035 57.2709 72.8196 57.3372 72.6209C57.4035 72.4221 57.5029 72.2564 57.6355 72.1073C57.7681 71.9583 57.9172 71.8423 58.0995 71.7595C58.2818 71.6767 58.4806 71.627 58.7126 71.627C58.9612 71.627 59.1767 71.6766 59.3589 71.776C59.5578 71.8754 59.7069 72.008 59.8395 72.1736C59.9721 72.3392 60.0549 72.538 60.1212 72.7534C60.1709 72.9687 60.1875 73.2006 60.1709 73.416H57.9504ZM59.5247 72.9687C59.5247 72.8693 59.4915 72.7534 59.4584 72.654C59.4252 72.5546 59.3755 72.4718 59.3092 72.3889C59.2429 72.3227 59.1601 72.2564 59.0772 72.2067C58.9778 72.157 58.8784 72.1405 58.7624 72.1405C58.6464 72.1405 58.5304 72.157 58.4309 72.2067C58.3315 72.2564 58.2487 72.3061 58.1824 72.3724C58.1161 72.4386 58.0498 72.538 58.0167 72.6374C57.9669 72.7368 57.9504 72.8362 57.9504 72.9521H59.5247V72.9687Z" fill="#B9B9B9"/>
<path d="M67.5949 74.6252C67.5949 75.089 67.4623 75.4369 67.1972 75.6688C66.9321 75.9007 66.5675 76.0167 66.0703 76.0167C65.9212 76.0167 65.7555 76.0001 65.6063 75.967C65.4572 75.9338 65.3081 75.8841 65.1755 75.8013C65.0429 75.7185 64.9435 75.6191 64.8441 75.5032C64.7612 75.3872 64.7115 75.2215 64.6949 75.0559H65.3743C65.3909 75.1553 65.4241 75.2215 65.4738 75.2878C65.5235 75.3541 65.5732 75.3872 65.6395 75.4203C65.7058 75.4535 65.7721 75.47 65.8549 75.4866C65.9378 75.5032 66.0206 75.5032 66.1035 75.5032C66.3852 75.5032 66.5841 75.4369 66.7001 75.3044C66.8326 75.1719 66.8823 74.9731 66.8823 74.7246V74.2608H66.8658C66.7663 74.4264 66.6338 74.559 66.4681 74.6583C66.3023 74.7577 66.1201 74.8074 65.9378 74.8074C65.6892 74.8074 65.4903 74.7577 65.3081 74.6749C65.1423 74.5921 64.9932 74.4761 64.8772 74.327C64.7612 74.178 64.6783 74.0123 64.6286 73.8135C64.5789 73.6147 64.5458 73.416 64.5458 73.1841C64.5458 72.9853 64.5789 72.7865 64.6452 72.5877C64.7115 72.4055 64.7943 72.2399 64.9269 72.0908C65.0429 71.9583 65.1921 71.8423 65.3578 71.7595C65.5235 71.6767 65.7223 71.627 65.9378 71.627C66.1366 71.627 66.3023 71.6601 66.4681 71.7429C66.6338 71.8257 66.7498 71.9583 66.8492 72.1239H66.8658V71.7098H67.5452V74.6252H67.5949ZM66.0869 74.2442C66.2361 74.2442 66.3686 74.2111 66.4681 74.1448C66.5675 74.0786 66.6503 73.9957 66.7166 73.8964C66.7829 73.797 66.8326 73.681 66.8658 73.5485C66.8989 73.416 66.9155 73.2835 66.9155 73.1509C66.9155 73.0184 66.8989 72.8859 66.8658 72.7699C66.8326 72.654 66.7829 72.538 66.7166 72.4386C66.6503 72.3392 66.5675 72.273 66.4681 72.2067C66.3686 72.157 66.2361 72.1239 66.0869 72.1239C65.9378 72.1239 65.8052 72.157 65.7058 72.2233C65.6063 72.2896 65.5235 72.3724 65.4572 72.4718C65.3909 72.5712 65.3412 72.6871 65.3246 72.8196C65.2915 72.9522 65.2749 73.0681 65.2749 73.2006C65.2749 73.3331 65.2915 73.4491 65.3246 73.5651C65.3578 73.681 65.4075 73.797 65.4738 73.8964C65.5401 73.9957 65.6229 74.062 65.7223 74.1283C65.8218 74.2111 65.9543 74.2442 66.0869 74.2442Z" fill="#B9B9B9"/>
<path d="M70.876 74.8738C70.6274 74.8738 70.412 74.8406 70.2131 74.7578C70.0143 74.675 69.8651 74.559 69.7326 74.4265C69.6 74.2774 69.5006 74.1118 69.4343 73.913C69.368 73.7142 69.3348 73.4989 69.3348 73.267C69.3348 73.035 69.368 72.8197 69.4343 72.6209C69.5006 72.4221 69.6 72.2565 69.7326 72.1074C69.8651 71.9583 70.0308 71.8589 70.2131 71.7761C70.412 71.6933 70.6274 71.6602 70.876 71.6602C71.1246 71.6602 71.34 71.6933 71.5388 71.7761C71.7377 71.8589 71.8868 71.9749 72.0194 72.1074C72.152 72.2565 72.2514 72.4221 72.3177 72.6209C72.384 72.8197 72.4171 73.035 72.4171 73.267C72.4171 73.4989 72.384 73.7308 72.3177 73.913C72.2514 74.1118 72.152 74.2774 72.0194 74.4265C71.8868 74.5756 71.7211 74.675 71.5388 74.7578C71.34 74.8241 71.1246 74.8738 70.876 74.8738ZM70.876 74.3271C71.0251 74.3271 71.1577 74.294 71.2737 74.2277C71.3897 74.1615 71.4726 74.0786 71.5554 73.9792C71.6217 73.8799 71.6714 73.7639 71.7211 73.6314C71.7543 73.4989 71.7708 73.3663 71.7708 73.2338C71.7708 73.1013 71.7543 72.9688 71.7211 72.8363C71.688 72.7037 71.6383 72.5878 71.5554 72.4884C71.4891 72.389 71.3897 72.3062 71.2737 72.2399C71.1577 72.1737 71.0251 72.1405 70.876 72.1405C70.7268 72.1405 70.5943 72.1737 70.4783 72.2399C70.3623 72.3062 70.2794 72.389 70.1966 72.4884C70.1303 72.5878 70.0806 72.7037 70.0308 72.8363C69.9811 72.9688 69.9811 73.1013 69.9811 73.2338C69.9811 73.3663 69.9977 73.4989 70.0308 73.6314C70.064 73.7639 70.1137 73.8799 70.1966 73.9792C70.2628 74.0786 70.3623 74.1615 70.4783 74.2277C70.5943 74.294 70.7268 74.3271 70.876 74.3271Z" fill="#B9B9B9"/>
<path d="M74.7206 73.416C74.7206 73.5319 74.7372 73.6479 74.7703 73.7638C74.8035 73.8798 74.8532 73.9792 74.9195 74.062C74.9858 74.1448 75.0686 74.2111 75.1681 74.2608C75.2675 74.3105 75.4001 74.327 75.5326 74.327C75.7315 74.327 75.8972 74.2773 76.0132 74.1945C76.1292 74.1117 76.2286 73.9792 76.2783 73.8135H76.9246C76.8915 73.9792 76.8252 74.1283 76.7423 74.2608C76.6595 74.3933 76.5435 74.5093 76.4275 74.5921C76.3115 74.6749 76.1623 74.7412 76.0132 74.7909C75.8641 74.8406 75.6983 74.8571 75.5326 74.8571C75.2841 74.8571 75.0686 74.824 74.8863 74.7412C74.7041 74.6583 74.5383 74.559 74.4058 74.4099C74.2732 74.2608 74.1738 74.0951 74.1075 73.8964C74.0412 73.6976 74.0081 73.4822 74.0081 73.2503C74.0081 73.035 74.0412 72.8196 74.1075 72.6209C74.1738 72.4221 74.2732 72.2564 74.4058 72.1073C74.5383 71.9583 74.6875 71.8423 74.8698 71.7595C75.0521 71.6767 75.2509 71.627 75.4829 71.627C75.7315 71.627 75.9469 71.6766 76.1292 71.776C76.3281 71.8754 76.4772 72.008 76.6098 72.1736C76.7423 72.3392 76.8252 72.538 76.8915 72.7534C76.9412 72.9687 76.9578 73.2006 76.9412 73.416H74.7206ZM76.2949 72.9687C76.2949 72.8693 76.2618 72.7534 76.2286 72.654C76.1955 72.5546 76.1458 72.4718 76.0795 72.3889C76.0132 72.3227 75.9303 72.2564 75.8475 72.2067C75.7481 72.157 75.6486 72.1405 75.5326 72.1405C75.4166 72.1405 75.3006 72.157 75.2012 72.2067C75.1018 72.2564 75.0189 72.3061 74.9526 72.3724C74.8863 72.4386 74.8201 72.538 74.7869 72.6374C74.7372 72.7368 74.7206 72.8362 74.7206 72.9521H76.2949V72.9687Z" fill="#B9B9B9"/>
<path d="M79.1948 73.7969C79.2114 73.9957 79.2942 74.1282 79.4268 74.211C79.5594 74.2938 79.7085 74.327 79.8908 74.327C79.9571 74.327 80.0234 74.327 80.1062 74.3104C80.1891 74.2938 80.272 74.2773 80.3382 74.2607C80.4045 74.2276 80.4708 74.1944 80.5205 74.1448C80.5702 74.0951 80.5868 74.0288 80.5868 73.9294C80.5868 73.8466 80.5537 73.7638 80.4874 73.7141C80.4211 73.6644 80.3548 73.6147 80.2554 73.5815C80.156 73.5484 80.0565 73.5153 79.9405 73.4987C79.8245 73.4822 79.7085 73.449 79.576 73.4159C79.4434 73.3828 79.3274 73.3496 79.2114 73.3165C79.0954 73.2834 78.996 73.2171 78.8965 73.1509C78.7971 73.0846 78.7308 73.0018 78.6811 72.8858C78.6314 72.7864 78.5982 72.6539 78.5982 72.4883C78.5982 72.3226 78.6314 72.1901 78.7142 72.0741C78.7971 71.9582 78.8965 71.8754 79.0291 71.7925C79.1617 71.7263 79.2942 71.6766 79.4434 71.6434C79.5925 71.6103 79.7417 71.5938 79.8742 71.5938C80.04 71.5938 80.1891 71.6103 80.3217 71.6434C80.4708 71.6766 80.6034 71.7263 80.7194 71.8091C80.8354 71.8919 80.9348 71.9747 81.0177 72.1073C81.1005 72.2232 81.1502 72.3723 81.1668 72.5379H80.4542C80.4211 72.3723 80.3548 72.2729 80.2388 72.2067C80.1228 72.157 79.9902 72.1238 79.8411 72.1238C79.7914 72.1238 79.7417 72.1238 79.6754 72.1404C79.6091 72.1404 79.5428 72.157 79.4931 72.1901C79.4434 72.2066 79.3937 72.2398 79.344 72.2895C79.3108 72.3392 79.2777 72.3889 79.2777 72.4551C79.2777 72.5379 79.3108 72.6042 79.3605 72.6539C79.4102 72.7036 79.4931 72.7533 79.5925 72.7864C79.692 72.8196 79.7914 72.8527 79.9074 72.8692C80.0234 72.8858 80.156 72.9189 80.272 72.9521C80.388 72.9852 80.5205 73.0183 80.6365 73.0515C80.7525 73.0846 80.8685 73.1509 80.9514 73.2171C81.0508 73.2834 81.1171 73.3662 81.1834 73.4656C81.2331 73.565 81.2662 73.6975 81.2662 73.8466C81.2662 74.0288 81.2165 74.1779 81.1337 74.3104C81.0508 74.4429 80.9348 74.5423 80.8022 74.6251C80.6697 74.708 80.5205 74.7577 80.3548 74.7908C80.1891 74.8239 80.0234 74.8405 79.8742 74.8405C79.6754 74.8405 79.4931 74.8239 79.344 74.7742C79.1782 74.7245 79.0291 74.6583 78.9131 74.5754C78.7971 74.4926 78.6977 74.3767 78.6314 74.2441C78.5651 74.1116 78.532 73.946 78.5154 73.7638H79.1948V73.7969Z" fill="#B9B9B9"/>
<path d="M85.8069 70.5337H86.4863V72.1074H86.5029C86.5857 71.9748 86.7183 71.8589 86.8675 71.7595C87.0332 71.6601 87.2155 71.627 87.4143 71.627C87.7457 71.627 88.0109 71.7098 88.2097 71.892C88.4086 72.0742 88.508 72.3227 88.508 72.6706V74.7743H87.8286V72.8362C87.8286 72.5877 87.7623 72.4221 87.6795 72.3061C87.58 72.1902 87.4309 72.1405 87.232 72.1405C87.116 72.1405 87.0166 72.1571 86.9172 72.2068C86.8177 72.2564 86.7515 72.3061 86.6852 72.3724C86.6189 72.4387 86.5692 72.5381 86.536 72.6374C86.5029 72.7368 86.4863 72.8362 86.4863 72.9522V74.7578H85.8069V70.5337Z" fill="#B9B9B9"/>
<path d="M90.944 73.416C90.944 73.5319 90.9606 73.6479 90.9937 73.7638C91.0269 73.8798 91.0766 73.9792 91.1429 74.062C91.2092 74.1448 91.292 74.2111 91.3914 74.2608C91.4909 74.3105 91.6234 74.327 91.756 74.327C91.9549 74.327 92.1206 74.2773 92.2366 74.1945C92.3526 74.1117 92.452 73.9792 92.5017 73.8135H93.148C93.1149 73.9792 93.0486 74.1283 92.9657 74.2608C92.8829 74.3933 92.7669 74.5093 92.6509 74.5921C92.5349 74.6749 92.3857 74.7412 92.2366 74.7909C92.0874 74.8406 91.9217 74.8571 91.756 74.8571C91.5074 74.8571 91.292 74.824 91.1097 74.7412C90.9274 74.6583 90.7617 74.559 90.6292 74.4099C90.4966 74.2608 90.3972 74.0951 90.3309 73.8964C90.2646 73.6976 90.2314 73.4822 90.2314 73.2503C90.2314 73.035 90.2646 72.8196 90.3309 72.6209C90.3972 72.4221 90.4966 72.2564 90.6292 72.1073C90.7617 71.9583 90.9109 71.8423 91.0932 71.7595C91.2754 71.6767 91.4743 71.627 91.7063 71.627C91.9549 71.627 92.1703 71.6766 92.3526 71.776C92.5514 71.8754 92.7006 72.008 92.8332 72.1736C92.9657 72.3392 93.0486 72.538 93.1149 72.7534C93.1646 72.9687 93.1812 73.2006 93.1646 73.416H90.944ZM92.5183 72.9687C92.5183 72.8693 92.4852 72.7534 92.452 72.654C92.4189 72.5546 92.3692 72.4718 92.3029 72.3889C92.2366 72.3227 92.1537 72.2564 92.0709 72.2067C91.9714 72.157 91.872 72.1405 91.756 72.1405C91.64 72.1405 91.524 72.157 91.4246 72.2067C91.3252 72.2564 91.2423 72.3061 91.176 72.3724C91.1097 72.4386 91.0434 72.538 91.0103 72.6374C90.9606 72.7368 90.944 72.8362 90.944 72.9521H92.5183V72.9687Z" fill="#B9B9B9"/>
<path d="M94.9046 71.7097H95.5344V72.3061H95.5509C95.5675 72.2233 95.6172 72.1404 95.6669 72.0576C95.7166 71.9748 95.7995 71.9085 95.8823 71.8423C95.9652 71.776 96.0481 71.7263 96.1475 71.6766C96.2469 71.6435 96.3464 71.6104 96.4458 71.6104C96.5286 71.6104 96.5784 71.6104 96.6115 71.6104C96.6446 71.6104 96.6778 71.6104 96.7109 71.6269V72.2729C96.6612 72.2729 96.6115 72.2564 96.5618 72.2564C96.5121 72.2564 96.4623 72.2398 96.4126 72.2398C96.2966 72.2398 96.1972 72.2564 96.0812 72.3061C95.9818 72.3558 95.8989 72.422 95.8161 72.5049C95.7332 72.5877 95.6835 72.7036 95.6338 72.8362C95.5841 72.9687 95.5675 73.1178 95.5675 73.2834V74.7411H94.8881V71.7097H94.9046Z" fill="#B9B9B9"/>
<path d="M98.6166 73.416C98.6166 73.5319 98.6332 73.6479 98.6663 73.7638C98.6995 73.8798 98.7492 73.9792 98.8155 74.062C98.8818 74.1448 98.9646 74.2111 99.0641 74.2608C99.1635 74.3105 99.2961 74.327 99.4286 74.327C99.6275 74.327 99.7932 74.2773 99.9092 74.1945C100.025 74.1117 100.125 73.9792 100.174 73.8135H100.821C100.787 73.9792 100.721 74.1283 100.638 74.2608C100.555 74.3933 100.439 74.5093 100.323 74.5921C100.207 74.6749 100.058 74.7412 99.9092 74.7909C99.7601 74.8406 99.5943 74.8571 99.4286 74.8571C99.1801 74.8571 98.9646 74.824 98.7823 74.7412C98.6001 74.6583 98.4343 74.559 98.3018 74.4099C98.1692 74.2608 98.0698 74.0951 98.0035 73.8964C97.9372 73.6976 97.9041 73.4822 97.9041 73.2503C97.9041 73.035 97.9372 72.8196 98.0035 72.6209C98.0698 72.4221 98.1692 72.2564 98.3018 72.1073C98.4343 71.9583 98.5835 71.8423 98.7658 71.7595C98.9481 71.6767 99.1469 71.627 99.3789 71.627C99.6275 71.627 99.8429 71.6766 100.025 71.776C100.224 71.8754 100.373 72.008 100.506 72.1736C100.638 72.3392 100.721 72.538 100.787 72.7534C100.837 72.9687 100.854 73.2006 100.837 73.416H98.6166ZM100.207 72.9687C100.207 72.8693 100.174 72.7534 100.141 72.654C100.108 72.5546 100.058 72.4718 99.9921 72.3889C99.9258 72.3227 99.8429 72.2564 99.7601 72.2067C99.6606 72.157 99.5612 72.1405 99.4452 72.1405C99.3292 72.1405 99.2132 72.157 99.1138 72.2067C99.0143 72.2564 98.9315 72.3061 98.8652 72.3724C98.7989 72.4386 98.7326 72.538 98.6995 72.6374C98.6498 72.7368 98.6332 72.8362 98.6332 72.9521H100.207V72.9687Z" fill="#B9B9B9"/>
</g>
<defs>
<clipPath id="clip0_13428_2168">
<rect width="116" height="76" fill="white"/>
</clipPath>
</defs>
</svg>
