<svg width="76" height="66" viewBox="0 0 76 66" fill="none" xmlns="http://www.w3.org/2000/svg">
<g clip-path="url(#clip0_13428_2348)">
<path opacity="0.84" fill-rule="evenodd" clip-rule="evenodd" d="M37.9952 47.3755C46.4901 47.3755 53.379 47.6191 53.379 47.9213C53.379 48.2234 46.4901 48.467 37.9952 48.467C29.5002 48.467 22.6113 48.2234 22.6113 47.9213C22.6113 47.6191 29.5002 47.3755 37.9952 47.3755Z" fill="#B9B9B9"/>
<path d="M69.1305 59.4411V53.3596H72.8265V54.6948H70.7366V55.7474H72.7104V57.0533H70.7366V58.0767H72.8265V59.4411H69.1305ZM68.2404 59.4411H66.702L66.344 56.8097C66.3246 56.6245 66.2956 56.4198 66.2763 56.1859C66.2569 55.9618 66.2376 55.7084 66.2182 55.4452C66.1795 55.6986 66.1021 56.0203 65.9957 56.4101C65.9763 56.4881 65.957 56.5465 65.9376 56.5855L65.1152 59.4314H64.0219L63.1995 56.5855C63.1898 56.5465 63.1705 56.4881 63.1511 56.4101C63.035 56.03 62.9576 55.7084 62.9286 55.455C62.9092 55.6889 62.8899 55.913 62.8705 56.1372C62.8512 56.3614 62.8222 56.5855 62.7931 56.8097L62.4352 59.4411H60.9064L61.8353 53.3596H63.4704L64.3799 56.4978C64.3896 56.5173 64.3993 56.5563 64.4089 56.605C64.496 56.8876 64.5444 57.1216 64.5734 57.3262C64.5831 57.219 64.6024 57.1021 64.6315 56.9656C64.6605 56.8389 64.6992 56.6732 64.7572 56.4881L65.6764 53.3596H67.3115L68.2404 59.4411ZM54.511 59.4411L56.5912 53.3596H58.6521L60.742 59.4411H59.1068L58.7972 58.3496H56.4558L56.1462 59.4411H54.511ZM56.8138 57.1703H58.4489L57.8297 55.1626C57.8103 55.1041 57.7813 55.0067 57.7523 54.8702C57.7232 54.7338 57.6749 54.5583 57.6265 54.3439C57.5878 54.4901 57.5588 54.6363 57.5201 54.7728C57.491 54.9092 57.4523 55.0359 57.4136 55.1626L56.8138 57.1703ZM48.0189 59.4411V53.3596H49.6056L51.889 56.4881C51.9374 56.5563 52.0051 56.683 52.1019 56.8682C52.1986 57.0631 52.3147 57.2872 52.4308 57.5601C52.4018 57.3067 52.3728 57.0826 52.3631 56.8876C52.3437 56.6927 52.3437 56.5173 52.3437 56.3614V53.3596H53.9208V59.4411H52.3437L50.0604 56.3029C50.012 56.2347 49.9443 56.108 49.8378 55.9228C49.7411 55.7279 49.625 55.5037 49.5089 55.2406C49.5379 55.494 49.5669 55.7181 49.5766 55.9228C49.5959 56.1177 49.5959 56.2931 49.5959 56.4491V59.4508H48.0189V59.4411ZM40.743 57.4822C40.9849 57.7648 41.2267 57.9695 41.4686 58.1059C41.7105 58.2423 41.9427 58.3106 42.1749 58.3106C42.3975 58.3106 42.5716 58.2521 42.7168 58.1351C42.8619 58.0182 42.9296 57.8623 42.9296 57.6868C42.9296 57.4822 42.8716 57.3262 42.7458 57.219C42.62 57.1118 42.3491 56.9949 41.9137 56.8779C41.3235 56.722 40.9075 56.5076 40.6559 56.2542C40.414 56.0008 40.2882 55.6402 40.2882 55.1918C40.2882 54.6071 40.4817 54.1393 40.8688 53.7689C41.2558 53.3986 41.7589 53.2231 42.3684 53.2231C42.6974 53.2231 43.0167 53.2719 43.3166 53.3596C43.6166 53.4473 43.8972 53.5838 44.1681 53.7689L43.6553 54.9579C43.4714 54.802 43.2779 54.6753 43.0747 54.5973C42.8812 54.5194 42.6877 54.4706 42.4942 54.4706C42.291 54.4706 42.1362 54.5194 42.0105 54.6168C41.8847 54.7143 41.8266 54.8312 41.8266 54.9872C41.8266 55.1431 41.8847 55.2601 41.9911 55.3575C42.0975 55.4452 42.3104 55.533 42.62 55.6207L42.6974 55.6402C43.365 55.8253 43.8101 56.0203 44.0229 56.2444C44.1681 56.3906 44.2745 56.5758 44.3519 56.7804C44.4293 56.9851 44.4583 57.219 44.4583 57.4724C44.4583 58.1156 44.2455 58.6322 43.8294 59.0318C43.4134 59.4216 42.8522 59.6165 42.1459 59.6165C41.7299 59.6165 41.3429 59.5483 40.9945 59.4021C40.6462 59.2559 40.3173 59.0318 39.998 58.7199L40.743 57.4822ZM35.8376 57.4822C36.0795 57.7648 36.3213 57.9695 36.5632 58.1059C36.8051 58.2423 37.0373 58.3106 37.2695 58.3106C37.4921 58.3106 37.6662 58.2521 37.8113 58.1351C37.9565 58.0182 38.0242 57.8623 38.0242 57.6868C38.0242 57.4822 37.9662 57.3262 37.8404 57.219C37.7146 57.1118 37.4437 56.9949 37.0083 56.8779C36.4181 56.722 36.0021 56.5076 35.7505 56.2542C35.5086 56.0008 35.3828 55.6402 35.3828 55.1918C35.3828 54.6071 35.5763 54.1393 35.9634 53.7689C36.3504 53.3986 36.8535 53.2231 37.463 53.2231C37.792 53.2231 38.1113 53.2719 38.4112 53.3596C38.7112 53.4473 38.9917 53.5838 39.2626 53.7689L38.7499 54.9579C38.566 54.802 38.3725 54.6753 38.1693 54.5973C37.9758 54.5194 37.7823 54.4706 37.5888 54.4706C37.3856 54.4706 37.2308 54.5194 37.105 54.6168C36.9793 54.7143 36.9212 54.8312 36.9212 54.9872C36.9212 55.1431 36.9793 55.2601 37.0857 55.3575C37.1921 55.4452 37.405 55.533 37.7146 55.6207L37.792 55.6402C38.4596 55.8253 38.9047 56.0203 39.1175 56.2444C39.2626 56.3906 39.3691 56.5758 39.4465 56.7804C39.5239 56.9851 39.5529 57.219 39.5529 57.4724C39.5529 58.1156 39.3401 58.6322 38.924 59.0318C38.508 59.4216 37.9468 59.6165 37.2405 59.6165C36.8148 59.6165 36.4374 59.5483 36.0891 59.4021C35.7408 59.2559 35.4119 59.0318 35.0926 58.7199L35.8376 57.4822ZM30.7774 59.4411V53.3596H34.4733V54.6948H32.3835V55.7474H34.3572V57.0533H32.3835V58.0767H34.4733V59.4411H30.7774ZM23.5789 59.4411V53.3596H25.1656L27.449 56.4881C27.4974 56.5563 27.5651 56.683 27.6619 56.8682C27.7586 57.0631 27.8747 57.2872 27.9908 57.5601C27.9618 57.3067 27.9328 57.0826 27.9231 56.8876C27.9038 56.6927 27.9038 56.5173 27.9038 56.3614V53.3596H29.4809V59.4411H27.9038L25.6204 56.3029C25.572 56.2347 25.5043 56.108 25.3979 55.9228C25.3011 55.7279 25.185 55.5037 25.0689 55.2406C25.0979 55.494 25.1269 55.7181 25.1366 55.9228C25.156 56.1177 25.156 56.2931 25.156 56.4491V59.4508H23.5789V59.4411ZM20.5892 59.4411V53.3596H22.2534V59.4411H20.5892ZM15.916 57.4822C16.1579 57.7648 16.3998 57.9695 16.6416 58.1059C16.8835 58.2423 17.1157 58.3106 17.3479 58.3106C17.5705 58.3106 17.7446 58.2521 17.8898 58.1351C18.0349 58.0182 18.1026 57.8623 18.1026 57.6868C18.1026 57.4822 18.0446 57.3262 17.9188 57.219C17.793 57.1118 17.5221 56.9949 17.0867 56.8779C16.4965 56.722 16.0805 56.5076 15.8289 56.2542C15.587 56.0008 15.4612 55.6402 15.4612 55.1918C15.4612 54.6071 15.6548 54.1393 16.0418 53.7689C16.4288 53.3986 16.9319 53.2231 17.5415 53.2231C17.8704 53.2231 18.1897 53.2719 18.4896 53.3596C18.7896 53.4473 19.0702 53.5838 19.3411 53.7689L18.8283 54.9579C18.6444 54.802 18.4509 54.6753 18.2478 54.5973C18.0542 54.5194 17.8607 54.4706 17.6672 54.4706C17.4641 54.4706 17.3092 54.5194 17.1835 54.6168C17.0577 54.7143 16.9996 54.8312 16.9996 54.9872C16.9996 55.1431 17.0577 55.2601 17.1641 55.3575C17.2705 55.4452 17.4834 55.533 17.793 55.6207L17.8704 55.6402C18.538 55.8253 18.9831 56.0203 19.1959 56.2444C19.3411 56.3906 19.4475 56.5758 19.5249 56.7804C19.6023 56.9851 19.6313 57.219 19.6313 57.4724C19.6313 58.1156 19.4185 58.6322 19.0024 59.0318C18.5767 59.4216 18.0252 59.6165 17.3189 59.6165C16.8932 59.6165 16.5159 59.5483 16.1676 59.4021C15.8192 59.2559 15.4903 59.0318 15.171 58.7199L15.916 57.4822ZM9.01745 53.3596H10.6623V56.3126C10.6623 56.7512 10.6719 57.0631 10.6913 57.2483C10.7106 57.4334 10.7493 57.5991 10.8074 57.7258C10.8654 57.8817 10.9816 57.9987 11.1364 58.0864C11.2912 58.1644 11.4847 58.2131 11.7072 58.2131C11.9297 58.2131 12.1232 58.1741 12.2781 58.0864C12.4329 58.0084 12.5393 57.8817 12.607 57.7258C12.6651 57.5991 12.6941 57.4432 12.7231 57.2483C12.7425 57.0533 12.7521 56.7415 12.7521 56.3126V55.8936V53.3498H14.3873V56.566C14.3873 57.2288 14.3486 57.7258 14.2712 58.0377C14.1938 58.3593 14.0583 58.6224 13.8648 58.8466C13.6616 59.0902 13.3714 59.2754 13.0134 59.4021C12.6554 59.5288 12.22 59.5873 11.6975 59.5873C11.1847 59.5873 10.7397 59.5288 10.3817 59.4021C10.0237 59.2754 9.74311 59.0902 9.53025 58.8466C9.34642 58.6224 9.21096 58.3495 9.12388 58.0377C9.04648 57.7161 8.9981 57.2288 8.9981 56.566V55.9423V53.3596H9.01745ZM4.85705 58.2034H5.43757C5.82458 58.2034 6.10517 58.1546 6.26965 58.0572C6.43413 57.9597 6.51153 57.794 6.51153 57.5699C6.51153 57.3165 6.43413 57.141 6.289 57.0338C6.14387 56.9364 5.86328 56.8779 5.46659 56.8779H4.86672V58.2034H4.85705ZM3.32834 59.4411V53.3596H4.98283C5.6601 53.3596 6.14387 53.3791 6.41478 53.4278C6.68569 53.4765 6.9179 53.5448 7.11141 53.652C7.33394 53.7787 7.49842 53.9443 7.6242 54.149C7.74031 54.3634 7.79836 54.5973 7.79836 54.8702C7.79836 55.2211 7.71128 55.494 7.53712 55.6986C7.36297 55.9033 7.08238 56.0592 6.70504 56.1664C7.13076 56.1957 7.4694 56.3516 7.71128 56.6245C7.95316 56.8974 8.07894 57.258 8.07894 57.7063C8.07894 58.0279 8.01122 58.3106 7.87576 58.564C7.74031 58.8076 7.5468 59.0025 7.29524 59.139C7.09206 59.2462 6.83082 59.3339 6.53088 59.3729C6.23095 59.4216 5.7375 59.4411 5.05055 59.4411H3.32834ZM4.85705 55.7961H5.18601C5.59237 55.7961 5.87296 55.7474 6.02777 55.6596C6.18257 55.5719 6.2503 55.416 6.2503 55.1918C6.2503 54.9579 6.18257 54.802 6.03744 54.7045C5.89231 54.6168 5.6214 54.5681 5.21504 54.5681H4.85705V55.7961Z" fill="#B9B9B9"/>
<path d="M54.7626 65.9218V61.8577H57.2201V62.345H55.3237V63.5535H57.0073V64.0311H55.3237V65.4345H57.3652V65.9218H54.7626ZM52.2179 62.3158C51.9761 62.3158 51.7922 62.3255 51.6665 62.3353V63.8654H52.0728C52.2663 63.8654 52.4405 63.8557 52.5953 63.8362C52.7501 63.8167 52.8856 63.7777 52.992 63.729C53.0984 63.6705 53.1855 63.5925 53.2435 63.4951C53.3016 63.3976 53.3306 63.2612 53.3306 63.0955C53.3306 62.9395 53.3016 62.8128 53.2435 62.7154C53.1855 62.6179 53.1081 62.5302 53.0113 62.4717C52.9146 62.4133 52.7985 62.3743 52.663 62.345C52.5082 62.3255 52.3728 62.3158 52.2179 62.3158ZM53.0694 64.2163C53.1274 64.2942 53.2145 64.4014 53.3016 64.5281C53.3983 64.6548 53.4951 64.7913 53.5919 64.9472C53.6886 65.1032 53.795 65.2591 53.8918 65.4345C53.9885 65.6002 54.0756 65.7659 54.1433 65.9218H53.5241C53.4467 65.7756 53.3596 65.6197 53.2726 65.4735C53.1855 65.3176 53.0887 65.1714 52.992 65.0349C52.8952 64.8985 52.8081 64.762 52.7114 64.6451C52.6243 64.5281 52.5372 64.4209 52.4598 64.3332C52.4115 64.3332 52.3534 64.343 52.305 64.343C52.2566 64.343 52.1986 64.343 52.1405 64.343H51.6665V65.9316H51.1053V61.926C51.2601 61.887 51.4439 61.8577 51.6374 61.848C51.8309 61.8382 52.0148 61.8285 52.1792 61.8285C52.7501 61.8285 53.1758 61.9357 53.4757 62.1501C53.7757 62.3645 53.9208 62.6861 53.9208 63.115C53.9208 63.3879 53.8531 63.612 53.708 63.8069C53.5531 63.9824 53.35 64.1286 53.0694 64.2163ZM47.777 65.9218V61.8577H50.2345V62.345H48.3381V63.5535H50.0216V64.0311H48.3381V65.4345H50.3796V65.9218H47.777ZM46.2095 61.8577H46.7707V65.9218H46.2095V64.0506H44.2358V65.9218H43.6746V61.8577H44.2358V63.5535H46.2095V61.8577ZM39.0111 65.9218V61.8577H41.4686V62.345H39.5722V63.5535H41.2558V64.0311H39.5722V65.4345H41.6137V65.9218H39.0111ZM37.5307 65.9218C37.4437 65.7756 37.3469 65.6197 37.2405 65.4345C37.1341 65.2591 37.0083 65.0642 36.8825 64.879C36.7567 64.6841 36.6213 64.4892 36.4858 64.2942C36.3503 64.0993 36.2149 63.9044 36.0794 63.7192C35.944 63.534 35.8085 63.3586 35.6827 63.1929C35.557 63.0273 35.4409 62.8811 35.3248 62.7544V65.9218H34.7733V61.8577H35.2183C35.4022 62.0527 35.5957 62.2768 35.7989 62.54C36.002 62.8031 36.2149 63.0662 36.4181 63.3391C36.6213 63.612 36.8148 63.8849 36.9986 64.148C37.1824 64.4112 37.3276 64.6548 37.4533 64.8595V61.848H38.0048V65.9121H37.5307V65.9218ZM33.2059 61.8577H33.767V65.9218H33.2059V61.8577ZM32.6157 65.4248V65.9218H30.1871V61.8577H30.7483V65.4248H32.6157ZM28.7358 63.9239H29.297V65.8244C29.2486 65.8439 29.1809 65.8536 29.0938 65.8731C29.0067 65.8926 28.91 65.9121 28.7939 65.9316C28.6778 65.9511 28.552 65.9706 28.4165 65.9803C28.2811 65.99 28.1456 65.9998 28.0005 65.9998C27.7199 65.9998 27.4587 65.9511 27.2265 65.8633C26.9943 65.7659 26.7911 65.6294 26.6266 65.454C26.4621 65.2786 26.3267 65.0544 26.2396 64.7913C26.1525 64.5281 26.1041 64.226 26.1041 63.8849C26.1041 63.5438 26.1525 63.2417 26.2589 62.9785C26.3654 62.7154 26.5008 62.4912 26.675 62.3158C26.8491 62.1404 27.0523 62.0039 27.2845 61.9065C27.5167 61.809 27.7683 61.77 28.0392 61.77C28.223 61.77 28.3875 61.7798 28.523 61.809C28.6681 61.8285 28.7842 61.8577 28.8906 61.887C28.9874 61.9162 29.0745 61.9454 29.1422 61.9844C29.2099 62.0137 29.2486 62.0429 29.2777 62.0527L29.0938 62.5302C28.9777 62.4522 28.8326 62.3938 28.6488 62.345C28.4649 62.2963 28.2714 62.2671 28.0779 62.2671C27.8747 62.2671 27.6812 62.3061 27.5167 62.3743C27.3523 62.4522 27.2071 62.5594 27.0813 62.6959C26.9652 62.8323 26.8685 63.0078 26.8008 63.2124C26.733 63.4171 26.704 63.6413 26.704 63.8849C26.704 64.1286 26.733 64.3527 26.7911 64.5476C26.8491 64.7426 26.9362 64.918 27.0426 65.0642C27.1588 65.2104 27.2942 65.3176 27.4684 65.3955C27.6328 65.4735 27.836 65.5125 28.0682 65.5125C28.2327 65.5125 28.3682 65.5027 28.4843 65.4833C28.6004 65.4638 28.6778 65.4443 28.7358 65.4345V63.9239ZM24.5851 64.4112C24.4593 64.0701 24.3335 63.7387 24.2174 63.4268C24.0917 63.1052 23.9659 62.8031 23.8401 62.5107C23.7046 62.8031 23.5789 63.1052 23.4531 63.4268C23.3273 63.7485 23.2112 64.0701 23.0854 64.4112H24.5851ZM25.1076 65.9218C25.0398 65.7464 24.9818 65.571 24.9237 65.4053C24.8657 65.2396 24.8076 65.0642 24.7399 64.8887H22.9113L22.5436 65.9218H21.9631C22.1179 65.493 22.263 65.0934 22.3985 64.7328C22.5339 64.3722 22.6694 64.0213 22.7952 63.69C22.9209 63.3586 23.0564 63.0467 23.1822 62.7446C23.308 62.4425 23.4434 62.1501 23.5789 61.8577H24.1013C24.2368 62.1501 24.3722 62.4425 24.5077 62.7446C24.6335 63.0467 24.7689 63.3586 24.8947 63.69C25.0205 64.0213 25.156 64.3625 25.2914 64.7328C25.4269 65.0934 25.572 65.493 25.7268 65.9218H25.1076ZM21.8179 61.8577V62.3548H20.5505V65.9218H19.9893V62.3548H18.7218V61.8577H21.8179Z" fill="#B9B9B9"/>
<path fill-rule="evenodd" clip-rule="evenodd" d="M25.3301 42.5314H30.816L47.7092 25.5149H50.6602L54.8884 21.2656H37.9952L42.2233 25.5149L25.3301 42.5314Z" fill="#E3E3E3"/>
<path fill-rule="evenodd" clip-rule="evenodd" d="M50.6602 25.5149V28.4972L36.7374 42.5314H42.2233L50.6602 34.0232L54.8883 38.2724V21.2656L50.6602 25.5149Z" fill="#E3E3E3"/>
<path fill-rule="evenodd" clip-rule="evenodd" d="M54.8884 25.5149V31.0408L68.8209 17.0066H71.7719L76 12.7573H59.1068L63.3253 17.0066L54.8884 25.5149Z" fill="#B9B9B9"/>
<path fill-rule="evenodd" clip-rule="evenodd" d="M71.7719 17.0066V19.9889L49.6733 42.5314H55.1593L71.7719 25.5149L76 29.7739V12.7573L71.7719 17.0066Z" fill="#B9B9B9"/>
<path fill-rule="evenodd" clip-rule="evenodd" d="M50.6602 21.2658H45.1743L59.1068 7.23154V4.24926L63.3253 0V17.0068L59.1068 12.7575L50.6602 21.2658Z" fill="#E3E3E3"/>
<path fill-rule="evenodd" clip-rule="evenodd" d="M59.1068 4.24926H56.1461L42.2233 18.2835V12.7575L50.6602 4.24926L46.4418 0H63.3253L59.1068 4.24926Z" fill="#E3E3E3"/>
<path fill-rule="evenodd" clip-rule="evenodd" d="M17.2221 42.5316H11.7362L37.9952 15.7398V12.7576L42.2233 8.5083V25.5151L37.9952 21.2658L17.2221 42.5316Z" fill="#B9B9B9"/>
<path fill-rule="evenodd" clip-rule="evenodd" d="M37.9952 12.7576H35.0442L5.48593 42.5316H0L29.5582 12.7576L25.3301 8.5083H42.2233L37.9952 12.7576Z" fill="#B9B9B9"/>
</g>
<defs>
<clipPath id="clip0_13428_2348">
<rect width="76" height="66" fill="white"/>
</clipPath>
</defs>
</svg>
