<svg width="145" height="43" viewBox="0 0 145 43" fill="none" xmlns="http://www.w3.org/2000/svg">
<path d="M30.8612 13.6509L25.1848 19.3062L27.3705 21.4838L33.0795 15.8285L30.8612 13.6509Z" fill="#EBEBEB"/>
<path d="M19.3781 25.0913L13.7017 30.7466L15.8875 32.9567L21.5639 27.2689L19.3781 25.0913Z" fill="#BBBBBB"/>
<path d="M23.7828 17.9084L29.4592 12.2206L27.2734 10.043L21.5644 15.6983L23.7828 17.9084Z" fill="#BBBBBB"/>
<path d="M17.9748 23.6935L15.7564 21.4834L10.08 27.1712L12.2658 29.3488L17.9748 23.6935Z" fill="#EBEBEB"/>
<path d="M17.9748 19.3062L12.2658 13.6509L10.08 15.8285L15.7564 21.4838L17.9748 19.3062Z" fill="#EBEBEB"/>
<path d="M19.3781 17.9084L21.5639 15.6983L15.8875 10.043L13.7017 12.2206L19.3781 17.9084Z" fill="#BBBBBB"/>
<path d="M25.1848 23.6935L30.8612 29.3488L33.0795 27.1712L27.3705 21.4834L25.1848 23.6935Z" fill="#EBEBEB"/>
<path d="M29.4592 30.7466L23.7828 25.0913L21.5644 27.2689L27.2734 32.9567L29.4592 30.7466Z" fill="#BBBBBB"/>
<path d="M29.4587 35.1347L27.2729 32.957L21.5639 38.6123L15.8875 32.957L13.7017 35.1347L21.5639 43.0001L29.4587 35.1347Z" fill="#BBBBBB"/>
<path d="M10.0805 15.8285L7.89478 13.6509L0 21.4838L7.89478 29.3492L10.0805 27.1716L4.40412 21.4838L10.0805 15.8285Z" fill="#EBEBEB"/>
<path d="M35.2651 13.6509L33.0793 15.8285L38.7558 21.4838L33.0793 27.1716L35.2651 29.3492L43.1599 21.4838L35.2651 13.6509Z" fill="#EBEBEB"/>
<path d="M27.2729 10.043L29.4587 7.86544L21.5639 0L13.7017 7.86544L15.8875 10.043L21.5639 4.38774L27.2729 10.043Z" fill="#BBBBBB"/>
<path d="M60.6875 21.6042C61.3803 21.052 61.9345 20.2237 62.1424 19.1884V19.1194L60.6875 18.7743V18.8433C60.4797 19.6026 60.2026 20.2238 59.7176 20.6379C59.2327 21.052 58.6092 21.2591 57.9164 21.2591C57.3622 21.2591 56.8079 21.121 56.323 20.8449C55.8381 20.5689 55.4917 20.0857 55.2145 19.5335C54.9374 18.9124 54.8682 18.2222 54.8682 17.4629C54.8682 16.8417 54.9374 16.2206 55.1453 15.6684C55.3531 15.1163 55.6995 14.6331 56.1844 14.288C56.6694 13.9429 57.2929 13.8049 57.9857 13.8049C58.6092 13.8049 59.1634 13.9429 59.5791 14.288C59.9947 14.5641 60.3411 15.0472 60.549 15.7374V15.8065L62.0038 15.4614V15.3923C61.7267 14.4951 61.2417 13.8049 60.549 13.3217C59.8562 12.8386 59.0248 12.5625 58.055 12.5625C57.1543 12.5625 56.3923 12.7696 55.6302 13.1147C54.9374 13.5288 54.3139 14.0809 53.9676 14.8402C53.5519 15.5994 53.3441 16.4966 53.3441 17.4629C53.3441 18.3602 53.5519 19.2575 53.8983 20.0857C54.2447 20.914 54.7989 21.5351 55.4224 21.9493C56.1152 22.3634 56.9465 22.5705 58.055 22.5705C59.0941 22.4324 59.9947 22.1563 60.6875 21.6042Z" fill="#BBBBBB"/>
<path d="M75.6505 20.0851C76.0662 19.3259 76.274 18.4286 76.274 17.4623C76.274 16.496 76.0661 15.6678 75.7198 14.8395C75.3041 14.0803 74.7498 13.4592 74.0571 13.045C73.295 12.6309 72.4637 12.4238 71.5631 12.4238C70.1775 12.4238 68.9998 12.907 68.0992 13.8042C67.1986 14.7015 66.7829 16.0129 66.7829 17.6004C66.7829 18.4286 66.9907 19.2568 67.3371 20.0161C67.6835 20.7753 68.307 21.3965 68.9998 21.8106C69.7618 22.2248 70.5932 22.5008 71.4938 22.5008C72.3944 22.5008 73.1565 22.2938 73.9185 21.8796C74.6113 21.4655 75.2348 20.8443 75.6505 20.0851ZM71.4938 21.1894C70.5932 21.1894 69.7618 20.8443 69.1383 20.2231C68.5148 19.6019 68.2377 18.7047 68.2377 17.5314C68.2377 16.1509 68.5841 15.1156 69.2076 14.4944C69.8311 13.8733 70.5932 13.5972 71.4938 13.5972C72.1173 13.5972 72.6715 13.7352 73.2258 14.0803C73.7107 14.3564 74.1264 14.8395 74.3342 15.3917C74.6113 15.9439 74.7498 16.6341 74.7498 17.3933C74.7498 18.5667 74.4727 19.5329 73.8492 20.1541C73.2257 20.8443 72.3944 21.1894 71.4938 21.1894Z" fill="#BBBBBB"/>
<path d="M90.7542 12.7002H89.3687V22.4321H90.7542V12.7002Z" fill="#BBBBBB"/>
<path d="M86.6679 22.4319L88.8848 16.2891V12.8381L86.5293 19.464C86.3215 20.0162 86.1829 20.4303 86.1137 20.7754L85.698 19.6021L83.3425 12.769H83.204V16.2891L85.3516 22.5009H86.6679V22.4319Z" fill="#BBBBBB"/>
<path d="M82.6492 12.7002H81.2637V22.4321H82.6492V12.7002Z" fill="#BBBBBB"/>
<path d="M102.601 17.6697C103.155 17.1175 103.432 16.3583 103.432 15.53C103.432 15.0469 103.363 14.5638 103.155 14.2187C102.947 13.8045 102.67 13.4594 102.324 13.2524C101.977 13.0453 101.562 12.8382 101.077 12.7692C100.73 12.7002 100.245 12.7002 99.5525 12.7002H97.7513V14.0116H99.6218C100.176 14.0116 100.592 14.0116 100.8 14.0806C101.146 14.1496 101.354 14.3567 101.562 14.6328C101.769 14.9088 101.839 15.254 101.839 15.5991C101.839 16.1512 101.7 16.4963 101.354 16.8414C101.007 17.1175 100.453 17.2555 99.6218 17.2555H97.682V18.5669H99.6218C101.077 18.5669 102.116 18.2909 102.601 17.6697Z" fill="#BBBBBB"/>
<path d="M97.2668 12.7002H95.812V22.4321H97.2668V12.7002Z" fill="#BBBBBB"/>
<path d="M113.825 12.7002H112.301L108.49 22.4321H110.015L110.43 21.3277L111.539 18.3599L111.747 17.7387L112.578 15.5991C112.786 15.1159 112.924 14.6327 112.994 14.1496C113.132 14.6327 113.34 15.1849 113.617 15.8061L114.587 18.3599H112.093L111.677 19.5332H115.072L116.18 22.4321H117.843L113.825 12.7002Z" fill="#BBBBBB"/>
<path d="M129.203 19.9473V22.4321H130.658V12.7002H129.273V20.0163L129.203 19.9473Z" fill="#BBBBBB"/>
<path d="M124.216 12.7002H122.83V22.4321H124.216V12.7002Z" fill="#BBBBBB"/>
<path d="M128.719 19.1883L124.7 13.3906V15.8063L128.719 21.6731V19.1883Z" fill="#BBBBBB"/>
<path d="M143.266 12.7002L141.326 15.53C140.98 16.0822 140.633 16.6343 140.356 17.1175L139.525 18.3599V22.4321H140.98V18.3599L144.929 12.7692H143.266V12.7002Z" fill="#BBBBBB"/>
<path d="M139.456 15.6681L137.516 12.7002H135.715L139.248 17.8767L140.079 16.6344L139.456 15.6681Z" fill="#BBBBBB"/>
<path d="M54.9386 30.3008V27.2639H55.9084V26.7808H53.4144V27.2639H54.3843V30.3008H54.9386Z" fill="#BBBBBB"/>
<path d="M60.2015 26.7808H59.7858L58.4695 30.3008H59.0238L59.3009 29.5416H60.6172L60.8943 30.3008H61.4485L60.2015 26.7808ZM59.5087 29.0585L59.9936 27.54L60.4786 29.0585H59.5087Z" fill="#BBBBBB"/>
<path d="M65.3979 27.5402C65.4672 27.4711 65.5364 27.4021 65.6057 27.3331C65.675 27.2641 65.8135 27.2641 65.9521 27.2641C66.0906 27.2641 66.2985 27.3331 66.3678 27.4021C66.5063 27.4711 66.5756 27.6092 66.5756 27.7472H67.1298C67.0605 27.4711 66.922 27.1951 66.7142 26.988C66.5063 26.781 66.2292 26.7119 65.8828 26.7119C65.6057 26.7119 65.3979 26.7809 65.19 26.919C64.9822 27.057 64.8437 27.1951 64.7744 27.3331C64.7051 27.4021 64.7051 27.5402 64.6358 27.6782C64.6358 27.8163 64.5665 28.0923 64.5665 28.5064C64.5665 28.9206 64.5665 29.1966 64.6358 29.3347C64.6358 29.4037 64.6358 29.4727 64.7051 29.5417C64.7051 29.6108 64.7744 29.6108 64.7744 29.6798C64.8437 29.8178 64.9822 29.9559 65.19 30.0939C65.3979 30.232 65.6057 30.301 65.8828 30.301C66.2292 30.301 66.5756 30.1629 66.7834 29.9559C66.9913 29.7488 67.1298 29.4037 67.1298 29.0586V28.3684H65.8828V28.8515H66.5756V29.0586C66.5756 29.2657 66.5063 29.4727 66.3678 29.6108C66.2292 29.7488 66.0906 29.8178 65.8828 29.8178C65.7443 29.8178 65.675 29.8178 65.5364 29.7488C65.4671 29.6798 65.3979 29.6108 65.3286 29.5417C65.2593 29.4727 65.19 29.3347 65.19 29.2657C65.19 29.1276 65.1208 28.9206 65.1208 28.5755C65.1208 28.2304 65.1207 28.0233 65.19 27.8853C65.2593 27.7472 65.3286 27.6092 65.3979 27.5402Z" fill="#BBBBBB"/>
<path d="M70.8016 26.7808V30.3008H73.0185V29.8177H71.2865V26.7808H70.8016Z" fill="#BBBBBB"/>
<path d="M77.1064 26.7808H76.5522V30.3008H77.1064V26.7808Z" fill="#BBBBBB"/>
<path d="M81.3335 27.8161L82.9269 30.3008H83.4118V26.7808H82.9269V29.3345H82.8576L81.2642 26.7808H80.7792V30.3008H81.3335V27.8161Z" fill="#BBBBBB"/>
<path d="M89.4384 27.333V26.7808H87.1523V30.3008H89.4384V29.8177H87.7065V28.7824H89.1614V28.2992H87.7065V27.333H89.4384Z" fill="#BBBBBB"/>
<path d="M97.059 29.5416C97.059 29.6106 97.1283 29.6106 97.1283 29.6796C97.1976 29.8177 97.3361 29.9557 97.544 30.0938C97.7518 30.2318 97.9596 30.3008 98.2368 30.3008C98.5831 30.3008 98.9295 30.1628 99.1374 29.9557C99.3452 29.7487 99.4838 29.4036 99.4838 29.0585V28.3683H98.2368V28.8514H98.9295V29.0585C98.9295 29.2655 98.8603 29.4726 98.7217 29.6106C98.5832 29.7487 98.4446 29.8177 98.2368 29.8177C98.0982 29.8177 98.0289 29.8177 97.8904 29.7487C97.8211 29.6797 97.7518 29.6106 97.6825 29.5416C97.6133 29.4726 97.544 29.3345 97.544 29.2655C97.544 29.1275 97.4747 28.9204 97.4747 28.5753C97.4747 28.2302 97.4747 28.0232 97.544 27.8851C97.544 27.7471 97.6133 27.678 97.6825 27.609C97.7518 27.54 97.8211 27.471 97.8904 27.402C97.9596 27.3329 98.0982 27.333 98.2368 27.333C98.3753 27.333 98.5831 27.4019 98.6524 27.471C98.791 27.54 98.8603 27.678 98.8603 27.8161H99.4145C99.3452 27.54 99.2066 27.2639 98.9988 27.0569C98.791 26.8498 98.5139 26.7808 98.1675 26.7808C97.8904 26.7808 97.6825 26.8498 97.4747 26.9879C97.2669 27.1259 97.1283 27.2639 97.059 27.402C96.9897 27.471 96.9897 27.609 96.9205 27.7471C96.9205 27.8851 96.8512 28.1612 96.8512 28.5753C96.8512 28.9894 96.8512 29.2655 96.9205 29.4036C96.9897 29.4726 96.9897 29.5416 97.059 29.5416Z" fill="#BBBBBB"/>
<path d="M103.016 29.5417C103.016 29.6108 103.086 29.6108 103.086 29.6798C103.155 29.8178 103.294 29.9559 103.501 30.0939C103.709 30.232 103.917 30.301 104.194 30.301C104.471 30.301 104.679 30.232 104.887 30.0939C105.095 29.9559 105.233 29.8178 105.303 29.6798C105.372 29.6108 105.372 29.4727 105.441 29.3347C105.441 29.1966 105.441 28.9206 105.441 28.5064C105.441 28.0923 105.441 27.8163 105.441 27.6782C105.441 27.5402 105.372 27.4021 105.303 27.3331C105.233 27.1951 105.095 27.057 104.887 26.919C104.679 26.7809 104.471 26.7119 104.194 26.7119C103.917 26.7119 103.709 26.7809 103.501 26.919C103.294 27.057 103.155 27.1951 103.086 27.3331C103.016 27.4021 103.016 27.5402 102.947 27.6782C102.947 27.8163 102.878 28.0923 102.878 28.5064C102.878 28.9206 102.878 29.1966 102.947 29.3347C103.016 29.4727 103.016 29.5417 103.016 29.5417ZM103.501 27.8853C103.501 27.7472 103.571 27.6782 103.64 27.6092C103.709 27.5402 103.778 27.4711 103.848 27.4021C103.917 27.3331 104.056 27.3331 104.194 27.3331C104.333 27.3331 104.402 27.3331 104.541 27.4021C104.61 27.4711 104.679 27.5402 104.748 27.6092C104.818 27.6782 104.887 27.8162 104.887 27.8853C104.887 28.0233 104.956 28.2304 104.956 28.5755C104.956 28.9206 104.956 29.1276 104.887 29.2657C104.887 29.4037 104.818 29.4727 104.748 29.5417C104.679 29.6108 104.61 29.6798 104.541 29.7488C104.471 29.8178 104.333 29.8178 104.194 29.8178C104.056 29.8178 103.986 29.8178 103.848 29.7488C103.778 29.6798 103.709 29.6108 103.64 29.5417C103.571 29.4727 103.501 29.3347 103.501 29.2657C103.501 29.1276 103.432 28.9206 103.432 28.5755C103.501 28.2304 103.501 27.9543 103.501 27.8853Z" fill="#BBBBBB"/>
<path d="M111.33 27.333V26.7808H109.113V30.3008H111.33V29.8177H109.598V28.7824H111.053V28.2992H109.598V27.333H111.33Z" fill="#BBBBBB"/>
<path d="M115.901 29.8178C115.485 29.8178 115.208 29.6798 114.931 29.4727L114.585 29.8868C114.931 30.2319 115.416 30.37 115.901 30.37C116.732 30.37 117.148 30.0249 117.148 29.3347C117.148 29.0586 117.079 28.8515 116.94 28.6445C116.802 28.4374 116.525 28.3684 116.178 28.2994C116.04 28.2994 115.901 28.2304 115.762 28.2304C115.555 28.2304 115.485 28.1614 115.416 28.0233C115.347 27.9543 115.277 27.8162 115.277 27.7472C115.277 27.6092 115.347 27.4712 115.485 27.3331C115.624 27.2641 115.762 27.1951 115.901 27.1951C116.247 27.1951 116.525 27.2641 116.802 27.4711L117.079 27.057C116.732 26.85 116.386 26.7119 115.901 26.7119C115.555 26.7119 115.278 26.781 115.07 26.988C114.862 27.1951 114.793 27.4021 114.793 27.7472C114.793 28.0233 114.862 28.2304 115.07 28.3684C115.208 28.5755 115.485 28.6445 115.762 28.7135C115.901 28.7135 116.109 28.7825 116.247 28.7825C116.525 28.8515 116.732 28.9896 116.732 29.2657C116.525 29.6798 116.317 29.8178 115.901 29.8178Z" fill="#BBBBBB"/>
<path d="M127.263 30.3008V26.7808H126.778V28.2992H125.323V26.7808H124.838V30.3008H125.323V28.7824H126.778V30.3008H127.263Z" fill="#BBBBBB"/>
<path d="M133.292 27.333V26.7808H131.006V30.3008H133.292V29.8177H131.56V28.7824H133.015V28.2992H131.56V27.333H133.292Z" fill="#BBBBBB"/>
<path d="M139.178 27.8154C139.178 27.4703 139.04 27.2632 138.832 27.0562C138.624 26.9181 138.416 26.8491 138.139 26.8491H136.754V30.3691H137.308V28.8507H138.001L138.763 30.3691H139.386L138.555 28.7817C138.971 28.5746 139.178 28.2985 139.178 27.8154ZM138.555 28.1605C138.486 28.2985 138.278 28.2986 138.07 28.3676H137.239V27.3323H138.07C138.209 27.3323 138.347 27.4013 138.486 27.4703C138.624 27.5393 138.694 27.6774 138.694 27.8844C138.694 27.9534 138.624 28.0915 138.555 28.1605Z" fill="#BBBBBB"/>
<path d="M145 27.333V26.7808H142.783V30.3008H145V29.8177H143.268V28.7824H144.792V28.2992H143.268V27.333H145Z" fill="#BBBBBB"/>
</svg>
