<svg width="73" height="68" viewBox="0 0 73 68" fill="none" xmlns="http://www.w3.org/2000/svg">
<path d="M20.6716 1.87703C20.6716 2.24817 20.5616 2.61098 20.3554 2.91957C20.1492 3.22817 19.8561 3.46869 19.5132 3.61072C19.1703 3.75275 18.793 3.78991 18.429 3.7175C18.065 3.6451 17.7306 3.46637 17.4682 3.20394C17.2058 2.9415 17.027 2.60713 16.9546 2.24312C16.8822 1.87911 16.9194 1.5018 17.0614 1.15891C17.2035 0.816015 17.444 0.52294 17.7526 0.316744C18.0612 0.110547 18.424 0.000490429 18.7951 0.000490429C19.0417 0.000117173 19.2858 0.0484004 19.5137 0.142573C19.7415 0.236745 19.9485 0.374956 20.1229 0.549282C20.2972 0.723609 20.4354 0.930625 20.5296 1.15847C20.6237 1.38631 20.672 1.63049 20.6716 1.87703Z" fill="#E3E3E3"/>
<path d="M29.6085 1.87703C29.6085 2.24829 29.4984 2.61121 29.2921 2.91987C29.0858 3.22852 28.7925 3.46904 28.4495 3.61099C28.1064 3.75293 27.729 3.78993 27.3649 3.71729C27.0008 3.64466 26.6664 3.46565 26.4041 3.20293C26.1418 2.94021 25.9633 2.60558 25.8912 2.24138C25.8191 1.87718 25.8567 1.49978 25.9991 1.15694C26.1416 0.814098 26.3826 0.52122 26.6915 0.315365C27.0005 0.10951 27.3636 -7.0399e-05 27.7348 0.000490423C27.9811 0.000490141 28.225 0.0490486 28.4525 0.143388C28.68 0.237728 28.8867 0.375997 29.0608 0.550286C29.2348 0.724576 29.3727 0.931466 29.4667 1.15912C29.5607 1.38678 29.6089 1.63073 29.6085 1.87703Z" fill="#E3E3E3"/>
<path d="M47.4845 1.87703C47.4845 2.24817 47.3745 2.61098 47.1683 2.91957C46.9621 3.22817 46.669 3.46869 46.3261 3.61072C45.9832 3.75275 45.6059 3.78991 45.2419 3.7175C44.8779 3.6451 44.5435 3.46637 44.2811 3.20394C44.0186 2.9415 43.8399 2.60713 43.7675 2.24312C43.6951 1.87911 43.7323 1.5018 43.8743 1.15891C44.0163 0.816015 44.2568 0.52294 44.5654 0.316744C44.874 0.110547 45.2368 0.000490429 45.608 0.000490429C45.8545 0.000117173 46.0987 0.0484004 46.3265 0.142573C46.5544 0.236745 46.7614 0.374956 46.9357 0.549282C47.1101 0.723609 47.2483 0.930625 47.3424 1.15847C47.4366 1.38631 47.4849 1.63049 47.4845 1.87703Z" fill="#E3E3E3"/>
<path d="M56.4214 1.87703C56.4214 2.24829 56.3113 2.61121 56.105 2.91987C55.8986 3.22852 55.6054 3.46904 55.2623 3.61099C54.9193 3.75293 54.5418 3.78993 54.1777 3.71729C53.8136 3.64466 53.4793 3.46565 53.217 3.20293C52.9546 2.94021 52.7761 2.60558 52.704 2.24138C52.632 1.87718 52.6695 1.49978 52.812 1.15694C52.9545 0.814098 53.1954 0.52122 53.5044 0.315365C53.8134 0.10951 54.1764 -7.0399e-05 54.5477 0.000490423C54.794 0.000490141 55.0379 0.0490486 55.2654 0.143388C55.4929 0.237728 55.6996 0.375997 55.8736 0.550286C56.0476 0.724576 56.1856 0.931466 56.2796 1.15912C56.3736 1.38678 56.4218 1.63073 56.4214 1.87703Z" fill="#E3E3E3"/>
<path d="M20.6716 10.8853C20.6716 11.2565 20.5616 11.6193 20.3554 11.9279C20.1492 12.2365 19.8561 12.477 19.5132 12.619C19.1703 12.761 18.793 12.7982 18.429 12.7258C18.065 12.6534 17.7306 12.4747 17.4682 12.2122C17.2058 11.9498 17.027 11.6154 16.9546 11.2514C16.8822 10.8874 16.9194 10.5101 17.0614 10.1672C17.2035 9.82432 17.444 9.53124 17.7526 9.32504C18.0612 9.11885 18.424 9.00879 18.7951 9.00879C19.0417 9.00842 19.2858 9.0567 19.5137 9.15087C19.7415 9.24505 19.9485 9.38326 20.1229 9.55758C20.2972 9.73191 20.4354 9.93893 20.5296 10.1668C20.6237 10.3946 20.672 10.6388 20.6716 10.8853Z" fill="#E3E3E3"/>
<path d="M29.6085 10.8853C29.6085 11.2566 29.4984 11.6195 29.2921 11.9282C29.0858 12.2368 28.7925 12.4773 28.4495 12.6193C28.1064 12.7612 27.729 12.7982 27.3649 12.7256C27.0008 12.653 26.6664 12.474 26.4041 12.2112C26.1418 11.9485 25.9633 11.6139 25.8912 11.2497C25.8191 10.8855 25.8567 10.5081 25.9991 10.1652C26.1416 9.8224 26.3826 9.52952 26.6915 9.32367C27.0005 9.11781 27.3636 9.00823 27.7348 9.00879C27.9811 9.00879 28.225 9.05735 28.4525 9.15169C28.68 9.24603 28.8867 9.3843 29.0608 9.55859C29.2348 9.73288 29.3727 9.93977 29.4667 10.1674C29.5607 10.3951 29.6089 10.639 29.6085 10.8853Z" fill="#E3E3E3"/>
<path d="M56.4214 10.8853C56.4214 11.2566 56.3113 11.6195 56.105 11.9282C55.8986 12.2368 55.6054 12.4773 55.2623 12.6193C54.9193 12.7612 54.5418 12.7982 54.1777 12.7256C53.8136 12.653 53.4793 12.474 53.217 12.2112C52.9546 11.9485 52.7761 11.6139 52.704 11.2497C52.632 10.8855 52.6695 10.5081 52.812 10.1652C52.9545 9.8224 53.1954 9.52952 53.5044 9.32367C53.8134 9.11781 54.1764 9.00823 54.5477 9.00879C54.794 9.00879 55.0379 9.05735 55.2654 9.15169C55.4929 9.24603 55.6996 9.3843 55.8736 9.55859C56.0476 9.73288 56.1856 9.93977 56.2796 10.1674C56.3736 10.3951 56.4218 10.639 56.4214 10.8853Z" fill="#E3E3E3"/>
<path d="M20.6716 19.8941C20.6716 20.2653 20.5616 20.6281 20.3554 20.9367C20.1492 21.2453 19.8561 21.4858 19.5132 21.6278C19.1703 21.7698 18.793 21.807 18.429 21.7346C18.065 21.6622 17.7306 21.4835 17.4682 21.221C17.2058 20.9586 17.027 20.6242 16.9546 20.2602C16.8822 19.8962 16.9194 19.5189 17.0614 19.176C17.2035 18.8331 17.444 18.54 17.7526 18.3338C18.0612 18.1276 18.424 18.0176 18.7951 18.0176C19.0417 18.0172 19.2858 18.0655 19.5137 18.1597C19.7415 18.2538 19.9485 18.392 20.1229 18.5664C20.2972 18.7407 20.4354 18.9477 20.5296 19.1756C20.6237 19.4034 20.672 19.6476 20.6716 19.8941Z" fill="#E3E3E3"/>
<path d="M19.3106 28.9028H18.2816V37.9113H19.3106V28.9028Z" fill="#B9B9B9"/>
<path d="M28.2486 19.894H27.2196V37.9111H28.2486V19.894Z" fill="#B9B9B9"/>
<path d="M37.1855 1.87695H36.1565V37.9138H37.1855V1.87695Z" fill="#B9B9B9"/>
<path d="M46.1235 10.8857H45.0945V37.9113H46.1235V10.8857Z" fill="#B9B9B9"/>
<path d="M55.0636 19.894H54.0347V37.9111H55.0636V19.894Z" fill="#B9B9B9"/>
<path d="M34.7968 10.8853C34.7968 11.2565 34.9068 11.6193 35.113 11.9279C35.3192 12.2365 35.6123 12.477 35.9552 12.619C36.2981 12.761 36.6754 12.7982 37.0394 12.7258C37.4034 12.6534 37.7378 12.4747 38.0002 12.2122C38.2626 11.9498 38.4414 11.6154 38.5138 11.2514C38.5862 10.8874 38.549 10.5101 38.407 10.1672C38.265 9.82432 38.0244 9.53124 37.7158 9.32504C37.4072 9.11885 37.0444 9.00879 36.6733 9.00879C36.4268 9.00842 36.1826 9.0567 35.9547 9.15087C35.7269 9.24505 35.5199 9.38326 35.3455 9.55758C35.1712 9.73191 35.033 9.93893 34.9388 10.1668C34.8447 10.3946 34.7964 10.6388 34.7968 10.8853Z" fill="#B9B9B9"/>
<path d="M25.8588 19.8941C25.8588 20.2653 25.9688 20.6281 26.175 20.9367C26.3812 21.2453 26.6743 21.4858 27.0172 21.6278C27.3601 21.7698 27.7374 21.807 28.1014 21.7346C28.4654 21.6622 28.7998 21.4835 29.0622 21.221C29.3247 20.9586 29.5034 20.6242 29.5758 20.2602C29.6482 19.8962 29.611 19.5189 29.469 19.176C29.327 18.8331 29.0864 18.54 28.7778 18.3338C28.4693 18.1276 28.1064 18.0176 27.7353 18.0176C27.4888 18.0172 27.2446 18.0655 27.0167 18.1597C26.7889 18.2538 26.5819 18.392 26.4076 18.5664C26.2332 18.7407 26.095 18.9477 26.0008 19.1756C25.9067 19.4034 25.8584 19.6476 25.8588 19.8941Z" fill="#B9B9B9"/>
<path d="M34.7968 19.8941C34.7968 20.2653 34.9068 20.6281 35.113 20.9367C35.3192 21.2453 35.6123 21.4858 35.9552 21.6278C36.2981 21.7698 36.6754 21.807 37.0394 21.7346C37.4034 21.6622 37.7378 21.4835 38.0002 21.221C38.2626 20.9586 38.4414 20.6242 38.5138 20.2602C38.5862 19.8962 38.549 19.5189 38.407 19.176C38.265 18.8331 38.0244 18.54 37.7158 18.3338C37.4072 18.1276 37.0444 18.0176 36.6733 18.0176C36.4268 18.0172 36.1826 18.0655 35.9547 18.1597C35.7269 18.2538 35.5199 18.392 35.3455 18.5664C35.1712 18.7407 35.033 18.9477 34.9388 19.1756C34.8447 19.4034 34.7964 19.6476 34.7968 19.8941Z" fill="#B9B9B9"/>
<path d="M52.6716 19.8941C52.6716 20.2653 52.7817 20.6281 52.9879 20.9367C53.1941 21.2453 53.4872 21.4858 53.8301 21.6278C54.1729 21.7698 54.5503 21.807 54.9143 21.7346C55.2783 21.6622 55.6126 21.4835 55.8751 21.221C56.1375 20.9586 56.3162 20.6242 56.3886 20.2602C56.4611 19.8962 56.4239 19.5189 56.2819 19.176C56.1398 18.8331 55.8993 18.54 55.5907 18.3338C55.2821 18.1276 54.9193 18.0176 54.5482 18.0176C54.3016 18.0172 54.0574 18.0655 53.8296 18.1597C53.6018 18.2538 53.3948 18.392 53.2204 18.5664C53.0461 18.7407 52.9079 18.9477 52.8137 19.1756C52.7195 19.4034 52.6713 19.6476 52.6716 19.8941Z" fill="#B9B9B9"/>
<path d="M16.9208 28.9142C16.9202 29.2856 17.0299 29.6488 17.2359 29.9578C17.4418 30.2669 17.7349 30.5078 18.0779 30.6502C18.4209 30.7926 18.7984 30.83 19.1627 30.7577C19.527 30.6854 19.8616 30.5066 20.1242 30.244C20.3868 29.9814 20.5656 29.6467 20.6379 29.2825C20.7102 28.9182 20.6728 28.5406 20.5305 28.1976C20.3881 27.8546 20.1471 27.5616 19.8381 27.3556C19.5291 27.1496 19.1659 27.04 18.7945 27.0405C18.2978 27.0413 17.8216 27.2389 17.4704 27.5902C17.1192 27.9414 16.9215 28.4175 16.9208 28.9142Z" fill="#B9B9B9"/>
<path d="M25.8588 28.9142C25.8582 29.2855 25.9678 29.6486 26.1736 29.9575C26.3795 30.2665 26.6724 30.5075 27.0152 30.6499C27.3581 30.7924 27.7355 30.83 28.0997 30.7579C28.4639 30.6858 28.7985 30.5073 29.0612 30.245C29.3239 29.9827 29.5029 29.6483 29.5756 29.2842C29.6482 28.9201 29.6112 28.5427 29.4693 28.1996C29.3273 27.8565 29.0868 27.5633 28.7781 27.357C28.4695 27.1507 28.1066 27.0405 27.7353 27.0405C27.2381 27.0405 26.7612 27.2378 26.4094 27.5891C26.0576 27.9405 25.8595 28.417 25.8588 28.9142Z" fill="#B9B9B9"/>
<path d="M34.7968 28.9142C34.7962 29.2855 34.9058 29.6486 35.1116 29.9575C35.3175 30.2665 35.6104 30.5075 35.9532 30.6499C36.296 30.7924 36.6734 30.83 37.0376 30.7579C37.4018 30.6858 37.7365 30.5073 37.9992 30.245C38.2619 29.9827 38.4409 29.6483 38.5136 29.2842C38.5862 28.9201 38.5492 28.5427 38.4073 28.1996C38.2653 27.8565 38.0248 27.5633 37.7161 27.357C37.4075 27.1507 37.0446 27.0405 36.6733 27.0405C36.1761 27.0405 35.6992 27.2378 35.3474 27.5891C34.9955 27.9405 34.7975 28.417 34.7968 28.9142Z" fill="#B9B9B9"/>
<path d="M43.7336 28.9142C43.7331 29.2856 43.8427 29.6488 44.0487 29.9578C44.2547 30.2669 44.5477 30.5078 44.8908 30.6502C45.2338 30.7926 45.6113 30.83 45.9756 30.7577C46.3399 30.6854 46.6745 30.5066 46.9371 30.244C47.1997 29.9814 47.3785 29.6467 47.4508 29.2825C47.5231 28.9182 47.4857 28.5406 47.3433 28.1976C47.2009 27.8546 46.96 27.5616 46.651 27.3556C46.3419 27.1496 45.9787 27.04 45.6073 27.0405C45.1106 27.0413 44.6345 27.2389 44.2833 27.5902C43.932 27.9414 43.7344 28.4175 43.7336 28.9142Z" fill="#B9B9B9"/>
<path d="M52.6716 28.9142C52.6711 29.2855 52.7807 29.6486 52.9865 29.9575C53.1924 30.2665 53.4852 30.5075 53.8281 30.6499C54.1709 30.7924 54.5483 30.83 54.9125 30.7579C55.2767 30.6858 55.6114 30.5073 55.8741 30.245C56.1368 29.9827 56.3158 29.6483 56.3884 29.2842C56.4611 28.9201 56.4241 28.5427 56.2821 28.1996C56.1402 27.8565 55.8997 27.5633 55.591 27.357C55.2824 27.1507 54.9194 27.0405 54.5482 27.0405C54.051 27.0405 53.5741 27.2378 53.2223 27.5891C52.8704 27.9405 52.6724 28.417 52.6716 28.9142Z" fill="#B9B9B9"/>
<path d="M16.9208 37.9113C16.9202 38.2827 17.0299 38.6459 17.2359 38.9549C17.4418 39.2639 17.7349 39.5049 18.0779 39.6473C18.4209 39.7897 18.7984 39.8271 19.1627 39.7547C19.527 39.6824 19.8616 39.5037 20.1242 39.241C20.3868 38.9784 20.5656 38.6438 20.6379 38.2795C20.7102 37.9153 20.6728 37.5377 20.5305 37.1947C20.3881 36.8517 20.1471 36.5587 19.8381 36.3527C19.5291 36.1467 19.1659 36.037 18.7945 36.0376C18.2978 36.0383 17.8216 36.236 17.4704 36.5872C17.1192 36.9384 16.9215 37.4146 16.9208 37.9113Z" fill="#B9B9B9"/>
<path d="M25.8588 37.9113C25.8582 38.2826 25.9678 38.6456 26.1736 38.9546C26.3795 39.2636 26.6724 39.5045 27.0152 39.647C27.3581 39.7895 27.7355 39.827 28.0997 39.755C28.4639 39.6829 28.7985 39.5044 29.0612 39.242C29.3239 38.9797 29.5029 38.6454 29.5756 38.2813C29.6482 37.9172 29.6112 37.5397 29.4693 37.1967C29.3273 36.8536 29.0868 36.5604 28.7781 36.354C28.4695 36.1477 28.1066 36.0376 27.7353 36.0376C27.2381 36.0376 26.7612 36.2349 26.4094 36.5862C26.0576 36.9375 25.8595 37.4141 25.8588 37.9113Z" fill="#B9B9B9"/>
<path d="M34.7968 37.9113C34.7962 38.2826 34.9058 38.6456 35.1116 38.9546C35.3175 39.2636 35.6104 39.5045 35.9532 39.647C36.296 39.7895 36.6734 39.827 37.0376 39.755C37.4018 39.6829 37.7365 39.5044 37.9992 39.242C38.2619 38.9797 38.4409 38.6454 38.5136 38.2813C38.5862 37.9172 38.5492 37.5397 38.4073 37.1967C38.2653 36.8536 38.0248 36.5604 37.7161 36.354C37.4075 36.1477 37.0446 36.0376 36.6733 36.0376C36.1761 36.0376 35.6992 36.2349 35.3474 36.5862C34.9955 36.9375 34.7975 37.4141 34.7968 37.9113Z" fill="#B9B9B9"/>
<path d="M43.7336 37.9113C43.7331 38.2827 43.8427 38.6459 44.0487 38.9549C44.2547 39.2639 44.5477 39.5049 44.8908 39.6473C45.2338 39.7897 45.6113 39.8271 45.9756 39.7547C46.3399 39.6824 46.6745 39.5037 46.9371 39.241C47.1997 38.9784 47.3785 38.6438 47.4508 38.2795C47.5231 37.9153 47.4857 37.5377 47.3433 37.1947C47.2009 36.8517 46.96 36.5587 46.651 36.3527C46.3419 36.1467 45.9787 36.037 45.6073 36.0376C45.1106 36.0383 44.6345 36.236 44.2833 36.5872C43.932 36.9384 43.7344 37.4146 43.7336 37.9113Z" fill="#B9B9B9"/>
<path d="M52.6716 37.9113C52.6711 38.2826 52.7807 38.6456 52.9865 38.9546C53.1924 39.2636 53.4852 39.5045 53.8281 39.647C54.1709 39.7895 54.5483 39.827 54.9125 39.755C55.2767 39.6829 55.6114 39.5044 55.8741 39.242C56.1368 38.9797 56.3158 38.6454 56.3884 38.2813C56.4611 37.9172 56.4241 37.5397 56.2821 37.1967C56.1402 36.8536 55.8997 36.5604 55.591 36.354C55.2824 36.1477 54.9194 36.0376 54.5482 36.0376C54.051 36.0376 53.5741 36.2349 53.2223 36.5862C52.8704 36.9375 52.6724 37.4141 52.6716 37.9113Z" fill="#B9B9B9"/>
<path d="M34.7968 1.87703C34.7968 2.24817 34.9068 2.61098 35.113 2.91957C35.3192 3.22817 35.6123 3.46869 35.9552 3.61072C36.2981 3.75275 36.6754 3.78991 37.0394 3.7175C37.4034 3.6451 37.7378 3.46637 38.0002 3.20394C38.2626 2.9415 38.4414 2.60713 38.5138 2.24312C38.5862 1.87911 38.549 1.5018 38.407 1.15891C38.265 0.816015 38.0244 0.52294 37.7158 0.316744C37.4072 0.110547 37.0444 0.000490429 36.6733 0.000490429C36.4268 0.000117173 36.1826 0.0484004 35.9547 0.142573C35.7269 0.236745 35.5199 0.374956 35.3455 0.549282C35.1712 0.723609 35.033 0.930625 34.9388 1.15847C34.8447 1.38631 34.7964 1.63049 34.7968 1.87703Z" fill="#B9B9B9"/>
<path d="M43.7336 10.8853C43.7336 11.2566 43.8438 11.6195 44.0501 11.9282C44.2564 12.2368 44.5497 12.4773 44.8927 12.6193C45.2358 12.7612 45.6132 12.7982 45.9773 12.7256C46.3414 12.653 46.6758 12.474 46.9381 12.2112C47.2004 11.9485 47.3789 11.6139 47.451 11.2497C47.5231 10.8855 47.4855 10.5081 47.3431 10.1652C47.2006 9.8224 46.9596 9.52952 46.6507 9.32367C46.3417 9.11781 45.9786 9.00823 45.6073 9.00879C45.361 9.00879 45.1172 9.05735 44.8897 9.15169C44.6621 9.24603 44.4555 9.3843 44.2814 9.55859C44.1074 9.73288 43.9695 9.93977 43.8755 10.1674C43.7815 10.3951 43.7333 10.639 43.7336 10.8853Z" fill="#E3E3E3"/>
<path d="M43.7336 19.8941C43.7336 20.2654 43.8438 20.6283 44.0501 20.937C44.2564 21.2456 44.5497 21.4861 44.8927 21.6281C45.2358 21.77 45.6132 21.807 45.9773 21.7344C46.3414 21.6617 46.6758 21.4827 46.9381 21.22C47.2004 20.9573 47.3789 20.6227 47.451 20.2585C47.5231 19.8943 47.4855 19.5169 47.3431 19.174C47.2006 18.8312 46.9596 18.5383 46.6507 18.3325C46.3417 18.1266 45.9786 18.017 45.6073 18.0176C45.361 18.0176 45.1172 18.0661 44.8897 18.1605C44.6621 18.2548 44.4555 18.3931 44.2814 18.5674C44.1074 18.7417 43.9695 18.9486 43.8755 19.1762C43.7815 19.4039 43.7333 19.6478 43.7336 19.8941Z" fill="#B9B9B9"/>
<path d="M2.21874 58.2095H0.481173L5.50676 44.5228H7.2176L12.2432 58.2095H10.5056L6.41564 46.6881H6.30871L2.21874 58.2095ZM2.86031 52.8631H9.86405V54.3334H2.86031V52.8631ZM18.3314 58.4233C17.369 58.4233 16.5403 58.1961 15.8453 57.7417C15.1503 57.2872 14.6156 56.6613 14.2414 55.8638C13.8671 55.0663 13.68 54.1551 13.68 53.1304C13.68 52.0879 13.8716 51.1679 14.2548 50.3704C14.6424 49.5684 15.1815 48.9424 15.872 48.4925C16.5671 48.038 17.3779 47.8108 18.3046 47.8108C19.0264 47.8108 19.6769 47.9444 20.256 48.2118C20.8352 48.4791 21.3097 48.8533 21.6795 49.3345C22.0493 49.8157 22.2788 50.377 22.3679 51.0186H20.7907C20.6704 50.5508 20.4031 50.1365 19.9887 49.7756C19.5788 49.4102 19.0264 49.2276 18.3314 49.2276C17.7165 49.2276 17.1774 49.388 16.7141 49.7087C16.2552 50.0251 15.8965 50.4728 15.6381 51.052C15.3842 51.6268 15.2572 52.3017 15.2572 53.077C15.2572 53.87 15.3819 54.5606 15.6314 55.1487C15.8854 55.7368 16.2418 56.1934 16.7007 56.5187C17.1641 56.8439 17.7076 57.0065 18.3314 57.0065C18.7412 57.0065 19.1133 56.9353 19.4474 56.7927C19.7816 56.6501 20.0645 56.4452 20.2961 56.1779C20.5278 55.9105 20.6927 55.5898 20.7907 55.2155H22.3679C22.2788 55.8214 22.0582 56.3672 21.7063 56.8528C21.3587 57.334 20.8976 57.7172 20.3229 58.0023C19.7526 58.283 19.0888 58.4233 18.3314 58.4233ZM28.8437 58.4233C27.8813 58.4233 27.0526 58.1961 26.3576 57.7417C25.6626 57.2872 25.1279 56.6613 24.7537 55.8638C24.3794 55.0663 24.1923 54.1551 24.1923 53.1304C24.1923 52.0879 24.3839 51.1679 24.767 50.3704C25.1547 49.5684 25.6937 48.9424 26.3843 48.4925C27.0793 48.038 27.8902 47.8108 28.8169 47.8108C29.5387 47.8108 30.1892 47.9444 30.7683 48.2118C31.3475 48.4791 31.822 48.8533 32.1918 49.3345C32.5616 49.8157 32.7911 50.377 32.8802 51.0186H31.303C31.1827 50.5508 30.9154 50.1365 30.501 49.7756C30.0911 49.4102 29.5387 49.2276 28.8437 49.2276C28.2288 49.2276 27.6897 49.388 27.2264 49.7087C26.7675 50.0251 26.4088 50.4728 26.1504 51.052C25.8965 51.6268 25.7695 52.3017 25.7695 53.077C25.7695 53.87 25.8942 54.5606 26.1437 55.1487C26.3977 55.7368 26.7541 56.1934 27.213 56.5187C27.6764 56.8439 28.2199 57.0065 28.8437 57.0065C29.2535 57.0065 29.6256 56.9353 29.9597 56.7927C30.2939 56.6501 30.5768 56.4452 30.8084 56.1779C31.0401 55.9105 31.205 55.5898 31.303 55.2155H32.8802C32.7911 55.8214 32.5705 56.3672 32.2185 56.8528C31.871 57.334 31.4099 57.7172 30.8352 58.0023C30.2649 58.283 29.6011 58.4233 28.8437 58.4233ZM41.6549 54.0126V47.9444H43.2321V58.2095H41.6549V56.4719H41.548C41.3074 56.9932 40.9331 57.4365 40.4252 57.8018C39.9173 58.1627 39.2757 58.3431 38.5005 58.3431C37.859 58.3431 37.2887 58.2028 36.7897 57.9221C36.2907 57.637 35.8986 57.2093 35.6135 56.639C35.3283 56.0642 35.1858 55.3403 35.1858 54.467V47.9444H36.763V54.3601C36.763 55.1086 36.9724 55.7056 37.3912 56.1511C37.8144 56.5967 38.3535 56.8194 39.0084 56.8194C39.4005 56.8194 39.7992 56.7192 40.2047 56.5187C40.6146 56.3182 40.9576 56.0108 41.2339 55.5964C41.5145 55.1821 41.6549 54.6541 41.6549 54.0126ZM53.3918 50.2434L51.975 50.6444C51.8859 50.4082 51.7545 50.1788 51.5807 49.956C51.4114 49.7288 51.1798 49.5417 50.8857 49.3946C50.5917 49.2476 50.2152 49.1741 49.7563 49.1741C49.1281 49.1741 48.6046 49.3189 48.1858 49.6085C47.7715 49.8936 47.5643 50.2568 47.5643 50.6978C47.5643 51.0899 47.7069 51.3995 47.992 51.6268C48.2771 51.854 48.7227 52.0433 49.3286 52.1948L50.8523 52.5691C51.7701 52.7918 52.454 53.1327 52.904 53.5915C53.354 54.046 53.579 54.6319 53.579 55.3492C53.579 55.9373 53.4096 56.463 53.071 56.9263C52.7369 57.3897 52.2691 57.755 51.6676 58.0223C51.0662 58.2897 50.3667 58.4233 49.5692 58.4233C48.5222 58.4233 47.6556 58.1961 46.9695 57.7417C46.2834 57.2872 45.849 56.6234 45.6663 55.7501L47.1633 55.3759C47.3059 55.9284 47.5754 56.3427 47.9719 56.6189C48.3729 56.8952 48.8964 57.0333 49.5424 57.0333C50.2776 57.0333 50.8612 56.8773 51.2934 56.5655C51.73 56.2491 51.9483 55.8704 51.9483 55.4294C51.9483 55.0729 51.8236 54.7744 51.5741 54.5338C51.3246 54.2888 50.9414 54.1061 50.4246 53.9858L48.7138 53.5849C47.7737 53.3621 47.0831 53.0168 46.642 52.549C46.2054 52.0767 45.9871 51.4864 45.9871 50.778C45.9871 50.1988 46.1497 49.6865 46.475 49.2409C46.8047 48.7954 47.2524 48.4457 47.8182 48.1917C48.3885 47.9378 49.0345 47.8108 49.7563 47.8108C50.7721 47.8108 51.5696 48.0336 52.1488 48.4791C52.7324 48.9246 53.1468 49.5127 53.3918 50.2434ZM58.9738 58.4501C58.3233 58.4501 57.733 58.3275 57.2028 58.0825C56.6726 57.833 56.2516 57.4743 55.9397 57.0065C55.6278 56.5343 55.4719 55.964 55.4719 55.2957C55.4719 54.7076 55.5877 54.2309 55.8194 53.8655C56.0511 53.4958 56.3607 53.2062 56.7483 52.9968C57.136 52.7874 57.5637 52.6314 58.0315 52.529C58.5037 52.422 58.9782 52.3374 59.4549 52.275C60.0787 52.1948 60.5844 52.1347 60.972 52.0946C61.364 52.05 61.6492 51.9765 61.8274 51.874C62.0101 51.7716 62.1014 51.5933 62.1014 51.3394V51.2859C62.1014 50.6265 61.921 50.1142 61.5601 49.7488C61.2036 49.3835 60.6623 49.2008 59.9361 49.2008C59.1832 49.2008 58.5928 49.3657 58.1651 49.6954C57.7374 50.0251 57.4367 50.377 57.2629 50.7513L55.7659 50.2167C56.0333 49.5929 56.3897 49.1073 56.8352 48.7598C57.2852 48.4078 57.7753 48.1628 58.3055 48.0246C58.8401 47.8821 59.3658 47.8108 59.8827 47.8108C60.2123 47.8108 60.591 47.8509 61.0188 47.9311C61.4509 48.0068 61.8675 48.165 62.2685 48.4056C62.6739 48.6462 63.0103 49.0093 63.2776 49.4949C63.5449 49.9805 63.6786 50.631 63.6786 51.4463V58.2095H62.1014V56.8194H62.0212C61.9143 57.0422 61.7361 57.2805 61.4866 57.5345C61.2371 57.7884 60.9051 58.0045 60.4908 58.1827C60.0765 58.361 59.5708 58.4501 58.9738 58.4501ZM59.2144 57.0333C59.8381 57.0333 60.3638 56.9108 60.7915 56.6657C61.2237 56.4207 61.5489 56.1043 61.7672 55.7167C61.99 55.3291 62.1014 54.9215 62.1014 54.4937V53.0502C62.0346 53.1304 61.8875 53.2039 61.6603 53.2708C61.4376 53.3331 61.1791 53.3888 60.8851 53.4378C60.5955 53.4824 60.3126 53.5225 60.0364 53.5581C59.7646 53.5893 59.544 53.6161 59.3747 53.6383C58.9649 53.6918 58.5817 53.7787 58.2253 53.899C57.8733 54.0148 57.5882 54.1908 57.3699 54.4269C57.156 54.6586 57.0491 54.9749 57.0491 55.3759C57.0491 55.9239 57.2518 56.3382 57.6572 56.6189C58.0671 56.8952 58.5862 57.0333 59.2144 57.0333ZM71.1284 47.9444V49.281H65.5949V47.9444H71.1284ZM67.2523 58.2095V46.5277C67.2523 45.9396 67.3904 45.4495 67.6666 45.0574C67.9429 44.6653 68.3015 44.3713 68.7426 44.1753C69.1837 43.9792 69.6492 43.8812 70.1393 43.8812C70.5269 43.8812 70.8433 43.9124 71.0883 43.9748C71.3333 44.0371 71.516 44.0951 71.6363 44.1485L71.1819 45.5119C71.1017 45.4851 70.9903 45.4517 70.8477 45.4116C70.7096 45.3715 70.5269 45.3515 70.2997 45.3515C69.7784 45.3515 69.402 45.4829 69.1703 45.7458C68.9431 46.0086 68.8295 46.394 68.8295 46.9019V58.2095H67.2523Z" fill="#B9B9B9"/>
<path d="M1.29006 67.0542C1.14339 67.0542 1.01028 67.0266 0.890733 66.9714C0.771184 66.9151 0.676249 66.8342 0.605926 66.7288C0.535604 66.6223 0.500443 66.4937 0.500443 66.343C0.500443 66.2104 0.526562 66.1029 0.578802 66.0205C0.631042 65.9371 0.700862 65.8718 0.788263 65.8246C0.875664 65.7774 0.972106 65.7422 1.07759 65.7191C1.18408 65.695 1.29107 65.6759 1.39856 65.6619C1.53921 65.6438 1.65323 65.6302 1.74063 65.6212C1.82904 65.6111 1.89333 65.5946 1.93352 65.5714C1.9747 65.5483 1.9953 65.5082 1.9953 65.4509V65.4388C1.9953 65.2902 1.95461 65.1746 1.87324 65.0922C1.79287 65.0099 1.67081 64.9687 1.50706 64.9687C1.33728 64.9687 1.20417 65.0059 1.10773 65.0802C1.01129 65.1545 0.943475 65.2339 0.904295 65.3183L0.566747 65.1977C0.627023 65.0571 0.707392 64.9476 0.807853 64.8692C0.909318 64.7899 1.01983 64.7346 1.13937 64.7035C1.25993 64.6713 1.37847 64.6552 1.495 64.6552C1.56935 64.6552 1.65474 64.6643 1.75118 64.6824C1.84863 64.6994 1.94256 64.7351 2.03297 64.7894C2.12439 64.8436 2.20024 64.9255 2.26052 65.035C2.32079 65.1445 2.35093 65.2912 2.35093 65.475V67H1.9953V66.6866H1.97722C1.95311 66.7368 1.91292 66.7905 1.85666 66.8478C1.80041 66.9051 1.72556 66.9538 1.63213 66.994C1.53871 67.0342 1.42468 67.0542 1.29006 67.0542ZM1.34431 66.7348C1.48496 66.7348 1.6035 66.7072 1.69994 66.6519C1.79739 66.5966 1.87073 66.5253 1.91995 66.4379C1.97018 66.3505 1.9953 66.2586 1.9953 66.1622V65.8367C1.98023 65.8547 1.94708 65.8713 1.89584 65.8864C1.84561 65.9005 1.78735 65.913 1.72104 65.9241C1.65574 65.9341 1.59195 65.9432 1.52966 65.9512C1.46838 65.9582 1.41865 65.9642 1.38048 65.9693C1.28806 65.9813 1.20166 66.0009 1.12129 66.028C1.04193 66.0542 0.977631 66.0938 0.928406 66.1471C0.880184 66.1993 0.856074 66.2707 0.856074 66.3611C0.856074 66.4846 0.901784 66.5781 0.993203 66.6414C1.08563 66.7036 1.20266 66.7348 1.34431 66.7348ZM3.94035 67.0482C3.72335 67.0482 3.53649 66.997 3.37977 66.8945C3.22306 66.792 3.1025 66.6509 3.01812 66.4711C2.93373 66.2912 2.89154 66.0858 2.89154 65.8547C2.89154 65.6197 2.93473 65.4122 3.02113 65.2324C3.10853 65.0516 3.23009 64.9104 3.3858 64.8089C3.54252 64.7065 3.72536 64.6552 3.93432 64.6552C4.09707 64.6552 4.24374 64.6854 4.37434 64.7457C4.50494 64.8059 4.61193 64.8903 4.69531 64.9988C4.77869 65.1073 4.83043 65.2339 4.85052 65.3786H4.49489C4.46777 65.2731 4.40749 65.1797 4.31406 65.0983C4.22164 65.0159 4.09707 64.9747 3.94035 64.9747C3.80171 64.9747 3.68015 65.0109 3.57567 65.0832C3.4722 65.1545 3.39133 65.2555 3.33306 65.3861C3.2758 65.5157 3.24717 65.6679 3.24717 65.8427C3.24717 66.0215 3.2753 66.1772 3.33155 66.3098C3.38882 66.4424 3.46919 66.5454 3.57266 66.6188C3.67714 66.6921 3.7997 66.7288 3.94035 66.7288C4.03277 66.7288 4.11665 66.7127 4.192 66.6805C4.26735 66.6484 4.33114 66.6022 4.38338 66.5419C4.43562 66.4816 4.47279 66.4093 4.49489 66.3249H4.85052C4.83043 66.4615 4.7807 66.5846 4.70134 66.6941C4.62298 66.8026 4.519 66.889 4.38941 66.9533C4.26082 67.0166 4.11113 67.0482 3.94035 67.0482ZM6.31072 67.0482C6.09372 67.0482 5.90687 66.997 5.75015 66.8945C5.59343 66.792 5.47288 66.6509 5.38849 66.4711C5.3041 66.2912 5.26191 66.0858 5.26191 65.8547C5.26191 65.6197 5.30511 65.4122 5.3915 65.2324C5.4789 65.0516 5.60046 64.9104 5.75618 64.8089C5.91289 64.7065 6.09573 64.6552 6.30469 64.6552C6.46744 64.6552 6.61411 64.6854 6.74471 64.7457C6.87531 64.8059 6.9823 64.8903 7.06568 64.9988C7.14906 65.1073 7.2008 65.2339 7.22089 65.3786H6.86526C6.83814 65.2731 6.77786 65.1797 6.68443 65.0983C6.59201 65.0159 6.46744 64.9747 6.31072 64.9747C6.17208 64.9747 6.05053 65.0109 5.94605 65.0832C5.84257 65.1545 5.7617 65.2555 5.70343 65.3861C5.64617 65.5157 5.61754 65.6679 5.61754 65.8427C5.61754 66.0215 5.64567 66.1772 5.70193 66.3098C5.75919 66.4424 5.83956 66.5454 5.94303 66.6188C6.04751 66.6921 6.17007 66.7288 6.31072 66.7288C6.40314 66.7288 6.48703 66.7127 6.56237 66.6805C6.63772 66.6484 6.70151 66.6022 6.75375 66.5419C6.80599 66.4816 6.84316 66.4093 6.86526 66.3249H7.22089C7.2008 66.4615 7.15107 66.5846 7.07171 66.6941C6.99335 66.8026 6.88937 66.889 6.75978 66.9533C6.63119 67.0166 6.4815 67.0482 6.31072 67.0482ZM8.68109 67.0482C8.47213 67.0482 8.28879 66.9985 8.13107 66.899C7.97435 66.7996 7.85179 66.6604 7.76338 66.4816C7.67598 66.3028 7.63228 66.0938 7.63228 65.8547C7.63228 65.6136 7.67598 65.4032 7.76338 65.2234C7.85179 65.0435 7.97435 64.9039 8.13107 64.8044C8.28879 64.705 8.47213 64.6552 8.68109 64.6552C8.89005 64.6552 9.07289 64.705 9.22961 64.8044C9.38733 64.9039 9.50989 65.0435 9.59729 65.2234C9.6857 65.4032 9.7299 65.6136 9.7299 65.8547C9.7299 66.0938 9.6857 66.3028 9.59729 66.4816C9.50989 66.6604 9.38733 66.7996 9.22961 66.899C9.07289 66.9985 8.89005 67.0482 8.68109 67.0482ZM8.68109 66.7288C8.83982 66.7288 8.97042 66.6881 9.07289 66.6067C9.17536 66.5253 9.25121 66.4183 9.30043 66.2857C9.34966 66.1531 9.37427 66.0095 9.37427 65.8547C9.37427 65.7 9.34966 65.5559 9.30043 65.4223C9.25121 65.2887 9.17536 65.1807 9.07289 65.0983C8.97042 65.0159 8.83982 64.9747 8.68109 64.9747C8.52236 64.9747 8.39176 65.0159 8.28929 65.0983C8.18682 65.1807 8.11098 65.2887 8.06175 65.4223C8.01253 65.5559 7.98791 65.7 7.98791 65.8547C7.98791 66.0095 8.01253 66.1531 8.06175 66.2857C8.11098 66.4183 8.18682 66.5253 8.28929 66.6067C8.39176 66.6881 8.52236 66.7288 8.68109 66.7288ZM11.7315 66.0537V64.6854H12.0871V67H11.7315V66.6082H11.7073C11.6531 66.7257 11.5687 66.8257 11.4542 66.9081C11.3397 66.9895 11.195 67.0301 11.0202 67.0301C10.8755 67.0301 10.7469 66.9985 10.6344 66.9352C10.5219 66.8709 10.4335 66.7745 10.3692 66.6459C10.3049 66.5163 10.2728 66.353 10.2728 66.1561V64.6854H10.6284V66.132C10.6284 66.3008 10.6756 66.4354 10.77 66.5359C10.8655 66.6363 10.987 66.6866 11.1347 66.6866C11.2231 66.6866 11.313 66.664 11.4045 66.6188C11.4969 66.5735 11.5742 66.5042 11.6365 66.4108C11.6998 66.3174 11.7315 66.1983 11.7315 66.0537ZM13.0941 65.6076V67H12.7385V64.6854H13.082V65.047H13.1122C13.1664 64.9295 13.2488 64.8351 13.3593 64.7637C13.4698 64.6914 13.6125 64.6552 13.7873 64.6552C13.944 64.6552 14.0811 64.6874 14.1987 64.7517C14.3162 64.815 14.4076 64.9114 14.4729 65.041C14.5382 65.1696 14.5709 65.3324 14.5709 65.5293V67H14.2152V65.5534C14.2152 65.3715 14.168 65.2299 14.0736 65.1284C13.9791 65.0259 13.8495 64.9747 13.6848 64.9747C13.5713 64.9747 13.4698 64.9993 13.3804 65.0485C13.292 65.0978 13.2222 65.1696 13.1709 65.264C13.1197 65.3585 13.0941 65.473 13.0941 65.6076ZM16.2273 64.6854V64.9868H15.0278V64.6854H16.2273ZM15.3774 64.1308H15.7331V66.337C15.7331 66.4374 15.7476 66.5128 15.7768 66.563C15.8069 66.6122 15.8451 66.6454 15.8913 66.6625C15.9385 66.6785 15.9882 66.6866 16.0405 66.6866C16.0797 66.6866 16.1118 66.6846 16.1369 66.6805C16.162 66.6755 16.1821 66.6715 16.1972 66.6685L16.2695 66.9879C16.2454 66.997 16.2118 67.006 16.1686 67.0151C16.1254 67.0251 16.0706 67.0301 16.0043 67.0301C15.9038 67.0301 15.8054 67.0085 15.709 66.9653C15.6135 66.9221 15.5342 66.8563 15.4709 66.7679C15.4086 66.6795 15.3774 66.568 15.3774 66.4334V64.1308ZM16.7623 67V64.6854H17.1179V67H16.7623ZM16.9431 64.2996C16.8738 64.2996 16.814 64.276 16.7638 64.2288C16.7146 64.1816 16.69 64.1248 16.69 64.0585C16.69 63.9922 16.7146 63.9354 16.7638 63.8882C16.814 63.841 16.8738 63.8174 16.9431 63.8174C17.0124 63.8174 17.0717 63.841 17.1209 63.8882C17.1712 63.9354 17.1963 63.9922 17.1963 64.0585C17.1963 64.1248 17.1712 64.1816 17.1209 64.2288C17.0717 64.276 17.0124 64.2996 16.9431 64.2996ZM18.1249 65.6076V67H17.7693V64.6854H18.1129V65.047H18.143C18.1972 64.9295 18.2796 64.8351 18.3901 64.7637C18.5006 64.6914 18.6433 64.6552 18.8181 64.6552C18.9748 64.6552 19.1119 64.6874 19.2295 64.7517C19.347 64.815 19.4384 64.9114 19.5037 65.041C19.569 65.1696 19.6017 65.3324 19.6017 65.5293V67H19.2461V65.5534C19.2461 65.3715 19.1988 65.2299 19.1044 65.1284C19.01 65.0259 18.8804 64.9747 18.7156 64.9747C18.6021 64.9747 18.5006 64.9993 18.4112 65.0485C18.3228 65.0978 18.253 65.1696 18.2018 65.264C18.1505 65.3585 18.1249 65.473 18.1249 65.6076ZM21.1858 67.9162C21.014 67.9162 20.8664 67.8941 20.7428 67.8499C20.6192 67.8067 20.5163 67.7494 20.4339 67.6781C20.3525 67.6078 20.2877 67.5324 20.2395 67.4521L20.5228 67.2532C20.5549 67.2954 20.5956 67.3436 20.6448 67.3978C20.6941 67.4531 20.7614 67.5008 20.8468 67.541C20.9332 67.5822 21.0462 67.6028 21.1858 67.6028C21.3727 67.6028 21.5269 67.5576 21.6484 67.4671C21.77 67.3767 21.8308 67.2351 21.8308 67.0422V66.572H21.8006C21.7745 66.6142 21.7374 66.6665 21.6891 66.7288C21.6419 66.79 21.5736 66.8448 21.4842 66.893C21.3958 66.9402 21.2762 66.9638 21.1255 66.9638C20.9387 66.9638 20.7709 66.9196 20.6222 66.8312C20.4746 66.7428 20.3575 66.6142 20.2711 66.4455C20.1857 66.2767 20.143 66.0717 20.143 65.8306C20.143 65.5935 20.1847 65.3871 20.2681 65.2113C20.3515 65.0345 20.4675 64.8979 20.6162 64.8014C20.7649 64.704 20.9367 64.6552 21.1316 64.6552C21.2823 64.6552 21.4018 64.6804 21.4902 64.7306C21.5796 64.7798 21.6479 64.8361 21.6952 64.8994C21.7434 64.9617 21.7806 65.0129 21.8067 65.0531H21.8428V64.6854H22.1864V67.0663C22.1864 67.2652 22.1412 67.427 22.0508 67.5515C21.9614 67.6771 21.8408 67.769 21.6891 67.8273C21.5384 67.8866 21.3707 67.9162 21.1858 67.9162ZM21.1738 66.6444C21.3164 66.6444 21.437 66.6117 21.5354 66.5464C21.6339 66.4811 21.7087 66.3872 21.76 66.2646C21.8112 66.1421 21.8368 65.9954 21.8368 65.8246C21.8368 65.6578 21.8117 65.5107 21.7615 65.3831C21.7112 65.2555 21.6369 65.1555 21.5384 65.0832C21.44 65.0109 21.3184 64.9747 21.1738 64.9747C21.0231 64.9747 20.8975 65.0129 20.797 65.0892C20.6976 65.1656 20.6227 65.2681 20.5725 65.3966C20.5233 65.5252 20.4987 65.6679 20.4987 65.8246C20.4987 65.9853 20.5238 66.1275 20.574 66.2511C20.6253 66.3736 20.7006 66.4701 20.8001 66.5404C20.9005 66.6097 21.0251 66.6444 21.1738 66.6444ZM24.9049 67.0422C24.702 67.0422 24.5272 67.005 24.3805 66.9307C24.2338 66.8563 24.1208 66.7544 24.0414 66.6248C23.9621 66.4952 23.9224 66.347 23.9224 66.1802C23.9224 66.0516 23.9495 65.9376 24.0037 65.8382C24.059 65.7377 24.1349 65.6448 24.2313 65.5594C24.3287 65.473 24.4408 65.3866 24.5673 65.3002L25.0134 64.9687C25.1008 64.9114 25.1706 64.8501 25.2228 64.7848C25.2761 64.7195 25.3027 64.6341 25.3027 64.5287C25.3027 64.4503 25.268 64.3745 25.1987 64.3011C25.1304 64.2278 25.0405 64.1911 24.929 64.1911C24.8506 64.1911 24.7813 64.2112 24.721 64.2514C24.6618 64.2906 24.6151 64.3408 24.5809 64.4021C24.5477 64.4624 24.5312 64.5246 24.5312 64.5889C24.5312 64.6613 24.5508 64.7346 24.5899 64.8089C24.6301 64.8823 24.6809 64.9576 24.7421 65.035C24.8044 65.1113 24.8687 65.1897 24.935 65.2701L26.3515 67H25.9236L24.7542 65.5895C24.6457 65.4589 24.5472 65.3404 24.4588 65.2339C24.3704 65.1274 24.3001 65.0224 24.2479 64.919C24.1956 64.8155 24.1695 64.7035 24.1695 64.5829C24.1695 64.4443 24.2002 64.3227 24.2614 64.2182C24.3237 64.1128 24.4106 64.0309 24.5221 63.9726C24.6346 63.9133 24.7662 63.8837 24.9169 63.8837C25.0716 63.8837 25.2048 63.9138 25.3163 63.9741C25.4278 64.0334 25.5137 64.1123 25.574 64.2107C25.6342 64.3082 25.6644 64.4141 25.6644 64.5287C25.6644 64.6763 25.6277 64.8044 25.5544 64.9129C25.481 65.0214 25.3811 65.1224 25.2545 65.2158L24.6397 65.6739C24.501 65.7764 24.4071 65.8758 24.3579 65.9723C24.3086 66.0687 24.284 66.138 24.284 66.1802C24.284 66.2767 24.3092 66.3666 24.3594 66.45C24.4096 66.5334 24.4804 66.6007 24.5719 66.6519C24.6633 66.7031 24.7703 66.7288 24.8928 66.7288C25.0094 66.7288 25.1229 66.7041 25.2334 66.6549C25.3439 66.6047 25.4439 66.5324 25.5333 66.4379C25.6237 66.3435 25.695 66.23 25.7472 66.0974C25.8005 65.9648 25.8271 65.8156 25.8271 65.6498H26.1707C26.1707 65.8547 26.1471 66.022 26.0999 66.1516C26.0526 66.2812 25.9994 66.3827 25.9401 66.456C25.8809 66.5293 25.8331 66.5841 25.797 66.6203C25.7849 66.6353 25.7739 66.6504 25.7638 66.6655C25.7538 66.6805 25.7427 66.6956 25.7307 66.7107C25.6312 66.8222 25.5056 66.9056 25.3539 66.9608C25.2022 67.0151 25.0526 67.0422 24.9049 67.0422ZM28.9694 64.6854V64.9868H27.7217V64.6854H28.9694ZM28.0954 67V64.3659C28.0954 64.2333 28.1265 64.1228 28.1888 64.0344C28.2511 63.946 28.332 63.8797 28.4314 63.8355C28.5309 63.7913 28.6359 63.7692 28.7464 63.7692C28.8338 63.7692 28.9051 63.7762 28.9604 63.7903C29.0156 63.8043 29.0568 63.8174 29.0839 63.8295L28.9815 64.1369C28.9634 64.1308 28.9383 64.1233 28.9061 64.1143C28.875 64.1052 28.8338 64.1007 28.7825 64.1007C28.665 64.1007 28.5801 64.1303 28.5279 64.1896C28.4766 64.2489 28.451 64.3358 28.451 64.4503V67H28.0954ZM29.4678 67V64.6854H29.8234V67H29.4678ZM29.6486 64.2996C29.5793 64.2996 29.5196 64.276 29.4693 64.2288C29.4201 64.1816 29.3955 64.1248 29.3955 64.0585C29.3955 63.9922 29.4201 63.9354 29.4693 63.8882C29.5196 63.841 29.5793 63.8174 29.6486 63.8174C29.718 63.8174 29.7772 63.841 29.8265 63.8882C29.8767 63.9354 29.9018 63.9922 29.9018 64.0585C29.9018 64.1248 29.8767 64.1816 29.8265 64.2288C29.7772 64.276 29.718 64.2996 29.6486 64.2996ZM30.8304 65.6076V67H30.4748V64.6854H30.8184V65.047H30.8485C30.9028 64.9295 30.9851 64.8351 31.0957 64.7637C31.2062 64.6914 31.3488 64.6552 31.5236 64.6552C31.6803 64.6552 31.8175 64.6874 31.935 64.7517C32.0525 64.815 32.144 64.9114 32.2093 65.041C32.2746 65.1696 32.3072 65.3324 32.3072 65.5293V67H31.9516V65.5534C31.9516 65.3715 31.9044 65.2299 31.8099 65.1284C31.7155 65.0259 31.5859 64.9747 31.4211 64.9747C31.3076 64.9747 31.2062 64.9993 31.1168 65.0485C31.0283 65.0978 30.9585 65.1696 30.9073 65.264C30.8561 65.3585 30.8304 65.473 30.8304 65.6076ZM33.6382 67.0542C33.4915 67.0542 33.3584 67.0266 33.2389 66.9714C33.1193 66.9151 33.0244 66.8342 32.9541 66.7288C32.8837 66.6223 32.8486 66.4937 32.8486 66.343C32.8486 66.2104 32.8747 66.1029 32.9269 66.0205C32.9792 65.9371 33.049 65.8718 33.1364 65.8246C33.2238 65.7774 33.3202 65.7422 33.4257 65.7191C33.5322 65.695 33.6392 65.6759 33.7467 65.6619C33.8873 65.6438 34.0014 65.6302 34.0888 65.6212C34.1772 65.6111 34.2415 65.5946 34.2816 65.5714C34.3228 65.5483 34.3434 65.5082 34.3434 65.4509V65.4388C34.3434 65.2902 34.3027 65.1746 34.2214 65.0922C34.141 65.0099 34.0189 64.9687 33.8552 64.9687C33.6854 64.9687 33.5523 65.0059 33.4559 65.0802C33.3594 65.1545 33.2916 65.2339 33.2524 65.3183L32.9149 65.1977C32.9752 65.0571 33.0555 64.9476 33.156 64.8692C33.2574 64.7899 33.368 64.7346 33.4875 64.7035C33.6081 64.6713 33.7266 64.6552 33.8431 64.6552C33.9175 64.6552 34.0029 64.6643 34.0993 64.6824C34.1968 64.6994 34.2907 64.7351 34.3811 64.7894C34.4725 64.8436 34.5484 64.9255 34.6086 65.035C34.6689 65.1445 34.6991 65.2912 34.6991 65.475V67H34.3434V66.6866H34.3253C34.3012 66.7368 34.2611 66.7905 34.2048 66.8478C34.1485 66.9051 34.0737 66.9538 33.9803 66.994C33.8868 67.0342 33.7728 67.0542 33.6382 67.0542ZM33.6924 66.7348C33.8331 66.7348 33.9516 66.7072 34.0481 66.6519C34.1455 66.5966 34.2189 66.5253 34.2681 66.4379C34.3183 66.3505 34.3434 66.2586 34.3434 66.1622V65.8367C34.3284 65.8547 34.2952 65.8713 34.244 65.8864C34.1937 65.9005 34.1355 65.913 34.0692 65.9241C34.0039 65.9341 33.9401 65.9432 33.8778 65.9512C33.8165 65.9582 33.7668 65.9642 33.7286 65.9693C33.6362 65.9813 33.5498 66.0009 33.4694 66.028C33.3901 66.0542 33.3258 66.0938 33.2765 66.1471C33.2283 66.1993 33.2042 66.2707 33.2042 66.3611C33.2042 66.4846 33.2499 66.5781 33.3413 66.6414C33.4338 66.7036 33.5508 66.7348 33.6924 66.7348ZM35.7038 65.6076V67H35.3482V64.6854H35.6917V65.047H35.7219C35.7761 64.9295 35.8585 64.8351 35.969 64.7637C36.0795 64.6914 36.2222 64.6552 36.397 64.6552C36.5537 64.6552 36.6908 64.6874 36.8084 64.7517C36.9259 64.815 37.0173 64.9114 37.0826 65.041C37.1479 65.1696 37.1806 65.3324 37.1806 65.5293V67H36.8249V65.5534C36.8249 65.3715 36.7777 65.2299 36.6833 65.1284C36.5889 65.0259 36.4593 64.9747 36.2945 64.9747C36.181 64.9747 36.0795 64.9993 35.9901 65.0485C35.9017 65.0978 35.8319 65.1696 35.7806 65.264C35.7294 65.3585 35.7038 65.473 35.7038 65.6076ZM38.7707 67.0482C38.5537 67.0482 38.3669 66.997 38.2102 66.8945C38.0534 66.792 37.9329 66.6509 37.8485 66.4711C37.7641 66.2912 37.7219 66.0858 37.7219 65.8547C37.7219 65.6197 37.7651 65.4122 37.8515 65.2324C37.9389 65.0516 38.0605 64.9104 38.2162 64.8089C38.3729 64.7065 38.5557 64.6552 38.7647 64.6552C38.9275 64.6552 39.0741 64.6854 39.2047 64.7457C39.3353 64.8059 39.4423 64.8903 39.5257 64.9988C39.6091 65.1073 39.6608 65.2339 39.6809 65.3786H39.3253C39.2982 65.2731 39.2379 65.1797 39.1444 65.0983C39.052 65.0159 38.9275 64.9747 38.7707 64.9747C38.6321 64.9747 38.5105 65.0109 38.4061 65.0832C38.3026 65.1545 38.2217 65.2555 38.1634 65.3861C38.1062 65.5157 38.0776 65.6679 38.0776 65.8427C38.0776 66.0215 38.1057 66.1772 38.1619 66.3098C38.2192 66.4424 38.2996 66.5454 38.403 66.6188C38.5075 66.6921 38.6301 66.7288 38.7707 66.7288C38.8632 66.7288 38.947 66.7127 39.0224 66.6805C39.0977 66.6484 39.1615 66.6022 39.2138 66.5419C39.266 66.4816 39.3032 66.4093 39.3253 66.3249H39.6809C39.6608 66.4615 39.6111 66.5846 39.5317 66.6941C39.4534 66.8026 39.3494 66.889 39.2198 66.9533C39.0912 67.0166 38.9415 67.0482 38.7707 67.0482ZM40.2008 67V64.6854H40.5564V67H40.2008ZM40.3816 64.2996C40.3123 64.2996 40.2525 64.276 40.2023 64.2288C40.1531 64.1816 40.1285 64.1248 40.1285 64.0585C40.1285 63.9922 40.1531 63.9354 40.2023 63.8882C40.2525 63.841 40.3123 63.8174 40.3816 63.8174C40.4509 63.8174 40.5102 63.841 40.5594 63.8882C40.6097 63.9354 40.6348 63.9922 40.6348 64.0585C40.6348 64.1248 40.6097 64.1816 40.5594 64.2288C40.5102 64.276 40.4509 64.2996 40.3816 64.2996ZM41.8889 67.0542C41.7422 67.0542 41.6091 67.0266 41.4896 66.9714C41.37 66.9151 41.2751 66.8342 41.2048 66.7288C41.1345 66.6223 41.0993 66.4937 41.0993 66.343C41.0993 66.2104 41.1254 66.1029 41.1777 66.0205C41.2299 65.9371 41.2997 65.8718 41.3871 65.8246C41.4745 65.7774 41.571 65.7422 41.6764 65.7191C41.7829 65.695 41.8899 65.6759 41.9974 65.6619C42.1381 65.6438 42.2521 65.6302 42.3395 65.6212C42.4279 65.6111 42.4922 65.5946 42.5324 65.5714C42.5736 65.5483 42.5941 65.5082 42.5941 65.4509V65.4388C42.5941 65.2902 42.5535 65.1746 42.4721 65.0922C42.3917 65.0099 42.2697 64.9687 42.1059 64.9687C41.9361 64.9687 41.803 65.0059 41.7066 65.0802C41.6101 65.1545 41.5423 65.2339 41.5031 65.3183L41.1656 65.1977C41.2259 65.0571 41.3062 64.9476 41.4067 64.8692C41.5082 64.7899 41.6187 64.7346 41.7382 64.7035C41.8588 64.6713 41.9773 64.6552 42.0939 64.6552C42.1682 64.6552 42.2536 64.6643 42.35 64.6824C42.4475 64.6994 42.5414 64.7351 42.6318 64.7894C42.7232 64.8436 42.7991 64.9255 42.8594 65.035C42.9196 65.1445 42.9498 65.2912 42.9498 65.475V67H42.5941V66.6866H42.5761C42.552 66.7368 42.5118 66.7905 42.4555 66.8478C42.3993 66.9051 42.3244 66.9538 42.231 66.994C42.1376 67.0342 42.0235 67.0542 41.8889 67.0542ZM41.9432 66.7348C42.0838 66.7348 42.2024 66.7072 42.2988 66.6519C42.3962 66.5966 42.4696 66.5253 42.5188 66.4379C42.569 66.3505 42.5941 66.2586 42.5941 66.1622V65.8367C42.5791 65.8547 42.5459 65.8713 42.4947 65.8864C42.4445 65.9005 42.3862 65.913 42.3199 65.9241C42.2546 65.9341 42.1908 65.9432 42.1285 65.9512C42.0672 65.9582 42.0175 65.9642 41.9793 65.9693C41.8869 65.9813 41.8005 66.0009 41.7201 66.028C41.6408 66.0542 41.5765 66.0938 41.5273 66.1471C41.479 66.1993 41.4549 66.2707 41.4549 66.3611C41.4549 66.4846 41.5006 66.5781 41.5921 66.6414C41.6845 66.7036 41.8015 66.7348 41.9432 66.7348ZM43.9545 63.9138V67H43.5989V63.9138H43.9545ZM45.7994 67V64.6854H46.1429V65.047H46.1731C46.2213 64.9235 46.2991 64.8275 46.4066 64.7592C46.5141 64.6899 46.6432 64.6552 46.7939 64.6552C46.9466 64.6552 47.0737 64.6899 47.1752 64.7592C47.2776 64.8275 47.3575 64.9235 47.4148 65.047H47.4389C47.4981 64.9275 47.5871 64.8326 47.7056 64.7622C47.8241 64.6909 47.9663 64.6552 48.1321 64.6552C48.339 64.6552 48.5083 64.72 48.6399 64.8496C48.7715 64.9782 48.8373 65.1786 48.8373 65.4509V67H48.4817V65.4509C48.4817 65.2801 48.4349 65.1581 48.3415 65.0847C48.2481 65.0114 48.1381 64.9747 48.0115 64.9747C47.8488 64.9747 47.7227 65.0239 47.6333 65.1224C47.5439 65.2198 47.4991 65.3434 47.4991 65.4931V67H47.1375V65.4147C47.1375 65.2831 47.0948 65.1771 47.0094 65.0968C46.924 65.0154 46.814 64.9747 46.6794 64.9747C46.587 64.9747 46.5006 64.9993 46.4202 65.0485C46.3408 65.0978 46.2765 65.1661 46.2273 65.2535C46.1791 65.3399 46.155 65.4398 46.155 65.5534V67H45.7994ZM50.1686 67.0542C50.022 67.0542 49.8889 67.0266 49.7693 66.9714C49.6498 66.9151 49.5548 66.8342 49.4845 66.7288C49.4142 66.6223 49.379 66.4937 49.379 66.343C49.379 66.2104 49.4051 66.1029 49.4574 66.0205C49.5096 65.9371 49.5794 65.8718 49.6668 65.8246C49.7542 65.7774 49.8507 65.7422 49.9562 65.7191C50.0627 65.695 50.1696 65.6759 50.2771 65.6619C50.4178 65.6438 50.5318 65.6302 50.6192 65.6212C50.7076 65.6111 50.7719 65.5946 50.8121 65.5714C50.8533 65.5483 50.8739 65.5082 50.8739 65.4509V65.4388C50.8739 65.2902 50.8332 65.1746 50.7518 65.0922C50.6714 65.0099 50.5494 64.9687 50.3856 64.9687C50.2159 64.9687 50.0827 65.0059 49.9863 65.0802C49.8899 65.1545 49.8221 65.2339 49.7829 65.3183L49.4453 65.1977C49.5056 65.0571 49.586 64.9476 49.6864 64.8692C49.7879 64.7899 49.8984 64.7346 50.018 64.7035C50.1385 64.6713 50.257 64.6552 50.3736 64.6552C50.4479 64.6552 50.5333 64.6643 50.6298 64.6824C50.7272 64.6994 50.8211 64.7351 50.9116 64.7894C51.003 64.8436 51.0788 64.9255 51.1391 65.035C51.1994 65.1445 51.2295 65.2912 51.2295 65.475V67H50.8739V66.6866H50.8558C50.8317 66.7368 50.7915 66.7905 50.7352 66.8478C50.679 66.9051 50.6041 66.9538 50.5107 66.994C50.4173 67.0342 50.3033 67.0542 50.1686 67.0542ZM50.2229 66.7348C50.3635 66.7348 50.4821 66.7072 50.5785 66.6519C50.676 66.5966 50.7493 66.5253 50.7985 66.4379C50.8488 66.3505 50.8739 66.2586 50.8739 66.1622V65.8367C50.8588 65.8547 50.8257 65.8713 50.7744 65.8864C50.7242 65.9005 50.6659 65.913 50.5996 65.9241C50.5343 65.9341 50.4705 65.9432 50.4082 65.9512C50.347 65.9582 50.2972 65.9642 50.2591 65.9693C50.1666 65.9813 50.0802 66.0009 49.9999 66.028C49.9205 66.0542 49.8562 66.0938 49.807 66.1471C49.7588 66.1993 49.7347 66.2707 49.7347 66.3611C49.7347 66.4846 49.7804 66.5781 49.8718 66.6414C49.9642 66.7036 50.0812 66.7348 50.2229 66.7348ZM52.2342 65.6076V67H51.8786V64.6854H52.2222V65.047H52.2523C52.3066 64.9295 52.3889 64.8351 52.4995 64.7637C52.61 64.6914 52.7526 64.6552 52.9274 64.6552C53.0841 64.6552 53.2213 64.6874 53.3388 64.7517C53.4563 64.815 53.5478 64.9114 53.6131 65.041C53.6784 65.1696 53.711 65.3324 53.711 65.5293V67H53.3554V65.5534C53.3554 65.3715 53.3082 65.2299 53.2137 65.1284C53.1193 65.0259 52.9897 64.9747 52.8249 64.9747C52.7114 64.9747 52.61 64.9993 52.5206 65.0485C52.4321 65.0978 52.3623 65.1696 52.3111 65.264C52.2599 65.3585 52.2342 65.473 52.2342 65.6076ZM55.042 67.0542C54.8953 67.0542 54.7622 67.0266 54.6427 66.9714C54.5231 66.9151 54.4282 66.8342 54.3579 66.7288C54.2875 66.6223 54.2524 66.4937 54.2524 66.343C54.2524 66.2104 54.2785 66.1029 54.3307 66.0205C54.383 65.9371 54.4528 65.8718 54.5402 65.8246C54.6276 65.7774 54.724 65.7422 54.8295 65.7191C54.936 65.695 55.043 65.6759 55.1505 65.6619C55.2911 65.6438 55.4052 65.6302 55.4926 65.6212C55.581 65.6111 55.6453 65.5946 55.6854 65.5714C55.7266 65.5483 55.7472 65.5082 55.7472 65.4509V65.4388C55.7472 65.2902 55.7065 65.1746 55.6252 65.0922C55.5448 65.0099 55.4227 64.9687 55.259 64.9687C55.0892 64.9687 54.9561 65.0059 54.8597 65.0802C54.7632 65.1545 54.6954 65.2339 54.6562 65.3183L54.3187 65.1977C54.379 65.0571 54.4593 64.9476 54.5598 64.8692C54.6612 64.7899 54.7718 64.7346 54.8913 64.7035C55.0119 64.6713 55.1304 64.6552 55.2469 64.6552C55.3213 64.6552 55.4067 64.6643 55.5031 64.6824C55.6006 64.6994 55.6945 64.7351 55.7849 64.7894C55.8763 64.8436 55.9522 64.9255 56.0124 65.035C56.0727 65.1445 56.1029 65.2912 56.1029 65.475V67H55.7472V66.6866H55.7291C55.705 66.7368 55.6649 66.7905 55.6086 66.8478C55.5523 66.9051 55.4775 66.9538 55.3841 66.994C55.2906 67.0342 55.1766 67.0542 55.042 67.0542ZM55.0962 66.7348C55.2369 66.7348 55.3554 66.7072 55.4519 66.6519C55.5493 66.5966 55.6227 66.5253 55.6719 66.4379C55.7221 66.3505 55.7472 66.2586 55.7472 66.1622V65.8367C55.7322 65.8547 55.699 65.8713 55.6478 65.8864C55.5975 65.9005 55.5393 65.913 55.473 65.9241C55.4077 65.9341 55.3439 65.9432 55.2816 65.9512C55.2203 65.9582 55.1706 65.9642 55.1324 65.9693C55.04 65.9813 54.9536 66.0009 54.8732 66.028C54.7939 66.0542 54.7296 66.0938 54.6803 66.1471C54.6321 66.1993 54.608 66.2707 54.608 66.3611C54.608 66.4846 54.6537 66.5781 54.7451 66.6414C54.8376 66.7036 54.9546 66.7348 55.0962 66.7348ZM57.6863 67.9162C57.5145 67.9162 57.3668 67.8941 57.2432 67.8499C57.1197 67.8067 57.0167 67.7494 56.9343 67.6781C56.8529 67.6078 56.7881 67.5324 56.7399 67.4521L57.0232 67.2532C57.0554 67.2954 57.096 67.3436 57.1453 67.3978C57.1945 67.4531 57.2618 67.5008 57.3472 67.541C57.4336 67.5822 57.5466 67.6028 57.6863 67.6028C57.8731 67.6028 58.0273 67.5576 58.1489 67.4671C58.2704 67.3767 58.3312 67.2351 58.3312 67.0422V66.572H58.3011C58.275 66.6142 58.2378 66.6665 58.1896 66.7288C58.1423 66.79 58.074 66.8448 57.9846 66.893C57.8962 66.9402 57.7767 66.9638 57.626 66.9638C57.4391 66.9638 57.2713 66.9196 57.1227 66.8312C56.975 66.7428 56.858 66.6142 56.7716 66.4455C56.6862 66.2767 56.6435 66.0717 56.6435 65.8306C56.6435 65.5935 56.6852 65.3871 56.7685 65.2113C56.8519 65.0345 56.968 64.8979 57.1166 64.8014C57.2653 64.704 57.4371 64.6552 57.632 64.6552C57.7827 64.6552 57.9022 64.6804 57.9906 64.7306C58.0801 64.7798 58.1484 64.8361 58.1956 64.8994C58.2438 64.9617 58.281 65.0129 58.3071 65.0531H58.3433V64.6854H58.6868V67.0663C58.6868 67.2652 58.6416 67.427 58.5512 67.5515C58.4618 67.6771 58.3413 67.769 58.1896 67.8273C58.0389 67.8866 57.8711 67.9162 57.6863 67.9162ZM57.6742 66.6444C57.8168 66.6444 57.9374 66.6117 58.0359 66.5464C58.1343 66.4811 58.2091 66.3872 58.2604 66.2646C58.3116 66.1421 58.3372 65.9954 58.3372 65.8246C58.3372 65.6578 58.3121 65.5107 58.2619 65.3831C58.2117 65.2555 58.1373 65.1555 58.0389 65.0832C57.9404 65.0109 57.8189 64.9747 57.6742 64.9747C57.5235 64.9747 57.3979 65.0129 57.2975 65.0892C57.198 65.1656 57.1232 65.2681 57.0729 65.3966C57.0237 65.5252 56.9991 65.6679 56.9991 65.8246C56.9991 65.9853 57.0242 66.1275 57.0744 66.2511C57.1257 66.3736 57.201 66.4701 57.3005 66.5404C57.4009 66.6097 57.5255 66.6444 57.6742 66.6444ZM60.3083 67.0482C60.0853 67.0482 59.8929 66.999 59.7311 66.9005C59.5704 66.8011 59.4463 66.6625 59.3589 66.4846C59.2725 66.3058 59.2293 66.0979 59.2293 65.8608C59.2293 65.6237 59.2725 65.4147 59.3589 65.2339C59.4463 65.0521 59.5679 64.9104 59.7236 64.8089C59.8803 64.7065 60.0632 64.6552 60.2721 64.6552C60.3927 64.6552 60.5117 64.6753 60.6292 64.7155C60.7468 64.7557 60.8538 64.821 60.9502 64.9114C61.0467 65.0008 61.1235 65.1194 61.1808 65.2671C61.238 65.4147 61.2667 65.5966 61.2667 65.8126V65.9632H59.4825V65.6558H60.905C60.905 65.5252 60.8789 65.4087 60.8267 65.3062C60.7754 65.2038 60.7021 65.1229 60.6066 65.0636C60.5122 65.0043 60.4007 64.9747 60.2721 64.9747C60.1305 64.9747 60.0079 65.0099 59.9044 65.0802C59.802 65.1495 59.7231 65.2399 59.6678 65.3514C59.6126 65.4629 59.585 65.5825 59.585 65.7101V65.915C59.585 66.0898 59.6151 66.238 59.6754 66.3596C59.7367 66.4801 59.8215 66.572 59.93 66.6353C60.0385 66.6976 60.1646 66.7288 60.3083 66.7288C60.4017 66.7288 60.4861 66.7157 60.5614 66.6896C60.6378 66.6625 60.7036 66.6223 60.7588 66.569C60.8141 66.5148 60.8568 66.4475 60.8869 66.3671L61.2305 66.4635C61.1943 66.5801 61.1336 66.6825 61.0482 66.7709C60.9628 66.8584 60.8573 66.9267 60.7317 66.9759C60.6061 67.0241 60.465 67.0482 60.3083 67.0482ZM61.8077 67V64.6854H62.1512V65.047H62.1814C62.2296 64.9235 62.3074 64.8275 62.4149 64.7592C62.5224 64.6899 62.6515 64.6552 62.8022 64.6552C62.9549 64.6552 63.082 64.6899 63.1835 64.7592C63.2859 64.8275 63.3658 64.9235 63.4231 65.047H63.4472C63.5064 64.9275 63.5954 64.8326 63.7139 64.7622C63.8324 64.6909 63.9746 64.6552 64.1404 64.6552C64.3473 64.6552 64.5166 64.72 64.6482 64.8496C64.7798 64.9782 64.8456 65.1786 64.8456 65.4509V67H64.49V65.4509C64.49 65.2801 64.4432 65.1581 64.3498 65.0847C64.2564 65.0114 64.1464 64.9747 64.0198 64.9747C63.8571 64.9747 63.731 65.0239 63.6416 65.1224C63.5522 65.2198 63.5075 65.3434 63.5075 65.4931V67H63.1458V65.4147C63.1458 65.2831 63.1031 65.1771 63.0177 65.0968C62.9323 65.0154 62.8223 64.9747 62.6877 64.9747C62.5953 64.9747 62.5089 64.9993 62.4285 65.0485C62.3491 65.0978 62.2848 65.1661 62.2356 65.2535C62.1874 65.3399 62.1633 65.4398 62.1633 65.5534V67H61.8077ZM66.4663 67.0482C66.2432 67.0482 66.0509 66.999 65.8891 66.9005C65.7284 66.8011 65.6043 66.6625 65.5169 66.4846C65.4305 66.3058 65.3873 66.0979 65.3873 65.8608C65.3873 65.6237 65.4305 65.4147 65.5169 65.2339C65.6043 65.0521 65.7259 64.9104 65.8816 64.8089C66.0383 64.7065 66.2211 64.6552 66.4301 64.6552C66.5507 64.6552 66.6697 64.6753 66.7872 64.7155C66.9048 64.7557 67.0118 64.821 67.1082 64.9114C67.2047 65.0008 67.2815 65.1194 67.3388 65.2671C67.396 65.4147 67.4247 65.5966 67.4247 65.8126V65.9632H65.6405V65.6558H67.063C67.063 65.5252 67.0369 65.4087 66.9846 65.3062C66.9334 65.2038 66.8601 65.1229 66.7646 65.0636C66.6702 65.0043 66.5587 64.9747 66.4301 64.9747C66.2885 64.9747 66.1659 65.0099 66.0624 65.0802C65.9599 65.1495 65.8811 65.2399 65.8258 65.3514C65.7706 65.4629 65.743 65.5825 65.743 65.7101V65.915C65.743 66.0898 65.7731 66.238 65.8334 66.3596C65.8946 66.4801 65.9795 66.572 66.088 66.6353C66.1965 66.6976 66.3226 66.7288 66.4663 66.7288C66.5597 66.7288 66.6441 66.7157 66.7194 66.6896C66.7958 66.6625 66.8616 66.6223 66.9168 66.569C66.9721 66.5148 67.0148 66.4475 67.0449 66.3671L67.3885 66.4635C67.3523 66.5801 67.2916 66.6825 67.2062 66.7709C67.1208 66.8584 67.0153 66.9267 66.8897 66.9759C66.7641 67.0241 66.623 67.0482 66.4663 67.0482ZM68.3213 65.6076V67H67.9657V64.6854H68.3092V65.047H68.3394C68.3936 64.9295 68.476 64.8351 68.5865 64.7637C68.697 64.6914 68.8397 64.6552 69.0145 64.6552C69.1712 64.6552 69.3083 64.6874 69.4259 64.7517C69.5434 64.815 69.6348 64.9114 69.7001 65.041C69.7654 65.1696 69.7981 65.3324 69.7981 65.5293V67H69.4424V65.5534C69.4424 65.3715 69.3952 65.2299 69.3008 65.1284C69.2063 65.0259 69.0767 64.9747 68.912 64.9747C68.7985 64.9747 68.697 64.9993 68.6076 65.0485C68.5192 65.0978 68.4494 65.1696 68.3981 65.264C68.3469 65.3585 68.3213 65.473 68.3213 65.6076ZM71.4545 64.6854V64.9868H70.255V64.6854H71.4545ZM70.6046 64.1308H70.9603V66.337C70.9603 66.4374 70.9748 66.5128 71.004 66.563C71.0341 66.6122 71.0723 66.6454 71.1185 66.6625C71.1657 66.6785 71.2154 66.6866 71.2677 66.6866C71.3069 66.6866 71.339 66.6846 71.3641 66.6805C71.3892 66.6755 71.4093 66.6715 71.4244 66.6685L71.4967 66.9879C71.4726 66.997 71.439 67.006 71.3958 67.0151C71.3526 67.0251 71.2978 67.0301 71.2315 67.0301C71.131 67.0301 71.0326 67.0085 70.9362 66.9653C70.8407 66.9221 70.7614 66.8563 70.6981 66.7679C70.6358 66.6795 70.6046 66.568 70.6046 66.4334V64.1308Z" fill="#B9B9B9"/>
</svg>
