<svg width="143" height="42" viewBox="0 0 143 42" fill="none" xmlns="http://www.w3.org/2000/svg">
<g clip-path="url(#clip0_13428_2257)">
<mask id="mask0_13428_2257" style="mask-type:luminance" maskUnits="userSpaceOnUse" x="-25" y="-75" width="194" height="193">
<path d="M168.063 -74.9746H-24.0627V117.151H168.063V-74.9746Z" fill="white"/>
</mask>
<g mask="url(#mask0_13428_2257)">
<path d="M15.4883 22.5127H-0.000854492V38.0018H15.4883V22.5127Z" fill="#B9B9B9"/>
<path d="M7.64579 16.9984C11.7288 16.9984 15.0388 13.6884 15.0388 9.60539C15.0388 5.52235 11.7288 2.2124 7.64579 2.2124C3.56276 2.2124 0.252808 5.52235 0.252808 9.60539C0.252808 13.6884 3.56276 16.9984 7.64579 16.9984Z" fill="#B9B9B9"/>
<path d="M27.6192 2.18164H22.1552V38.3089H27.6192V2.18164Z" fill="#E3E3E3"/>
<path d="M15.4883 22.5127L-0.000854492 38.0018H15.4883V22.5127Z" fill="#E3E3E3"/>
<path d="M38.2675 19.9297H35.9447V8.01599C35.9447 6.30095 36.4942 4.90228 37.5932 3.81997C38.7088 2.73767 40.0825 2.19651 41.7143 2.19651C43.5126 2.19651 44.8613 2.65441 45.7604 3.57021C46.6762 4.46936 47.1341 5.57664 47.1341 6.89206C47.1341 8.5738 46.3515 9.78098 44.7864 10.5136V10.6135C46.9343 11.2296 48.0083 12.7199 48.0083 15.0843C48.0083 18.3146 46.1018 19.9297 42.2887 19.9297H39.1667V17.7318H42.2638C43.4127 17.7318 44.2535 17.4987 44.7864 17.0324C45.3192 16.5662 45.5856 15.8169 45.5856 14.7846C45.5856 13.8854 45.2942 13.1944 44.7114 12.7115C44.1453 12.2287 43.371 11.9872 42.3886 11.9872H39.916V9.91419H41.5145C42.4136 9.91419 43.1796 9.67275 43.8123 9.18988C44.4617 8.69035 44.7864 8.02432 44.7864 7.19177C44.7864 6.39253 44.5366 5.7265 44.0371 5.19367C43.5542 4.66084 42.7633 4.39443 41.6643 4.39443C40.6653 4.39443 39.8494 4.71079 39.2166 5.34353C38.5839 5.95961 38.2675 6.86708 38.2675 8.06594V19.9297ZM57.2938 12.8864V15.1342C56.6611 14.6514 55.8868 14.4099 54.971 14.4099C54.1884 14.4099 53.5807 14.5681 53.1478 14.8845C52.7148 15.1842 52.4984 15.6171 52.4984 16.1832C52.4984 17.2822 53.3143 17.8317 54.9461 17.8317H58.2429V13.0612C58.2429 11.0464 57.2605 10.0391 55.2957 10.0391H51.2995V7.94106H55.4206C57.0357 7.94106 58.2762 8.34068 59.1421 9.13993C60.0079 9.93917 60.4408 11.0881 60.4408 12.5867V19.9297H54.8711C53.4558 19.9297 52.3319 19.6133 51.4993 18.9806C50.6668 18.3479 50.2505 17.4237 50.2505 16.2082C50.2505 14.9927 50.6918 14.0686 51.5743 13.4358C52.4567 12.8031 53.564 12.4868 54.8961 12.4868C55.6454 12.4868 56.4446 12.62 57.2938 12.8864ZM73.127 19.9297H68.8061C66.9579 19.9297 65.6342 19.6549 64.8349 19.1055C64.1189 18.6226 63.661 18.0481 63.4612 17.3821C63.2781 16.6994 63.1865 15.8086 63.1865 14.7096V7.94106H65.3844V14.6847C65.3844 14.9844 65.3927 15.2425 65.4094 15.4589C65.426 15.6587 65.4843 15.9252 65.5842 16.2582C65.6841 16.5745 65.8256 16.841 66.0088 17.0574C66.192 17.2572 66.4584 17.4404 66.808 17.6069C67.1577 17.7567 67.5823 17.8317 68.0818 17.8317H70.9291V7.94106H73.127V19.9297ZM78.4579 2.44628V7.94106H80.5809C82.4292 7.94106 83.7529 8.2158 84.5521 8.76528C85.2681 9.24816 85.7177 9.83094 85.9009 10.5136C86.1007 11.1797 86.2006 12.0622 86.2006 13.1611V19.9297H84.0027V13.1861C84.0027 12.8864 83.9943 12.6366 83.9777 12.4368C83.961 12.2203 83.9028 11.9539 83.8028 11.6376C83.7029 11.3045 83.5614 11.0381 83.3783 10.8383C83.1951 10.6219 82.9287 10.4387 82.579 10.2888C82.2293 10.1223 81.8047 10.0391 81.3052 10.0391H78.4579V19.9297H76.26V2.44628H78.4579ZM90.5609 9.51457C91.7264 8.29906 93.1834 7.6913 94.9317 7.6913C95.7809 7.6913 96.5719 7.85781 97.3045 8.19083C98.0538 8.50719 98.7032 8.94844 99.2526 9.51457C99.8188 10.0807 100.26 10.7467 100.576 11.5127C100.893 12.262 101.051 13.0695 101.051 13.9354C101.051 14.8012 100.893 15.6171 100.576 16.3831C100.277 17.1323 99.8521 17.7901 99.3026 18.3562C98.7531 18.9223 98.1037 19.3719 97.3544 19.7049C96.6052 20.0213 95.7976 20.1795 94.9317 20.1795C94.0492 20.1795 93.2334 20.0213 92.4841 19.7049C91.7514 19.3719 91.1104 18.9223 90.5609 18.3562C90.0114 17.7901 89.5785 17.1323 89.2621 16.3831C88.9624 15.6171 88.8125 14.8012 88.8125 13.9354C88.8125 12.1704 89.3953 10.6968 90.5609 9.51457ZM94.9317 9.78931C93.7662 9.78931 92.8254 10.1723 92.1094 10.9382C91.4101 11.7042 91.0604 12.7032 91.0604 13.9354C91.0604 15.1675 91.4101 16.1666 92.1094 16.9325C92.8254 17.6985 93.7662 18.0814 94.9317 18.0814C96.114 18.0814 97.0547 17.6985 97.7541 16.9325C98.4534 16.1499 98.8031 15.1509 98.8031 13.9354C98.8031 12.7199 98.4534 11.7291 97.7541 10.9632C97.0547 10.1806 96.114 9.78931 94.9317 9.78931ZM113.616 19.9297H109.295C107.447 19.9297 106.123 19.6549 105.324 19.1055C104.608 18.6226 104.15 18.0481 103.95 17.3821C103.767 16.6994 103.675 15.8086 103.675 14.7096V7.94106H105.873V14.6847C105.873 14.9844 105.882 15.2425 105.898 15.4589C105.915 15.6587 105.973 15.9252 106.073 16.2582C106.173 16.5745 106.315 16.841 106.498 17.0574C106.681 17.2572 106.947 17.4404 107.297 17.6069C107.647 17.7567 108.071 17.8317 108.571 17.8317H111.418V7.94106H113.616V19.9297ZM125.066 7.94106V10.0391H120.645C120.162 10.0391 119.746 10.1307 119.396 10.3138C119.047 10.497 118.872 10.7551 118.872 11.0881C118.872 11.2879 118.914 11.471 118.997 11.6376C119.08 11.7874 119.172 11.9123 119.272 12.0122C119.388 12.1121 119.555 12.2203 119.771 12.3369C120.004 12.4368 120.179 12.5117 120.296 12.5617C120.429 12.595 120.962 12.7615 121.894 13.0612C122.826 13.3609 123.518 13.6107 123.967 13.8105C124.417 14.0103 124.758 14.285 124.991 14.6347C125.241 14.9677 125.399 15.3007 125.466 15.6338C125.532 15.9501 125.566 16.2665 125.566 16.5829C125.566 18.8141 124.034 19.9297 120.97 19.9297H116.649V17.8317H120.97C122.535 17.8317 123.318 17.4154 123.318 16.5829C123.318 16.1832 123.085 15.8502 122.618 15.5838C122.169 15.3174 121.611 15.0926 120.945 14.9095C120.296 14.7263 119.638 14.5182 118.972 14.285C118.322 14.0353 117.765 13.644 117.298 13.1112C116.849 12.5617 116.624 11.8873 116.624 11.0881C116.624 10.0724 117.015 9.29811 117.798 8.76528C118.581 8.2158 119.53 7.94106 120.645 7.94106H125.066ZM133.936 7.6913C136.766 7.80786 138.182 8.98174 138.182 11.213C138.182 13.9937 136.358 15.384 132.712 15.384H131.688V13.4608H132.887C134.002 13.4608 134.777 13.2943 135.21 12.9613C135.642 12.6116 135.859 12.0372 135.859 11.2379C135.859 10.7218 135.667 10.3388 135.284 10.089C134.902 9.82261 134.41 9.6894 133.811 9.6894C132.629 9.6894 131.696 10.1057 131.014 10.9382C130.347 11.7708 130.014 12.7698 130.014 13.9354C130.014 15.1675 130.372 16.1666 131.088 16.9325C131.821 17.6985 132.77 18.0814 133.936 18.0814C134.985 18.0814 135.842 17.8234 136.508 17.3072L138.007 18.7808C136.858 19.7132 135.501 20.1795 133.936 20.1795C132.038 20.1795 130.522 19.6216 129.39 18.506C128.258 17.3904 127.692 15.9501 127.692 14.1851C127.692 12.2203 128.249 10.6302 129.365 9.41466C130.481 8.19915 132.004 7.6247 133.936 7.6913Z" fill="#B9B9B9"/>
<path d="M49.507 36.5957C49.3415 36.5957 49.2053 36.5422 49.0982 36.4351C48.9911 36.328 48.9376 36.1917 48.9376 36.0262V25.7614C48.9376 25.5959 48.9911 25.4596 49.0982 25.3525C49.2053 25.2454 49.3415 25.1919 49.507 25.1919H52.2375C52.9481 25.1919 53.5809 25.3428 54.1357 25.6446C54.6906 25.9366 55.1238 26.3503 55.4353 26.8857C55.7565 27.4113 55.9171 28.0197 55.9171 28.7109C55.9171 29.3728 55.7565 29.9617 55.4353 30.4777C55.1238 30.9936 54.6906 31.3976 54.1357 31.6896C53.5809 31.9816 52.9481 32.1276 52.2375 32.1276H50.0765V36.0262C50.0765 36.1917 50.023 36.328 49.9159 36.4351C49.8088 36.5422 49.6725 36.5957 49.507 36.5957ZM55.6105 36.5957C55.4839 36.5957 55.3817 36.5714 55.3038 36.5227C55.2357 36.474 55.1724 36.401 55.114 36.3037L52.3105 31.8356L53.4494 31.5436L56.0631 35.7196C56.2091 35.9532 56.2335 36.1577 56.1361 36.3329C56.0485 36.5081 55.8733 36.5957 55.6105 36.5957ZM50.0765 31.0325H52.2375C52.734 31.0325 53.172 30.9352 53.5517 30.7405C53.941 30.5361 54.2477 30.2586 54.4715 29.9082C54.6954 29.5578 54.8074 29.1587 54.8074 28.7109C54.8074 28.2339 54.6954 27.8153 54.4715 27.4551C54.2477 27.0852 53.941 26.7981 53.5517 26.5937C53.172 26.3892 52.734 26.287 52.2375 26.287H50.0765V31.0325ZM58.5332 36.5957C58.3677 36.5957 58.2314 36.5422 58.1243 36.4351C58.0172 36.328 57.9637 36.1917 57.9637 36.0262V25.7614C57.9637 25.5959 58.0172 25.4596 58.1243 25.3525C58.2314 25.2454 58.3677 25.1919 58.5332 25.1919H65.3813C65.537 25.1919 65.6685 25.2454 65.7755 25.3525C65.8923 25.4499 65.9507 25.5813 65.9507 25.7468C65.9507 25.8928 65.8923 26.0193 65.7755 26.1264C65.6685 26.2335 65.537 26.287 65.3813 26.287H59.1026V30.317H63.6729C63.8384 30.317 63.9747 30.3706 64.0818 30.4777C64.1888 30.5847 64.2424 30.7162 64.2424 30.8719C64.2424 31.0277 64.1888 31.1591 64.0818 31.2661C63.9747 31.3732 63.8384 31.4268 63.6729 31.4268H59.1026V35.5006H65.3813C65.537 35.5006 65.6685 35.5541 65.7755 35.6612C65.8923 35.7683 65.9507 35.8948 65.9507 36.0408C65.9507 36.2063 65.8923 36.3426 65.7755 36.4497C65.6685 36.547 65.537 36.5957 65.3813 36.5957H58.5332ZM67.4457 36.5957C67.2218 36.5957 67.0612 36.5032 66.9638 36.3183C66.8665 36.1333 66.8568 35.9532 66.9346 35.778L71.2275 25.5862C71.3346 25.3233 71.5195 25.1919 71.7823 25.1919C72.0354 25.1919 72.2155 25.3233 72.3226 25.5862L76.6301 35.7926C76.7177 35.9776 76.7031 36.1577 76.5863 36.3329C76.4792 36.5081 76.3234 36.5957 76.119 36.5957C76.0022 36.5957 75.8951 36.5665 75.7978 36.5081C75.7102 36.4497 75.6372 36.3621 75.5787 36.2453L71.5633 26.506H72.016L67.9713 36.2453C67.9227 36.3621 67.8497 36.4497 67.7523 36.5081C67.6647 36.5665 67.5625 36.5957 67.4457 36.5957ZM68.4094 33.8798L68.8474 32.9015H74.7757L75.2137 33.8798H68.4094ZM78.9097 36.5957C78.754 36.5957 78.6177 36.5422 78.5009 36.4351C78.3938 36.328 78.3403 36.1917 78.3403 36.0262V25.7614C78.3403 25.6056 78.3938 25.4742 78.5009 25.3671C78.6177 25.2503 78.754 25.1919 78.9097 25.1919C79.0655 25.1919 79.1969 25.2503 79.304 25.3671C79.4208 25.4742 79.4792 25.6056 79.4792 25.7614V35.5152H85.1884C85.3441 35.5152 85.4755 35.5687 85.5826 35.6758C85.6994 35.7732 85.7578 35.8997 85.7578 36.0554C85.7578 36.2112 85.6994 36.3426 85.5826 36.4497C85.4755 36.547 85.3441 36.5957 85.1884 36.5957H78.9097ZM92.4275 36.5957C92.2621 36.5957 92.1258 36.5422 92.0187 36.4351C91.9116 36.328 91.8581 36.1917 91.8581 36.0262V25.7614C91.8581 25.5959 91.9116 25.4596 92.0187 25.3525C92.1258 25.2454 92.2621 25.1919 92.4275 25.1919H99.2757C99.4314 25.1919 99.5628 25.2454 99.6699 25.3525C99.7867 25.4499 99.8451 25.5813 99.8451 25.7468C99.8451 25.8928 99.7867 26.0193 99.6699 26.1264C99.5628 26.2335 99.4314 26.287 99.2757 26.287H92.997V30.317H97.5673C97.7328 30.317 97.869 30.3706 97.9761 30.4777C98.0832 30.5847 98.1367 30.7162 98.1367 30.8719C98.1367 31.0277 98.0832 31.1591 97.9761 31.2661C97.869 31.3732 97.7328 31.4268 97.5673 31.4268H92.997V35.5006H99.2757C99.4314 35.5006 99.5628 35.5541 99.6699 35.6612C99.7867 35.7683 99.8451 35.8948 99.8451 36.0408C99.8451 36.2063 99.7867 36.3426 99.6699 36.4497C99.5628 36.547 99.4314 36.5957 99.2757 36.5957H92.4275ZM105.472 36.7417C104.849 36.7417 104.27 36.6541 103.735 36.4789C103.209 36.2939 102.752 36.036 102.362 35.705C101.973 35.374 101.676 34.9895 101.471 34.5515C101.394 34.3957 101.389 34.2546 101.457 34.128C101.535 33.9918 101.661 33.8993 101.837 33.8506C101.973 33.8117 102.104 33.8263 102.231 33.8944C102.367 33.9626 102.469 34.0648 102.537 34.2011C102.683 34.4833 102.898 34.7364 103.18 34.9603C103.462 35.1842 103.798 35.3594 104.187 35.486C104.577 35.6028 105.005 35.6612 105.472 35.6612C105.988 35.6612 106.446 35.5785 106.845 35.413C107.244 35.2378 107.555 34.9895 107.779 34.6683C108.013 34.3373 108.13 33.9382 108.13 33.471C108.13 32.8772 107.911 32.3661 107.473 31.9378C107.035 31.5095 106.348 31.2369 105.414 31.1201C104.275 30.9838 103.384 30.6334 102.742 30.0688C102.099 29.4945 101.778 28.7936 101.778 27.9662C101.778 27.3724 101.934 26.8565 102.245 26.4184C102.567 25.9804 103.005 25.6446 103.559 25.4109C104.114 25.1676 104.752 25.0459 105.472 25.0459C106.008 25.0459 106.494 25.1335 106.932 25.3087C107.37 25.4742 107.75 25.6981 108.071 25.9804C108.402 26.253 108.67 26.5547 108.874 26.8857C108.972 27.0414 109.001 27.1923 108.962 27.3383C108.933 27.4843 108.85 27.5963 108.714 27.6742C108.568 27.7423 108.417 27.752 108.261 27.7034C108.115 27.6547 108.003 27.5622 107.925 27.4259C107.779 27.2021 107.594 26.9928 107.37 26.7981C107.156 26.5937 106.894 26.433 106.582 26.3162C106.271 26.1994 105.896 26.1361 105.458 26.1264C104.689 26.1264 104.071 26.2919 103.603 26.6229C103.136 26.9441 102.902 27.4162 102.902 28.0392C102.902 28.3702 102.99 28.6768 103.165 28.9591C103.34 29.2317 103.628 29.4702 104.027 29.6746C104.436 29.8693 104.981 30.0153 105.662 30.1126C106.879 30.2878 107.779 30.6626 108.363 31.2369C108.957 31.8015 109.254 32.5413 109.254 33.4564C109.254 33.982 109.157 34.4493 108.962 34.8581C108.777 35.267 108.509 35.6125 108.159 35.8948C107.818 36.1674 107.414 36.3767 106.947 36.5227C106.49 36.6687 105.998 36.7417 105.472 36.7417ZM114.366 36.5957C114.21 36.5957 114.074 36.5422 113.957 36.4351C113.85 36.3183 113.796 36.182 113.796 36.0262V25.1919H114.935V36.0262C114.935 36.182 114.882 36.3183 114.774 36.4351C114.667 36.5422 114.531 36.5957 114.366 36.5957ZM110.336 26.2286C110.18 26.2286 110.053 26.1799 109.956 26.0826C109.859 25.9853 109.81 25.8636 109.81 25.7176C109.81 25.5618 109.859 25.4353 109.956 25.3379C110.053 25.2406 110.18 25.1919 110.336 25.1919H118.41C118.566 25.1919 118.693 25.2406 118.79 25.3379C118.887 25.4353 118.936 25.5618 118.936 25.7176C118.936 25.8636 118.887 25.9853 118.79 26.0826C118.693 26.1799 118.566 26.2286 118.41 26.2286H110.336ZM118.822 36.5957C118.598 36.5957 118.437 36.5032 118.34 36.3183C118.243 36.1333 118.233 35.9532 118.311 35.778L122.604 25.5862C122.711 25.3233 122.896 25.1919 123.159 25.1919C123.412 25.1919 123.592 25.3233 123.699 25.5862L128.006 35.7926C128.094 35.9776 128.079 36.1577 127.963 36.3329C127.855 36.5081 127.7 36.5957 127.495 36.5957C127.378 36.5957 127.271 36.5665 127.174 36.5081C127.086 36.4497 127.013 36.3621 126.955 36.2453L122.94 26.506H123.392L119.348 36.2453C119.299 36.3621 119.226 36.4497 119.129 36.5081C119.041 36.5665 118.939 36.5957 118.822 36.5957ZM119.786 33.8798L120.224 32.9015H126.152L126.59 33.8798H119.786ZM131.862 36.5957C131.706 36.5957 131.57 36.5422 131.453 36.4351C131.346 36.3183 131.292 36.182 131.292 36.0262V25.1919H132.431V36.0262C132.431 36.182 132.378 36.3183 132.271 36.4351C132.164 36.5422 132.027 36.5957 131.862 36.5957ZM127.832 26.2286C127.676 26.2286 127.55 26.1799 127.452 26.0826C127.355 25.9853 127.306 25.8636 127.306 25.7176C127.306 25.5618 127.355 25.4353 127.452 25.3379C127.55 25.2406 127.676 25.1919 127.832 25.1919H135.906C136.062 25.1919 136.189 25.2406 136.286 25.3379C136.383 25.4353 136.432 25.5618 136.432 25.7176C136.432 25.8636 136.383 25.9853 136.286 26.0826C136.189 26.1799 136.062 26.2286 135.906 26.2286H127.832ZM138.685 36.5957C138.519 36.5957 138.383 36.5422 138.276 36.4351C138.169 36.328 138.115 36.1917 138.115 36.0262V25.7614C138.115 25.5959 138.169 25.4596 138.276 25.3525C138.383 25.2454 138.519 25.1919 138.685 25.1919H145.533C145.689 25.1919 145.82 25.2454 145.927 25.3525C146.044 25.4499 146.102 25.5813 146.102 25.7468C146.102 25.8928 146.044 26.0193 145.927 26.1264C145.82 26.2335 145.689 26.287 145.533 26.287H139.254V30.317H143.824C143.99 30.317 144.126 30.3706 144.233 30.4777C144.34 30.5847 144.394 30.7162 144.394 30.8719C144.394 31.0277 144.34 31.1591 144.233 31.2661C144.126 31.3732 143.99 31.4268 143.824 31.4268H139.254V35.5006H145.533C145.689 35.5006 145.82 35.5541 145.927 35.6612C146.044 35.7683 146.102 35.8948 146.102 36.0408C146.102 36.2063 146.044 36.3426 145.927 36.4497C145.82 36.547 145.689 36.5957 145.533 36.5957H138.685Z" fill="#B9B9B9"/>
</g>
</g>
<defs>
<clipPath id="clip0_13428_2257">
<rect width="142.68" height="41.8449" fill="white" transform="translate(-0.000244141)"/>
</clipPath>
</defs>
</svg>
