<svg width="16" height="16" viewBox="0 0 16 16" fill="none" xmlns="http://www.w3.org/2000/svg">
<path d="M11.9883 12.4833C11.5225 11.8666 10.9198 11.3664 10.2278 11.0222C9.53575 10.6781 8.77324 10.4993 8.00033 10.5C7.22743 10.4993 6.46492 10.6781 5.77288 11.0222C5.08084 11.3664 4.47816 11.8666 4.01233 12.4833M11.9883 12.4833C12.8973 11.6748 13.5384 10.609 13.8278 9.42738C14.1172 8.24574 14.0405 7.00404 13.608 5.86697C13.1754 4.7299 12.4075 3.75117 11.4059 3.06058C10.4044 2.37 9.21656 2.00018 8 2.00018C6.78344 2.00018 5.59562 2.37 4.59407 3.06058C3.59252 3.75117 2.82455 4.7299 2.39202 5.86697C1.95949 7.00404 1.88284 8.24574 2.17221 9.42738C2.46159 10.609 3.10333 11.6748 4.01233 12.4833M11.9883 12.4833C10.891 13.4621 9.47075 14.0021 8.00033 14C6.52969 14.0022 5.10983 13.4623 4.01233 12.4833M10.0003 6.49999C10.0003 7.03042 9.78962 7.53913 9.41455 7.9142C9.03948 8.28927 8.53077 8.49999 8.00033 8.49999C7.4699 8.49999 6.96119 8.28927 6.58612 7.9142C6.21105 7.53913 6.00033 7.03042 6.00033 6.49999C6.00033 5.96955 6.21105 5.46085 6.58612 5.08577C6.96119 4.7107 7.4699 4.49999 8.00033 4.49999C8.53077 4.49999 9.03948 4.7107 9.41455 5.08577C9.78962 5.46085 10.0003 5.96955 10.0003 6.49999Z" stroke="#A3ABB0" stroke-linecap="round" stroke-linejoin="round"/>
</svg>
